DINAH VAA DEVLAT.ufo
<glyph name="exclam" format="1">
  <advance width="243"/>
  <unicode hex="0021"/>
  <outline>
    <contour>
      <point x="84" y="204" type="line"/>
      <point x="89" y="239"/>
      <point x="94" y="411"/>
      <point x="94" y="460" type="curve" smooth="yes"/>
      <point x="94" y="501"/>
      <point x="85" y="549"/>
      <point x="75" y="567" type="curve"/>
      <point x="129" y="649" type="line"/>
      <point x="132" y="654"/>
      <point x="135" y="656"/>
      <point x="139" y="656" type="curve" smooth="yes"/>
      <point x="157" y="656"/>
      <point x="166" y="553"/>
      <point x="166" y="437" type="curve" smooth="yes"/>
      <point x="166" y="335"/>
      <point x="159" y="221"/>
      <point x="148" y="161" type="curve"/>
    </contour>
    <contour>
      <point x="125" y="116" type="curve" smooth="yes"/>
      <point x="166" y="116"/>
      <point x="176" y="81"/>
      <point x="176" y="57" type="curve" smooth="yes"/>
      <point x="176" y="26"/>
      <point x="153" y="-2"/>
      <point x="121" y="-2" type="curve" smooth="yes"/>
      <point x="88" y="-2"/>
      <point x="66" y="26"/>
      <point x="66" y="57" type="curve" smooth="yes"/>
      <point x="66" y="63"/>
      <point x="66" y="68"/>
      <point x="68" y="73" type="curve" smooth="yes"/>
      <point x="75" y="100"/>
      <point x="101" y="116"/>
    </contour>
  </outline>
</glyph>
<glyph name="quotedbl" format="1">
  <advance width="229"/>
  <unicode hex="0022"/>
  <outline>
    <contour>
      <point x="80" y="654" type="line"/>
      <point x="84" y="579"/>
      <point x="89" y="517"/>
      <point x="89" y="476" type="curve" smooth="yes"/>
      <point x="89" y="442"/>
      <point x="85" y="422"/>
      <point x="77" y="422" type="curve"/>
      <point x="26" y="462" type="line"/>
      <point x="30" y="468"/>
      <point x="30" y="488"/>
      <point x="30" y="508" type="curve" smooth="yes"/>
      <point x="30" y="522"/>
      <point x="30" y="536"/>
      <point x="30" y="545" type="curve" smooth="yes"/>
      <point x="28" y="575"/>
      <point x="27" y="635"/>
      <point x="23" y="654" type="curve"/>
    </contour>
    <contour>
      <point x="186" y="654" type="line"/>
      <point x="191" y="579"/>
      <point x="195" y="517"/>
      <point x="195" y="476" type="curve" smooth="yes"/>
      <point x="195" y="442"/>
      <point x="192" y="422"/>
      <point x="184" y="422" type="curve"/>
      <point x="133" y="462" type="line"/>
      <point x="136" y="468"/>
      <point x="137" y="488"/>
      <point x="137" y="508" type="curve" smooth="yes"/>
      <point x="137" y="522"/>
      <point x="137" y="536"/>
      <point x="136" y="545" type="curve" smooth="yes"/>
      <point x="134" y="575"/>
      <point x="134" y="635"/>
      <point x="130" y="654" type="curve"/>
    </contour>
  </outline>
</glyph>
<glyph name="dollar" format="1">
  <advance width="609"/>
  <unicode hex="0024"/>
  <outline>
    <contour>
      <point x="276" y="-34" type="line"/>
      <point x="278" y="-5" type="line"/>
      <point x="212" y="2"/>
      <point x="93" y="66"/>
      <point x="86" y="75" type="curve"/>
      <point x="86" y="82"/>
      <point x="85" y="89"/>
      <point x="85" y="95" type="curve" smooth="yes"/>
      <point x="85" y="157"/>
      <point x="98" y="208"/>
      <point x="122" y="254" type="curve"/>
      <point x="165" y="239" type="line"/>
      <point x="161" y="223"/>
      <point x="159" y="209"/>
      <point x="159" y="195" type="curve" smooth="yes"/>
      <point x="159" y="108"/>
      <point x="228" y="91"/>
      <point x="279" y="88" type="curve"/>
      <point x="279" y="253" type="line"/>
      <point x="279" y="304" type="line"/>
      <point x="199" y="347"/>
      <point x="117" y="382"/>
      <point x="117" y="417" type="curve" smooth="yes"/>
      <point x="117" y="418"/>
      <point x="117" y="420"/>
      <point x="118" y="421" type="curve" smooth="yes"/>
      <point x="130" y="473"/>
      <point x="211" y="599"/>
      <point x="274" y="647" type="curve"/>
      <point x="271" y="667"/>
      <point x="269" y="683"/>
      <point x="266" y="690" type="curve"/>
      <point x="308" y="713" type="line"/>
      <point x="313" y="713"/>
      <point x="317" y="695"/>
      <point x="321" y="664" type="curve"/>
      <point x="380" y="654"/>
      <point x="476" y="600"/>
      <point x="476" y="593" type="curve" smooth="yes"/>
      <point x="476" y="582"/>
      <point x="476" y="569"/>
      <point x="476" y="553" type="curve" smooth="yes"/>
      <point x="476" y="516"/>
      <point x="467" y="466"/>
      <point x="448" y="418" type="curve"/>
      <point x="412" y="432" type="line"/>
      <point x="417" y="444"/>
      <point x="417" y="455"/>
      <point x="418" y="467" type="curve"/>
      <point x="418" y="515"/>
      <point x="364" y="563"/>
      <point x="326" y="578" type="curve"/>
      <point x="328" y="528"/>
      <point x="329" y="467"/>
      <point x="329" y="401" type="curve"/>
      <point x="421" y="344"/>
      <point x="530" y="267"/>
      <point x="530" y="229" type="curve" smooth="yes"/>
      <point x="530" y="225" type="line"/>
      <point x="518" y="174"/>
      <point x="409" y="49"/>
      <point x="330" y="7" type="curve"/>
      <point x="330" y="-39" type="line"/>
    </contour>
    <contour>
      <point x="418" y="188" type="curve"/>
      <point x="418" y="190" type="line"/>
      <point x="404" y="222"/>
      <point x="370" y="250"/>
      <point x="330" y="276" type="curve"/>
      <point x="330" y="92" type="line"/>
      <point x="403" y="109"/>
      <point x="418" y="175"/>
    </contour>
    <contour>
      <point x="205" y="475" type="curve"/>
      <point x="205" y="475"/>
      <point x="236" y="458"/>
      <point x="279" y="432" type="curve"/>
      <point x="279" y="538" type="line" smooth="yes"/>
      <point x="279" y="548"/>
      <point x="279" y="561"/>
      <point x="278" y="576" type="curve"/>
      <point x="248" y="560"/>
      <point x="214" y="517"/>
    </contour>
  </outline>
</glyph>
<glyph name="percent" format="1">
  <advance width="683"/>
  <unicode hex="0025"/>
  <outline>
    <contour>
      <point x="144" y="353" type="curve" smooth="yes"/>
      <point x="25" y="353"/>
      <point x="16" y="435"/>
      <point x="16" y="516" type="curve" smooth="yes"/>
      <point x="16" y="554"/>
      <point x="125" y="657"/>
      <point x="172" y="657" type="curve" smooth="yes"/>
      <point x="272" y="657"/>
      <point x="302" y="599"/>
      <point x="302" y="532" type="curve" smooth="yes"/>
      <point x="302" y="524"/>
      <point x="300" y="516"/>
      <point x="298" y="494" type="curve"/>
      <point x="298" y="455"/>
      <point x="189" y="353"/>
    </contour>
    <contour>
      <point x="469" y="-5" type="curve" smooth="yes"/>
      <point x="349" y="-5"/>
      <point x="341" y="78"/>
      <point x="341" y="158" type="curve" smooth="yes"/>
      <point x="341" y="197"/>
      <point x="450" y="299"/>
      <point x="497" y="299" type="curve" smooth="yes"/>
      <point x="597" y="299"/>
      <point x="626" y="241"/>
      <point x="626" y="175" type="curve" smooth="yes"/>
      <point x="626" y="166"/>
      <point x="625" y="158"/>
      <point x="623" y="136" type="curve"/>
      <point x="623" y="98"/>
      <point x="514" y="-5"/>
    </contour>
    <contour>
      <point x="61" y="-6" type="line"/>
      <point x="85" y="24"/>
      <point x="347" y="453"/>
      <point x="373" y="496" type="curve" smooth="yes"/>
      <point x="391" y="525"/>
      <point x="411" y="558"/>
      <point x="417" y="578" type="curve" smooth="yes"/>
      <point x="419" y="584"/>
      <point x="420" y="588"/>
      <point x="420" y="591" type="curve"/>
      <point x="506" y="648" type="line"/>
      <point x="511" y="645"/>
      <point x="513" y="640"/>
      <point x="513" y="634" type="curve" smooth="yes"/>
      <point x="513" y="627"/>
      <point x="511" y="620"/>
      <point x="508" y="610" type="curve" smooth="yes"/>
      <point x="493" y="565"/>
      <point x="446" y="485"/>
      <point x="392" y="394" type="curve"/>
      <point x="326" y="285" type="line" smooth="yes"/>
      <point x="307" y="253"/>
      <point x="286" y="223"/>
      <point x="268" y="193" type="curve" smooth="yes"/>
      <point x="151" y="-2" type="line"/>
    </contour>
    <contour>
      <point x="550" y="69" type="curve"/>
      <point x="563" y="89"/>
      <point x="567" y="112"/>
      <point x="567" y="135" type="curve" smooth="yes"/>
      <point x="567" y="192"/>
      <point x="535" y="247"/>
      <point x="479" y="247" type="curve" smooth="yes"/>
      <point x="463" y="247"/>
      <point x="446" y="243"/>
      <point x="427" y="233" type="curve"/>
      <point x="411" y="212"/>
      <point x="403" y="189"/>
      <point x="403" y="166" type="curve" smooth="yes"/>
      <point x="403" y="110"/>
      <point x="449" y="58"/>
      <point x="505" y="58" type="curve" smooth="yes"/>
      <point x="520" y="58"/>
      <point x="535" y="61"/>
    </contour>
    <contour>
      <point x="225" y="426" type="curve"/>
      <point x="238" y="446"/>
      <point x="243" y="470"/>
      <point x="243" y="493" type="curve" smooth="yes"/>
      <point x="243" y="549"/>
      <point x="210" y="604"/>
      <point x="154" y="604" type="curve" smooth="yes"/>
      <point x="139" y="604"/>
      <point x="121" y="600"/>
      <point x="102" y="590" type="curve"/>
      <point x="86" y="570"/>
      <point x="79" y="546"/>
      <point x="79" y="524" type="curve" smooth="yes"/>
      <point x="79" y="467"/>
      <point x="124" y="416"/>
      <point x="180" y="416" type="curve" smooth="yes"/>
      <point x="195" y="416"/>
      <point x="210" y="419"/>
    </contour>
  </outline>
</glyph>
<glyph name="ampersand" format="1">
  <advance width="604"/>
  <unicode hex="0026"/>
  <outline>
    <contour>
      <point x="452" y="130" type="line"/>
      <point x="473" y="104"/>
      <point x="525" y="39"/>
      <point x="525" y="7" type="curve" smooth="yes"/>
      <point x="525" y="1"/>
      <point x="522" y="-5"/>
      <point x="517" y="-8" type="curve"/>
      <point x="458" y="0" type="line"/>
      <point x="456" y="20"/>
      <point x="414" y="83"/>
      <point x="414" y="83" type="curve"/>
      <point x="308" y="-11"/>
      <point x="225" y="-14" type="qcurve"/>
      <point x="153" y="-16"/>
      <point x="75" y="68"/>
      <point x="68" y="134" type="qcurve"/>
      <point x="68" y="263"/>
      <point x="234" y="324" type="qcurve"/>
      <point x="219" y="349"/>
      <point x="185" y="409"/>
      <point x="185" y="464" type="curve" smooth="yes"/>
      <point x="185" y="510"/>
      <point x="211" y="551"/>
      <point x="297" y="559" type="curve" smooth="yes"/>
      <point x="301" y="559"/>
      <point x="305" y="560"/>
      <point x="309" y="560" type="curve" smooth="yes"/>
      <point x="369" y="560"/>
      <point x="403" y="515"/>
      <point x="403" y="461" type="curve" smooth="yes"/>
      <point x="403" y="411"/>
      <point x="377" y="348"/>
      <point x="310" y="313" type="curve"/>
      <point x="426" y="166" type="line"/>
      <point x="426" y="166"/>
      <point x="453" y="234"/>
      <point x="453" y="299" type="curve" smooth="yes"/>
      <point x="453" y="305"/>
      <point x="453" y="311"/>
      <point x="453" y="317" type="curve" smooth="yes"/>
      <point x="453" y="319"/>
      <point x="512" y="330"/>
      <point x="512" y="330" type="curve"/>
      <point x="513" y="328"/>
      <point x="513" y="326"/>
      <point x="513" y="323" type="curve" smooth="yes"/>
      <point x="513" y="283"/>
      <point x="448" y="136"/>
      <point x="448" y="136" type="curve"/>
    </contour>
    <contour>
      <point x="394" y="112" type="curve"/>
      <point x="261" y="276"/>
      <point x="259" y="281"/>
      <point x="249" y="294" type="curve"/>
      <point x="177" y="273"/>
      <point x="144" y="240"/>
      <point x="144" y="197" type="curve" smooth="yes"/>
      <point x="144" y="171"/>
      <point x="156" y="142"/>
      <point x="177" y="110" type="curve" smooth="yes"/>
      <point x="212" y="57"/>
      <point x="241" y="35"/>
      <point x="271" y="35" type="curve" smooth="yes"/>
      <point x="289" y="35"/>
      <point x="308" y="43"/>
      <point x="327" y="56" type="curve" smooth="yes"/>
      <point x="335" y="61"/>
      <point x="385" y="105"/>
    </contour>
    <contour>
      <point x="256" y="520" type="curve"/>
      <point x="249" y="507"/>
      <point x="246" y="490"/>
      <point x="246" y="472" type="curve" smooth="yes"/>
      <point x="246" y="415"/>
      <point x="276" y="344"/>
      <point x="295" y="344" type="curve" smooth="yes"/>
      <point x="298" y="344"/>
      <point x="299" y="345"/>
      <point x="302" y="348" type="curve"/>
      <point x="327" y="359"/>
      <point x="340" y="396"/>
      <point x="340" y="435" type="curve" smooth="yes"/>
      <point x="340" y="481"/>
      <point x="321" y="528"/>
      <point x="285" y="528" type="curve" smooth="yes"/>
      <point x="276" y="528"/>
      <point x="266" y="526"/>
    </contour>
  </outline>
</glyph>
<glyph name="parenleft" format="1">
  <advance width="250"/>
  <unicode hex="0028"/>
  <outline>
    <contour>
      <point x="235" y="644" type="line"/>
      <point x="133" y="496"/>
      <point x="113" y="389"/>
      <point x="108" y="210" type="curve" smooth="yes"/>
      <point x="108" y="199"/>
      <point x="107" y="189"/>
      <point x="107" y="178" type="curve" smooth="yes"/>
      <point x="107" y="-61"/>
      <point x="197" y="-157"/>
      <point x="259" y="-254" type="curve"/>
      <point x="229" y="-254" type="line"/>
      <point x="229" y="-254"/>
      <point x="24" y="-97"/>
      <point x="20" y="197" type="curve" smooth="yes"/>
      <point x="20" y="201" type="line" smooth="yes"/>
      <point x="20" y="494"/>
      <point x="211" y="667"/>
      <point x="211" y="667" type="curve"/>
    </contour>
  </outline>
</glyph>
<glyph name="asterisk" format="1">
  <advance width="328"/>
  <unicode hex="002A"/>
  <outline>
    <contour>
      <point x="204" y="672" type="line"/>
      <point x="189" y="645"/>
      <point x="168" y="563"/>
      <point x="168" y="537" type="curve"/>
      <point x="185" y="562" type="line" smooth="yes"/>
      <point x="209" y="595"/>
      <point x="275" y="636"/>
      <point x="293" y="637" type="curve"/>
      <point x="293" y="574" type="line"/>
      <point x="257" y="567"/>
      <point x="189" y="543"/>
      <point x="173" y="529" type="curve"/>
      <point x="216" y="512"/>
      <point x="300" y="463"/>
      <point x="307" y="444" type="curve"/>
      <point x="246" y="425" type="line"/>
      <point x="230" y="455"/>
      <point x="186" y="507"/>
      <point x="169" y="518" type="curve"/>
      <point x="175" y="490"/>
      <point x="180" y="402"/>
      <point x="180" y="378" type="curve"/>
      <point x="124" y="388" type="line"/>
      <point x="140" y="426"/>
      <point x="146" y="486"/>
      <point x="157" y="520" type="curve"/>
      <point x="130" y="485"/>
      <point x="55" y="441"/>
      <point x="29" y="440" type="curve"/>
      <point x="34" y="503" type="line"/>
      <point x="65" y="505"/>
      <point x="134" y="519"/>
      <point x="150" y="529" type="curve"/>
      <point x="110" y="545"/>
      <point x="30" y="596"/>
      <point x="25" y="615" type="curve"/>
      <point x="85" y="633" type="line"/>
      <point x="99" y="605"/>
      <point x="139" y="549"/>
      <point x="156" y="539" type="curve"/>
      <point x="150" y="567"/>
      <point x="148" y="657"/>
      <point x="148" y="680" type="curve"/>
    </contour>
  </outline>
</glyph>
<glyph name="period" format="1">
  <advance width="165"/>
  <unicode hex="002E"/>
  <outline>
    <contour>
      <point x="90" y="116" type="curve" smooth="yes"/>
      <point x="131" y="116"/>
      <point x="142" y="81"/>
      <point x="142" y="57" type="curve" smooth="yes"/>
      <point x="142" y="26"/>
      <point x="118" y="-2"/>
      <point x="87" y="-2" type="curve" smooth="yes"/>
      <point x="53" y="-2"/>
      <point x="32" y="26"/>
      <point x="32" y="57" type="curve" smooth="yes"/>
      <point x="32" y="63"/>
      <point x="32" y="68"/>
      <point x="34" y="73" type="curve" smooth="yes"/>
      <point x="40" y="100"/>
      <point x="66" y="116"/>
    </contour>
  </outline>
</glyph>
<glyph name="slash" format="1">
  <advance width="431"/>
  <unicode hex="002F"/>
  <outline>
    <contour>
      <point x="61" y="-9" type="line"/>
      <point x="80" y="18"/>
      <point x="275" y="401"/>
      <point x="321" y="490" type="curve"/>
      <point x="330" y="510" type="line"/>
      <point x="344" y="538"/>
      <point x="360" y="569"/>
      <point x="364" y="589" type="curve" smooth="yes"/>
      <point x="366" y="594"/>
      <point x="366" y="599"/>
      <point x="366" y="602" type="curve"/>
      <point x="447" y="662" type="line"/>
      <point x="453" y="660"/>
      <point x="455" y="654"/>
      <point x="455" y="645" type="curve" smooth="yes"/>
      <point x="455" y="640"/>
      <point x="454" y="633"/>
      <point x="452" y="625" type="curve" smooth="yes"/>
      <point x="441" y="579"/>
      <point x="402" y="497"/>
      <point x="356" y="404" type="curve"/>
      <point x="299" y="292" type="line" smooth="yes"/>
      <point x="283" y="259"/>
      <point x="265" y="228"/>
      <point x="249" y="197" type="curve"/>
      <point x="150" y="-2" type="line"/>
    </contour>
  </outline>
</glyph>
<glyph name="zero" format="1">
  <advance width="397"/>
  <unicode hex="0030"/>
  <outline>
    <contour>
      <point x="282" y="92" type="curve"/>
      <point x="297" y="116"/>
      <point x="303" y="145"/>
      <point x="303" y="174" type="curve" smooth="yes"/>
      <point x="303" y="244"/>
      <point x="262" y="315"/>
      <point x="192" y="315" type="curve" smooth="yes"/>
      <point x="172" y="315"/>
      <point x="151" y="309"/>
      <point x="127" y="297" type="curve"/>
      <point x="107" y="271"/>
      <point x="89" y="234"/>
      <point x="89" y="206" type="curve" smooth="yes"/>
      <point x="89" y="135"/>
      <point x="146" y="71"/>
      <point x="218" y="71" type="curve" smooth="yes"/>
      <point x="236" y="71"/>
      <point x="263" y="83"/>
    </contour>
    <contour>
      <point x="180" y="0" type="curve" smooth="yes"/>
      <point x="30" y="0"/>
      <point x="20" y="103"/>
      <point x="20" y="203" type="curve" smooth="yes"/>
      <point x="20" y="252"/>
      <point x="157" y="380"/>
      <point x="215" y="380" type="curve" smooth="yes"/>
      <point x="341" y="380"/>
      <point x="376" y="306"/>
      <point x="376" y="223" type="curve" smooth="yes"/>
      <point x="376" y="207"/>
      <point x="376" y="192"/>
      <point x="373" y="176" type="curve"/>
      <point x="373" y="128"/>
      <point x="237" y="0"/>
    </contour>
  </outline>
</glyph>
<glyph name="one" format="1">
  <advance width="189"/>
  <unicode hex="0031"/>
  <outline>
    <contour>
      <point x="86" y="0" type="line"/>
      <point x="91" y="34"/>
      <point x="96" y="145"/>
      <point x="96" y="197" type="curve" smooth="yes"/>
      <point x="96" y="238"/>
      <point x="96" y="293"/>
      <point x="81" y="310" type="curve"/>
      <point x="80" y="310"/>
      <point x="34" y="299"/>
      <point x="26" y="298" type="curve"/>
      <point x="21" y="309" type="line"/>
      <point x="51" y="340"/>
      <point x="130" y="388"/>
      <point x="146" y="386" type="curve"/>
      <point x="154" y="375" type="line"/>
      <point x="176" y="348"/>
      <point x="163" y="218"/>
      <point x="168" y="2" type="curve"/>
    </contour>
  </outline>
</glyph>
<glyph name="two" format="1">
  <advance width="393"/>
  <unicode hex="0032"/>
  <outline>
    <contour>
      <point x="181" y="380" type="curve"/>
      <point x="231" y="386"/>
      <point x="336" y="302"/>
      <point x="336" y="259" type="curve" smooth="yes"/>
      <point x="336" y="253"/>
      <point x="335" y="247"/>
      <point x="333" y="239" type="curve" smooth="yes"/>
      <point x="323" y="203"/>
      <point x="289" y="148"/>
      <point x="223" y="48" type="curve"/>
      <point x="277" y="52"/>
      <point x="371" y="65"/>
      <point x="389" y="66" type="curve"/>
      <point x="358" y="0" type="line"/>
      <point x="184" y="3"/>
      <point x="67" y="-8"/>
      <point x="67" y="11" type="curve"/>
      <point x="119" y="53" type="line"/>
      <point x="119" y="53"/>
      <point x="119" y="52"/>
      <point x="120" y="52" type="curve"/>
      <point x="148" y="81"/>
      <point x="222" y="180"/>
      <point x="248" y="221" type="curve" smooth="yes"/>
      <point x="265" y="248"/>
      <point x="266" y="245"/>
      <point x="275" y="266" type="curve"/>
      <point x="236" y="330"/>
      <point x="148" y="283"/>
      <point x="123" y="232" type="curve"/>
      <point x="106" y="244"/>
      <point x="77" y="277"/>
      <point x="75" y="282" type="curve"/>
      <point x="70" y="284"/>
      <point x="131" y="375"/>
    </contour>
  </outline>
</glyph>
<glyph name="three" format="1">
  <advance width="378"/>
  <unicode hex="0033"/>
  <outline>
    <contour>
      <point x="51" y="282" type="line"/>
      <point x="51" y="292"/>
      <point x="104" y="367"/>
      <point x="143" y="380" type="curve" smooth="yes"/>
      <point x="145" y="380"/>
      <point x="147" y="380"/>
      <point x="149" y="380" type="curve" smooth="yes"/>
      <point x="189" y="380"/>
      <point x="294" y="273"/>
      <point x="308" y="239" type="curve" smooth="yes"/>
      <point x="317" y="219"/>
      <point x="321" y="194"/>
      <point x="321" y="169" type="curve" smooth="yes"/>
      <point x="321" y="122"/>
      <point x="305" y="75"/>
      <point x="268" y="51" type="curve"/>
      <point x="330" y="8"/>
      <point x="375" y="-39"/>
      <point x="375" y="-90" type="curve" smooth="yes"/>
      <point x="375" y="-169"/>
      <point x="276" y="-257"/>
      <point x="194" y="-257" type="curve" smooth="yes"/>
      <point x="115" y="-257"/>
      <point x="15" y="-254"/>
      <point x="15" y="-168" type="curve" smooth="yes"/>
      <point x="15" y="-157"/>
      <point x="16" y="-146"/>
      <point x="20" y="-132" type="curve"/>
      <point x="25" y="-132"/>
      <point x="76" y="-134"/>
      <point x="93" y="-142" type="curve"/>
      <point x="93" y="-176"/>
      <point x="103" y="-216"/>
      <point x="143" y="-216" type="curve" smooth="yes"/>
      <point x="244" y="-216"/>
      <point x="281" y="-93"/>
      <point x="281" y="-65" type="curve" smooth="yes"/>
      <point x="281" y="-7"/>
      <point x="257" y="17"/>
      <point x="223" y="35" type="curve"/>
      <point x="221" y="35" type="line" smooth="yes"/>
      <point x="199" y="35"/>
      <point x="155" y="40"/>
      <point x="118" y="55" type="curve"/>
      <point x="126" y="81" type="line"/>
      <point x="137" y="76"/>
      <point x="148" y="74"/>
      <point x="157" y="74" type="curve" smooth="yes"/>
      <point x="209" y="74"/>
      <point x="243" y="125"/>
      <point x="243" y="198" type="curve" smooth="yes"/>
      <point x="243" y="221"/>
      <point x="239" y="244"/>
      <point x="230" y="266" type="curve" smooth="yes"/>
      <point x="222" y="288"/>
      <point x="207" y="296"/>
      <point x="190" y="296" type="curve" smooth="yes"/>
      <point x="153" y="296"/>
      <point x="114" y="265"/>
      <point x="98" y="233" type="curve"/>
      <point x="81" y="241"/>
      <point x="53" y="278"/>
      <point x="52" y="281" type="curve"/>
    </contour>
  </outline>
</glyph>
<glyph name="four" format="1">
  <advance width="493"/>
  <unicode hex="0034"/>
  <outline>
    <contour>
      <point x="431" y="-7" type="line"/>
      <point x="415" y="-7"/>
      <point x="396" y="-7"/>
      <point x="379" y="-7" type="curve"/>
      <point x="379" y="-41"/>
      <point x="378" y="-78"/>
      <point x="378" y="-113" type="curve" smooth="yes"/>
      <point x="378" y="-163"/>
      <point x="379" y="-212"/>
      <point x="380" y="-253" type="curve"/>
      <point x="298" y="-253" type="line"/>
      <point x="302" y="-227"/>
      <point x="307" y="-85"/>
      <point x="309" y="-7" type="curve"/>
      <point x="298" y="-7"/>
      <point x="287" y="-7"/>
      <point x="276" y="-7" type="curve" smooth="yes"/>
      <point x="240" y="-8"/>
      <point x="205" y="-8"/>
      <point x="173" y="-8" type="curve" smooth="yes"/>
      <point x="94" y="-8"/>
      <point x="34" y="-6"/>
      <point x="34" y="4" type="curve"/>
      <point x="78" y="44" type="line" smooth="yes"/>
      <point x="122" y="84"/>
      <point x="216" y="222"/>
      <point x="235" y="276" type="curve"/>
      <point x="246" y="297"/>
      <point x="271" y="320"/>
      <point x="292" y="338" type="curve"/>
      <point x="292" y="339"/>
      <point x="291" y="340"/>
      <point x="291" y="341" type="curve"/>
      <point x="322" y="364" type="line" smooth="yes"/>
      <point x="323" y="365"/>
      <point x="325" y="366"/>
      <point x="325" y="366" type="curve"/>
      <point x="358" y="389" type="line"/>
      <point x="376" y="389"/>
      <point x="379" y="301"/>
      <point x="379" y="144" type="curve"/>
      <point x="379" y="52" type="line"/>
      <point x="384" y="52" type="line"/>
      <point x="423" y="55"/>
      <point x="453" y="57"/>
      <point x="459" y="59" type="curve"/>
    </contour>
    <contour>
      <point x="310" y="48" type="curve"/>
      <point x="309" y="89"/>
      <point x="305" y="203"/>
      <point x="298" y="286" type="curve"/>
      <point x="263" y="194"/>
      <point x="213" y="139"/>
      <point x="161" y="39" type="curve"/>
      <point x="191" y="40"/>
      <point x="251" y="43"/>
    </contour>
  </outline>
</glyph>
<glyph name="five" format="1">
  <advance width="441"/>
  <unicode hex="0035"/>
  <outline>
    <contour>
      <point x="393" y="248" type="line"/>
      <point x="369" y="248"/>
      <point x="350" y="248"/>
      <point x="326" y="248" type="curve" smooth="yes"/>
      <point x="279" y="248"/>
      <point x="232" y="247"/>
      <point x="193" y="247" type="curve" smooth="yes"/>
      <point x="166" y="247"/>
      <point x="143" y="248"/>
      <point x="124" y="250" type="curve"/>
      <point x="125" y="230"/>
      <point x="125" y="215"/>
      <point x="125" y="202" type="curve" smooth="yes"/>
      <point x="125" y="176"/>
      <point x="123" y="155"/>
      <point x="120" y="108" type="curve"/>
      <point x="249" y="104"/>
      <point x="375" y="-4"/>
      <point x="375" y="-90" type="curve" smooth="yes"/>
      <point x="375" y="-169"/>
      <point x="276" y="-257"/>
      <point x="194" y="-257" type="curve" smooth="yes"/>
      <point x="115" y="-257"/>
      <point x="15" y="-254"/>
      <point x="15" y="-168" type="curve" smooth="yes"/>
      <point x="15" y="-157"/>
      <point x="16" y="-146"/>
      <point x="20" y="-132" type="curve"/>
      <point x="25" y="-132"/>
      <point x="76" y="-134"/>
      <point x="93" y="-142" type="curve"/>
      <point x="93" y="-176"/>
      <point x="103" y="-216"/>
      <point x="143" y="-216" type="curve" smooth="yes"/>
      <point x="244" y="-216"/>
      <point x="281" y="-93"/>
      <point x="281" y="-65" type="curve" smooth="yes"/>
      <point x="281" y="23"/>
      <point x="181" y="71"/>
      <point x="97" y="68" type="curve"/>
      <point x="97" y="69" type="line"/>
      <point x="65" y="68" type="line"/>
      <point x="74" y="128"/>
      <point x="83" y="187"/>
      <point x="83" y="238" type="curve" smooth="yes"/>
      <point x="83" y="245"/>
      <point x="83" y="252"/>
      <point x="82" y="258" type="curve"/>
      <point x="78" y="261"/>
      <point x="75" y="263"/>
      <point x="75" y="266" type="curve"/>
      <point x="81" y="272" type="line"/>
      <point x="81" y="273" type="line"/>
      <point x="82" y="273" type="line"/>
      <point x="128" y="318" type="line"/>
      <point x="138" y="313"/>
      <point x="175" y="312"/>
      <point x="199" y="312" type="curve" smooth="yes"/>
      <point x="207" y="312" type="line" smooth="yes"/>
      <point x="253" y="312"/>
      <point x="408" y="323"/>
      <point x="426" y="326" type="curve"/>
    </contour>
  </outline>
</glyph>
<glyph name="six" format="1">
  <advance width="429"/>
  <unicode hex="0036"/>
  <outline>
    <contour>
      <point x="206" y="-2" type="curve" smooth="yes"/>
      <point x="56" y="-2"/>
      <point x="42" y="100"/>
      <point x="37" y="200" type="curve" smooth="yes"/>
      <point x="37" y="203"/>
      <point x="37" y="206"/>
      <point x="38" y="209" type="curve"/>
      <point x="45" y="284"/>
      <point x="111" y="661"/>
      <point x="264" y="661" type="curve" smooth="yes"/>
      <point x="307" y="661"/>
      <point x="353" y="610"/>
      <point x="370" y="591" type="curve"/>
      <point x="358" y="570" type="line"/>
      <point x="331" y="589"/>
      <point x="323" y="599"/>
      <point x="291" y="599" type="curve" smooth="yes"/>
      <point x="218" y="599"/>
      <point x="169" y="498"/>
      <point x="134" y="329" type="curve"/>
      <point x="138" y="332" type="line"/>
      <point x="160" y="350"/>
      <point x="194" y="378"/>
      <point x="225" y="378" type="curve" smooth="yes"/>
      <point x="380" y="378"/>
      <point x="391" y="275"/>
      <point x="391" y="175" type="curve" smooth="yes"/>
      <point x="391" y="125"/>
      <point x="262" y="-1"/>
    </contour>
    <contour>
      <point x="133" y="290" type="curve"/>
      <point x="119" y="269"/>
      <point x="112" y="241"/>
      <point x="112" y="213" type="curve" smooth="yes"/>
      <point x="112" y="140"/>
      <point x="163" y="72"/>
      <point x="240" y="72" type="curve" smooth="yes"/>
      <point x="259" y="72"/>
      <point x="280" y="76"/>
      <point x="302" y="86" type="curve"/>
      <point x="311" y="107"/>
      <point x="315" y="133"/>
      <point x="315" y="158" type="curve" smooth="yes"/>
      <point x="315" y="232"/>
      <point x="278" y="308"/>
      <point x="203" y="308" type="curve" smooth="yes"/>
      <point x="182" y="308"/>
      <point x="159" y="303"/>
    </contour>
  </outline>
</glyph>
<glyph name="seven" format="1">
  <advance width="375"/>
  <unicode hex="0037"/>
  <outline>
    <contour>
      <point x="81" y="-253" type="line"/>
      <point x="111" y="-175"/>
      <point x="249" y="117"/>
      <point x="297" y="247" type="curve"/>
      <point x="274" y="246"/>
      <point x="248" y="246"/>
      <point x="219" y="246" type="curve"/>
      <point x="126" y="246" type="line"/>
      <point x="99" y="246"/>
      <point x="72" y="246"/>
      <point x="45" y="245" type="curve"/>
      <point x="8" y="326" type="line"/>
      <point x="27" y="322"/>
      <point x="186" y="312"/>
      <point x="233" y="312" type="curve"/>
      <point x="241" y="312" type="line"/>
      <point x="266" y="312"/>
      <point x="294" y="312"/>
      <point x="307" y="317" type="curve"/>
      <point x="353" y="276" type="line"/>
      <point x="353" y="273" type="line"/>
      <point x="367" y="261" type="line"/>
      <point x="366" y="257"/>
      <point x="360" y="254"/>
      <point x="350" y="252" type="curve"/>
      <point x="330" y="169"/>
      <point x="238" y="-53"/>
      <point x="163" y="-253" type="curve"/>
    </contour>
  </outline>
</glyph>
<glyph name="eight" format="1">
  <advance width="449"/>
  <unicode hex="0038"/>
  <outline>
    <contour>
      <point x="207" y="-259" type="curve" smooth="yes"/>
      <point x="57" y="-259"/>
      <point x="47" y="-161"/>
      <point x="47" y="-66" type="curve" smooth="yes"/>
      <point x="47" y="-39"/>
      <point x="94" y="14"/>
      <point x="145" y="53" type="curve"/>
      <point x="54" y="72"/>
      <point x="47" y="149"/>
      <point x="47" y="226" type="curve" smooth="yes"/>
      <point x="47" y="269"/>
      <point x="173" y="380"/>
      <point x="225" y="380" type="curve" smooth="yes"/>
      <point x="341" y="380"/>
      <point x="372" y="315"/>
      <point x="372" y="244" type="curve" smooth="yes"/>
      <point x="372" y="231"/>
      <point x="371" y="217"/>
      <point x="370" y="204" type="curve"/>
      <point x="370" y="180"/>
      <point x="330" y="134"/>
      <point x="285" y="98" type="curve"/>
      <point x="376" y="83"/>
      <point x="403" y="21"/>
      <point x="403" y="-47" type="curve" smooth="yes"/>
      <point x="403" y="-61"/>
      <point x="401" y="-75"/>
      <point x="399" y="-90" type="curve"/>
      <point x="399" y="-138"/>
      <point x="263" y="-259"/>
    </contour>
    <contour>
      <point x="307" y="-176" type="curve"/>
      <point x="321" y="-153"/>
      <point x="328" y="-126"/>
      <point x="328" y="-98" type="curve" smooth="yes"/>
      <point x="328" y="-30"/>
      <point x="287" y="38"/>
      <point x="217" y="38" type="curve" smooth="yes"/>
      <point x="198" y="38"/>
      <point x="176" y="32"/>
      <point x="153" y="20" type="curve"/>
      <point x="133" y="-4"/>
      <point x="123" y="-33"/>
      <point x="123" y="-60" type="curve" smooth="yes"/>
      <point x="123" y="-126"/>
      <point x="179" y="-189"/>
      <point x="251" y="-189" type="curve" smooth="yes"/>
      <point x="269" y="-189"/>
      <point x="288" y="-185"/>
    </contour>
    <contour>
      <point x="286" y="127" type="curve"/>
      <point x="300" y="148"/>
      <point x="307" y="174"/>
      <point x="307" y="200" type="curve" smooth="yes"/>
      <point x="307" y="262"/>
      <point x="269" y="324"/>
      <point x="204" y="324" type="curve" smooth="yes"/>
      <point x="187" y="324"/>
      <point x="167" y="319"/>
      <point x="146" y="309" type="curve"/>
      <point x="127" y="286"/>
      <point x="119" y="261"/>
      <point x="119" y="235" type="curve" smooth="yes"/>
      <point x="119" y="173"/>
      <point x="170" y="116"/>
      <point x="235" y="116" type="curve" smooth="yes"/>
      <point x="252" y="116"/>
      <point x="269" y="120"/>
    </contour>
  </outline>
</glyph>
<glyph name="nine" format="1">
  <advance width="463"/>
  <unicode hex="0039"/>
  <outline>
    <contour>
      <point x="240" y="371" type="curve" smooth="yes"/>
      <point x="390" y="371"/>
      <point x="404" y="269"/>
      <point x="409" y="169" type="curve" smooth="yes"/>
      <point x="409" y="166"/>
      <point x="409" y="163"/>
      <point x="408" y="160" type="curve" smooth="yes"/>
      <point x="400" y="85"/>
      <point x="346" y="-257"/>
      <point x="193" y="-257" type="curve" smooth="yes"/>
      <point x="149" y="-257"/>
      <point x="104" y="-206"/>
      <point x="87" y="-187" type="curve"/>
      <point x="98" y="-166" type="line"/>
      <point x="125" y="-185"/>
      <point x="134" y="-194"/>
      <point x="166" y="-194" type="curve" smooth="yes"/>
      <point x="238" y="-194"/>
      <point x="277" y="-129"/>
      <point x="312" y="40" type="curve"/>
      <point x="308" y="37" type="line"/>
      <point x="286" y="19"/>
      <point x="253" y="-9"/>
      <point x="221" y="-9" type="curve" smooth="yes"/>
      <point x="66" y="-9"/>
      <point x="55" y="94"/>
      <point x="55" y="194" type="curve" smooth="yes"/>
      <point x="55" y="244"/>
      <point x="184" y="370"/>
    </contour>
    <contour>
      <point x="144" y="283" type="curve"/>
      <point x="135" y="262"/>
      <point x="131" y="236"/>
      <point x="131" y="211" type="curve" smooth="yes"/>
      <point x="131" y="137"/>
      <point x="168" y="61"/>
      <point x="244" y="61" type="curve" smooth="yes"/>
      <point x="264" y="61"/>
      <point x="287" y="66"/>
      <point x="313" y="79" type="curve"/>
      <point x="332" y="107"/>
      <point x="333" y="153"/>
      <point x="334" y="155" type="curve" smooth="yes"/>
      <point x="334" y="228"/>
      <point x="282" y="296"/>
      <point x="205" y="296" type="curve" smooth="yes"/>
      <point x="186" y="296"/>
      <point x="166" y="292"/>
    </contour>
  </outline>
</glyph>
<glyph name="colon" format="1">
  <advance width="180"/>
  <unicode hex="003A"/>
  <outline>
    <contour>
      <point x="90" y="116" type="curve" smooth="yes"/>
      <point x="131" y="116"/>
      <point x="142" y="81"/>
      <point x="142" y="57" type="curve" smooth="yes"/>
      <point x="142" y="26"/>
      <point x="118" y="-2"/>
      <point x="87" y="-2" type="curve" smooth="yes"/>
      <point x="53" y="-2"/>
      <point x="32" y="26"/>
      <point x="32" y="57" type="curve" smooth="yes"/>
      <point x="32" y="63"/>
      <point x="32" y="68"/>
      <point x="34" y="73" type="curve" smooth="yes"/>
      <point x="40" y="100"/>
      <point x="66" y="116"/>
    </contour>
    <contour>
      <point x="90" y="296" type="curve" smooth="yes"/>
      <point x="131" y="296"/>
      <point x="142" y="262"/>
      <point x="142" y="235" type="curve" smooth="yes"/>
      <point x="142" y="205"/>
      <point x="118" y="176"/>
      <point x="87" y="176" type="curve" smooth="yes"/>
      <point x="53" y="176"/>
      <point x="32" y="207"/>
      <point x="32" y="236" type="curve" smooth="yes"/>
      <point x="32" y="241"/>
      <point x="32" y="246"/>
      <point x="34" y="252" type="curve" smooth="yes"/>
      <point x="40" y="278"/>
      <point x="66" y="296"/>
    </contour>
  </outline>
</glyph>
<glyph name="less" format="1">
  <advance width="491"/>
  <unicode hex="003C"/>
  <outline>
    <contour>
      <point x="36" y="242" type="line"/>
      <point x="237" y="323" type="line"/>
      <point x="338" y="364"/>
      <point x="399" y="388"/>
      <point x="429" y="388" type="curve" smooth="yes"/>
      <point x="440" y="388"/>
      <point x="448" y="385"/>
      <point x="450" y="377" type="curve" smooth="yes"/>
      <point x="452" y="374" type="line"/>
      <point x="380" y="306" type="line"/>
      <point x="375" y="307"/>
      <point x="370" y="309"/>
      <point x="366" y="309" type="curve" smooth="yes"/>
      <point x="353" y="309"/>
      <point x="341" y="302"/>
      <point x="331" y="298" type="curve"/>
      <point x="295" y="282"/>
      <point x="186" y="234"/>
      <point x="102" y="195" type="curve"/>
      <point x="186" y="156"/>
      <point x="295" y="107"/>
      <point x="331" y="93" type="curve"/>
      <point x="355" y="83"/>
      <point x="361" y="81"/>
      <point x="365" y="81" type="curve" smooth="yes"/>
      <point x="371" y="81"/>
      <point x="376" y="84"/>
      <point x="380" y="84" type="curve"/>
      <point x="452" y="16" type="line"/>
      <point x="450" y="13" type="line" smooth="yes"/>
      <point x="448" y="6"/>
      <point x="440" y="2"/>
      <point x="429" y="2" type="curve" smooth="yes"/>
      <point x="399" y="2"/>
      <point x="338" y="26"/>
      <point x="237" y="67" type="curve" smooth="yes"/>
      <point x="153" y="101"/>
      <point x="160" y="97"/>
      <point x="77" y="132" type="curve"/>
      <point x="38" y="148" type="line"/>
      <point x="36" y="148"/>
      <point x="35" y="148"/>
      <point x="35" y="150" type="curve" smooth="yes"/>
      <point x="35" y="152"/>
      <point x="36" y="153"/>
      <point x="36" y="155" type="curve"/>
    </contour>
  </outline>
</glyph>
<glyph name="greater" format="1">
  <advance width="491"/>
  <unicode hex="003E"/>
  <outline>
    <contour>
      <point x="454" y="158" type="line"/>
      <point x="454" y="157"/>
      <point x="455" y="154"/>
      <point x="455" y="152" type="curve" smooth="yes"/>
      <point x="455" y="150"/>
      <point x="454" y="148"/>
      <point x="453" y="148" type="curve"/>
      <point x="430" y="138"/>
      <point x="426" y="137"/>
      <point x="414" y="132" type="curve" smooth="yes"/>
      <point x="331" y="97"/>
      <point x="338" y="101"/>
      <point x="254" y="67" type="curve" smooth="yes"/>
      <point x="153" y="26"/>
      <point x="93" y="2"/>
      <point x="62" y="2" type="curve" smooth="yes"/>
      <point x="51" y="2"/>
      <point x="43" y="6"/>
      <point x="41" y="13" type="curve" smooth="yes"/>
      <point x="39" y="16" type="line"/>
      <point x="112" y="84" type="line"/>
      <point x="116" y="84"/>
      <point x="121" y="81"/>
      <point x="126" y="81" type="curve" smooth="yes"/>
      <point x="130" y="81"/>
      <point x="136" y="83"/>
      <point x="160" y="93" type="curve" smooth="yes"/>
      <point x="196" y="107"/>
      <point x="304" y="156"/>
      <point x="389" y="195" type="curve"/>
      <point x="304" y="234"/>
      <point x="196" y="282"/>
      <point x="160" y="298" type="curve" smooth="yes"/>
      <point x="150" y="302"/>
      <point x="138" y="309"/>
      <point x="125" y="309" type="curve" smooth="yes"/>
      <point x="121" y="309"/>
      <point x="116" y="307"/>
      <point x="112" y="306" type="curve"/>
      <point x="39" y="374" type="line"/>
      <point x="41" y="377" type="line" smooth="yes"/>
      <point x="43" y="385"/>
      <point x="51" y="388"/>
      <point x="62" y="388" type="curve" smooth="yes"/>
      <point x="93" y="388"/>
      <point x="153" y="364"/>
      <point x="254" y="323" type="curve" smooth="yes"/>
      <point x="338" y="289"/>
      <point x="331" y="294"/>
      <point x="414" y="258" type="curve" smooth="yes"/>
      <point x="426" y="253"/>
      <point x="439" y="244"/>
      <point x="454" y="244" type="curve"/>
    </contour>
  </outline>
</glyph>
<glyph name="question" format="1">
  <advance width="386"/>
  <unicode hex="003F"/>
  <outline>
    <contour>
      <point x="89" y="180" type="line"/>
      <point x="84" y="200"/>
      <point x="89" y="259"/>
      <point x="71" y="317" type="curve"/>
      <point x="116" y="327" type="line"/>
      <point x="160" y="351"/>
      <point x="191" y="413"/>
      <point x="191" y="467" type="curve"/>
      <point x="191" y="474" type="line"/>
      <point x="191" y="509"/>
      <point x="189" y="616"/>
      <point x="138" y="616" type="curve" smooth="yes"/>
      <point x="131" y="616"/>
      <point x="125" y="614"/>
      <point x="117" y="611" type="curve" smooth="yes"/>
      <point x="105" y="605"/>
      <point x="93" y="578"/>
      <point x="93" y="544" type="curve"/>
      <point x="81" y="536"/>
      <point x="22" y="536"/>
      <point x="19" y="536" type="curve"/>
      <point x="16" y="550"/>
      <point x="15" y="562"/>
      <point x="15" y="572" type="curve" smooth="yes"/>
      <point x="15" y="657"/>
      <point x="57" y="659"/>
      <point x="117" y="659" type="curve" smooth="yes"/>
      <point x="179" y="659"/>
      <point x="286" y="573"/>
      <point x="286" y="495" type="curve" smooth="yes"/>
      <point x="286" y="425"/>
      <point x="194" y="329"/>
      <point x="128" y="297" type="curve"/>
      <point x="150" y="234"/>
      <point x="157" y="207"/>
      <point x="164" y="161" type="curve"/>
    </contour>
    <contour>
      <point x="125" y="116" type="curve" smooth="yes"/>
      <point x="166" y="116"/>
      <point x="176" y="81"/>
      <point x="176" y="57" type="curve" smooth="yes"/>
      <point x="176" y="26"/>
      <point x="153" y="-2"/>
      <point x="121" y="-2" type="curve" smooth="yes"/>
      <point x="88" y="-2"/>
      <point x="66" y="26"/>
      <point x="66" y="57" type="curve" smooth="yes"/>
      <point x="66" y="63"/>
      <point x="66" y="68"/>
      <point x="68" y="73" type="curve" smooth="yes"/>
      <point x="75" y="100"/>
      <point x="101" y="116"/>
    </contour>
  </outline>
</glyph>
<glyph name="at" format="1">
  <advance width="720"/>
  <unicode hex="0040"/>
  <outline>
    <contour>
      <point x="473" y="-58" type="curve"/>
      <point x="482" y="-62" type="line"/>
      <point x="476" y="-78"/>
      <point x="455" y="-98"/>
      <point x="450" y="-99" type="curve"/>
      <point x="426" y="-104"/>
      <point x="403" y="-107"/>
      <point x="382" y="-107" type="curve" smooth="yes"/>
      <point x="205" y="-107"/>
      <point x="87" y="42"/>
      <point x="87" y="173" type="curve" smooth="yes"/>
      <point x="87" y="211"/>
      <point x="94" y="246"/>
      <point x="106" y="272" type="curve" smooth="yes"/>
      <point x="180" y="442"/>
      <point x="369" y="500"/>
      <point x="460" y="500" type="curve"/>
      <point x="631" y="496"/>
      <point x="686" y="369"/>
      <point x="686" y="259" type="curve" smooth="yes"/>
      <point x="686" y="222"/>
      <point x="683" y="187"/>
      <point x="672" y="160" type="curve"/>
      <point x="638" y="82"/>
      <point x="569" y="27"/>
      <point x="494" y="-10" type="curve"/>
      <point x="471" y="9" type="line"/>
      <point x="453" y="21"/>
      <point x="437" y="38"/>
      <point x="431" y="57" type="curve"/>
      <point x="402" y="25"/>
      <point x="371" y="-4"/>
      <point x="358" y="-4" type="curve" smooth="yes"/>
      <point x="292" y="-4"/>
      <point x="262" y="84"/>
      <point x="262" y="150" type="curve" smooth="yes"/>
      <point x="262" y="168"/>
      <point x="263" y="184"/>
      <point x="268" y="197" type="curve"/>
      <point x="277" y="227"/>
      <point x="358" y="329"/>
      <point x="392" y="329" type="curve" smooth="yes"/>
      <point x="394" y="329"/>
      <point x="394" y="329"/>
      <point x="396" y="328" type="curve"/>
      <point x="427" y="319"/>
      <point x="482" y="273"/>
      <point x="490" y="244" type="curve"/>
      <point x="492" y="241"/>
      <point x="492" y="236"/>
      <point x="492" y="230" type="curve" smooth="yes"/>
      <point x="492" y="213"/>
      <point x="489" y="190"/>
      <point x="488" y="174" type="curve" smooth="yes"/>
      <point x="488" y="167"/>
      <point x="487" y="162"/>
      <point x="487" y="156" type="curve" smooth="yes"/>
      <point x="487" y="63"/>
      <point x="535" y="57"/>
      <point x="554" y="48" type="curve"/>
      <point x="590" y="78"/>
      <point x="619" y="132"/>
      <point x="619" y="230" type="curve"/>
      <point x="619" y="234" type="line"/>
      <point x="617" y="389"/>
      <point x="502" y="429"/>
      <point x="405" y="429" type="curve" smooth="yes"/>
      <point x="399" y="429"/>
      <point x="393" y="428"/>
      <point x="387" y="428" type="curve" smooth="yes"/>
      <point x="328" y="426"/>
      <point x="173" y="415"/>
      <point x="159" y="235" type="curve" smooth="yes"/>
      <point x="158" y="227"/>
      <point x="158" y="221"/>
      <point x="158" y="213" type="curve" smooth="yes"/>
      <point x="158" y="39"/>
      <point x="320" y="-75"/>
      <point x="430" y="-75" type="curve" smooth="yes"/>
      <point x="447" y="-75"/>
      <point x="467" y="-74"/>
    </contour>
    <contour>
      <point x="422" y="72" type="curve"/>
      <point x="429" y="89"/>
      <point x="432" y="110"/>
      <point x="432" y="132" type="curve" smooth="yes"/>
      <point x="432" y="189"/>
      <point x="409" y="253"/>
      <point x="366" y="253" type="curve" smooth="yes"/>
      <point x="356" y="253"/>
      <point x="345" y="250"/>
      <point x="334" y="244" type="curve"/>
      <point x="323" y="225"/>
      <point x="318" y="204"/>
      <point x="318" y="183" type="curve" smooth="yes"/>
      <point x="318" y="125"/>
      <point x="353" y="66"/>
      <point x="397" y="66" type="curve" smooth="yes"/>
      <point x="405" y="66"/>
      <point x="413" y="68"/>
    </contour>
  </outline>
</glyph>
<glyph name="A" format="1">
  <advance width="519"/>
  <unicode hex="0041"/>
  <outline>
    <contour>
      <point x="440" y="0" type="line"/>
      <point x="436" y="16"/>
      <point x="416" y="77"/>
      <point x="387" y="157" type="curve"/>
      <point x="154" y="157" type="line"/>
      <point x="154" y="156"/>
      <point x="153" y="155"/>
      <point x="153" y="154" type="curve"/>
      <point x="99" y="-5" type="line"/>
      <point x="31" y="0" type="line"/>
      <point x="75" y="108"/>
      <point x="182" y="413"/>
      <point x="233" y="558" type="curve"/>
      <point x="229" y="563"/>
      <point x="224" y="565"/>
      <point x="221" y="566" type="curve"/>
      <point x="261" y="655" type="line"/>
      <point x="262" y="655"/>
      <point x="263" y="656"/>
      <point x="264" y="656" type="curve" smooth="yes"/>
      <point x="298" y="656"/>
      <point x="365" y="476"/>
      <point x="432" y="293" type="curve"/>
      <point x="442" y="266" type="line"/>
      <point x="475" y="177"/>
      <point x="510" y="73"/>
      <point x="538" y="3" type="curve"/>
    </contour>
    <contour>
      <point x="171" y="207" type="curve"/>
      <point x="370" y="207" type="line"/>
      <point x="284" y="457" type="line" smooth="yes"/>
      <point x="280" y="469"/>
      <point x="273" y="484"/>
      <point x="266" y="499" type="curve"/>
      <point x="239" y="410"/>
      <point x="204" y="306"/>
    </contour>
    <contour>
      <point x="247" y="563" type="move" name="top"/>
    </contour>
    <contour>
      <point x="481" y="11" type="move" name="bottom"/>
    </contour>
  </outline>
</glyph>
<glyph name="C" format="1">
  <advance width="500"/>
  <unicode hex="0043"/>
  <outline>
    <contour>
      <point x="290" y="658" type="line"/>
      <point x="368" y="635"/>
      <point x="474" y="520"/>
      <point x="474" y="503" type="curve" smooth="yes"/>
      <point x="469" y="494"/>
      <point x="449" y="459"/>
      <point x="418" y="436" type="curve"/>
      <point x="388" y="483"/>
      <point x="306" y="551"/>
      <point x="243" y="551" type="curve" smooth="yes"/>
      <point x="154" y="551"/>
      <point x="148" y="414"/>
      <point x="148" y="348" type="curve" smooth="yes"/>
      <point x="148" y="145"/>
      <point x="215" y="80"/>
      <point x="293" y="80" type="curve" smooth="yes"/>
      <point x="356" y="80"/>
      <point x="422" y="91"/>
      <point x="466" y="125" type="curve"/>
      <point x="490" y="83" type="line"/>
      <point x="430" y="35"/>
      <point x="267" y="-1"/>
      <point x="231" y="-3" type="curve"/>
      <point x="108" y="5"/>
      <point x="59" y="151"/>
      <point x="59" y="277" type="curve" smooth="yes"/>
      <point x="59" y="320"/>
      <point x="64" y="361"/>
      <point x="72" y="392" type="curve" smooth="yes"/>
      <point x="89" y="454"/>
      <point x="220" y="658"/>
      <point x="286" y="658" type="curve"/>
    </contour>
    <contour>
      <point x="282" y="602" type="move" name="top"/>
    </contour>
    <contour>
      <point x="260" y="11" type="move" name="bottom"/>
    </contour>
  </outline>
</glyph>
<glyph name="D" format="1">
  <advance width="563"/>
  <unicode hex="0044"/>
  <outline>
    <contour>
      <point x="32" y="649" type="line"/>
      <point x="190" y="649"/>
      <point x="252" y="650"/>
      <point x="280" y="650" type="curve"/>
      <point x="317" y="650" type="line"/>
      <point x="486" y="650"/>
      <point x="544" y="549"/>
      <point x="547" y="387" type="curve"/>
      <point x="547" y="383" type="line"/>
      <point x="545" y="197"/>
      <point x="450" y="42"/>
      <point x="340" y="5" type="curve"/>
      <point x="330" y="2"/>
      <point x="310" y="1"/>
      <point x="276" y="1" type="curve"/>
      <point x="185" y="1" type="line"/>
      <point x="154" y="1"/>
      <point x="107" y="0"/>
      <point x="61" y="0" type="curve"/>
      <point x="67" y="119"/>
      <point x="72" y="419"/>
      <point x="72" y="462" type="curve" smooth="yes"/>
      <point x="72" y="502"/>
      <point x="72" y="546"/>
      <point x="61" y="563" type="curve"/>
      <point x="77" y="584" type="line"/>
      <point x="72" y="584"/>
      <point x="63" y="582"/>
      <point x="60" y="582" type="curve"/>
    </contour>
    <contour>
      <point x="159" y="376" type="curve"/>
      <point x="159" y="256" type="line" smooth="yes"/>
      <point x="159" y="221"/>
      <point x="158" y="186"/>
      <point x="158" y="151" type="curve" smooth="yes"/>
      <point x="158" y="115"/>
      <point x="158" y="90"/>
      <point x="159" y="56" type="curve"/>
      <point x="259" y="47"/>
      <point x="281" y="47"/>
      <point x="287" y="47" type="curve" smooth="yes"/>
      <point x="425" y="47"/>
      <point x="451" y="191"/>
      <point x="451" y="310" type="curve" smooth="yes"/>
      <point x="451" y="540"/>
      <point x="372" y="599"/>
      <point x="234" y="599" type="curve" smooth="yes"/>
      <point x="213" y="599"/>
      <point x="175" y="598"/>
      <point x="151" y="595" type="curve"/>
      <point x="157" y="546"/>
      <point x="159" y="462"/>
    </contour>
    <contour>
      <point x="264" y="594" type="move" name="top"/>
    </contour>
  </outline>
</glyph>
<glyph name="F" format="1">
  <advance width="356"/>
  <unicode hex="0046"/>
  <outline>
    <contour>
      <point x="31" y="649" type="line"/>
      <point x="62" y="648"/>
      <point x="95" y="648"/>
      <point x="123" y="648" type="curve"/>
      <point x="284" y="648" type="line" smooth="yes"/>
      <point x="367" y="648"/>
      <point x="407" y="645"/>
      <point x="407" y="620" type="curve"/>
      <point x="350" y="580" type="line"/>
      <point x="326" y="593"/>
      <point x="285" y="593"/>
      <point x="254" y="593" type="curve" smooth="yes"/>
      <point x="244" y="593" type="line" smooth="yes"/>
      <point x="221" y="593"/>
      <point x="184" y="591"/>
      <point x="150" y="590" type="curve"/>
      <point x="157" y="539"/>
      <point x="158" y="461"/>
      <point x="158" y="374" type="curve" smooth="yes"/>
      <point x="158" y="357" type="line"/>
      <point x="179" y="354"/>
      <point x="203" y="353"/>
      <point x="228" y="353" type="curve" smooth="yes"/>
      <point x="238" y="353" type="line" smooth="yes"/>
      <point x="268" y="353"/>
      <point x="310" y="353"/>
      <point x="333" y="366" type="curve"/>
      <point x="395" y="326" type="line"/>
      <point x="395" y="303"/>
      <point x="373" y="299"/>
      <point x="303" y="299" type="curve" smooth="yes"/>
      <point x="158" y="299" type="line"/>
      <point x="158" y="250" type="line" smooth="yes"/>
      <point x="158" y="214"/>
      <point x="157" y="179"/>
      <point x="157" y="143" type="curve" smooth="yes"/>
      <point x="157" y="94"/>
      <point x="158" y="43"/>
      <point x="159" y="2" type="curve"/>
      <point x="60" y="2" type="line"/>
      <point x="65" y="35"/>
      <point x="72" y="412"/>
      <point x="72" y="462" type="curve" smooth="yes"/>
      <point x="72" y="503"/>
      <point x="71" y="545"/>
      <point x="61" y="563" type="curve"/>
      <point x="77" y="584" type="line"/>
      <point x="71" y="583"/>
      <point x="64" y="583"/>
      <point x="60" y="582" type="curve"/>
    </contour>
  </outline>
</glyph>
<glyph name="G" format="1">
  <advance width="527"/>
  <unicode hex="0047"/>
  <outline>
    <contour>
      <point x="370" y="0" type="line"/>
      <point x="370" y="43" type="line"/>
      <point x="317" y="18"/>
      <point x="254" y="-2"/>
      <point x="231" y="-3" type="curve"/>
      <point x="108" y="5"/>
      <point x="59" y="151"/>
      <point x="59" y="276" type="curve" smooth="yes"/>
      <point x="59" y="319"/>
      <point x="64" y="359"/>
      <point x="72" y="390" type="curve" smooth="yes"/>
      <point x="89" y="452"/>
      <point x="221" y="657"/>
      <point x="287" y="657" type="curve"/>
      <point x="290" y="657" type="line"/>
      <point x="365" y="635"/>
      <point x="474" y="515"/>
      <point x="474" y="502" type="curve" smooth="yes"/>
      <point x="474" y="502"/>
      <point x="452" y="459"/>
      <point x="418" y="433" type="curve"/>
      <point x="388" y="481"/>
      <point x="307" y="549"/>
      <point x="244" y="549" type="curve" smooth="yes"/>
      <point x="154" y="549"/>
      <point x="148" y="400"/>
      <point x="148" y="344" type="curve" smooth="yes"/>
      <point x="148" y="130"/>
      <point x="222" y="80"/>
      <point x="292" y="80" type="curve" smooth="yes"/>
      <point x="315" y="80"/>
      <point x="348" y="86"/>
      <point x="370" y="94" type="curve"/>
      <point x="370" y="185" type="line"/>
      <point x="313" y="185" type="line"/>
      <point x="323" y="236" type="line"/>
      <point x="502" y="236" type="line"/>
      <point x="492" y="185" type="line"/>
      <point x="454" y="185" type="line"/>
      <point x="454" y="174"/>
      <point x="455" y="160"/>
      <point x="455" y="140" type="curve" smooth="yes"/>
      <point x="455" y="108"/>
      <point x="455" y="61"/>
      <point x="457" y="-2" type="curve"/>
    </contour>
    <contour>
      <point x="285" y="587" type="move" name="top"/>
    </contour>
    <contour>
      <point x="256" y="11" type="move" name="bottom"/>
    </contour>
  </outline>
</glyph>
<glyph name="I" format="1">
  <advance width="223"/>
  <unicode hex="0049"/>
  <outline>
    <contour>
      <point x="61" y="0" type="line"/>
      <point x="66" y="35"/>
      <point x="71" y="412"/>
      <point x="71" y="462" type="curve" smooth="yes"/>
      <point x="71" y="503"/>
      <point x="71" y="549"/>
      <point x="61" y="567" type="curve"/>
      <point x="123" y="649" type="line"/>
      <point x="153" y="649"/>
      <point x="157" y="526"/>
      <point x="157" y="374" type="curve"/>
      <point x="157" y="250" type="line"/>
      <point x="157" y="214"/>
      <point x="157" y="179"/>
      <point x="157" y="143" type="curve" smooth="yes"/>
      <point x="157" y="94"/>
      <point x="157" y="43"/>
      <point x="158" y="2" type="curve"/>
    </contour>
    <contour>
      <point x="116" y="580" type="move" name="top"/>
    </contour>
    <contour>
      <point x="111" y="11" type="move" name="bottom"/>
    </contour>
  </outline>
</glyph>
<glyph name="K" format="1">
  <advance width="559"/>
  <unicode hex="004B"/>
  <outline>
    <contour>
      <point x="61" y="0" type="line"/>
      <point x="66" y="35"/>
      <point x="72" y="412"/>
      <point x="72" y="462" type="curve" smooth="yes"/>
      <point x="72" y="503"/>
      <point x="72" y="557"/>
      <point x="62" y="575" type="curve"/>
      <point x="124" y="657" type="line"/>
      <point x="155" y="657"/>
      <point x="159" y="526"/>
      <point x="159" y="374" type="curve" smooth="yes"/>
      <point x="159" y="335" type="line"/>
      <point x="253" y="438"/>
      <point x="375" y="580"/>
      <point x="421" y="580" type="curve" smooth="yes"/>
      <point x="425" y="580"/>
      <point x="427" y="580"/>
      <point x="430" y="578" type="curve"/>
      <point x="437" y="497" type="line"/>
      <point x="423" y="492"/>
      <point x="351" y="422"/>
      <point x="295" y="366" type="curve"/>
      <point x="341" y="305"/>
      <point x="386" y="247"/>
      <point x="425" y="198" type="curve"/>
      <point x="495" y="112"/>
      <point x="548" y="47"/>
      <point x="548" y="15" type="curve" smooth="yes"/>
      <point x="548" y="8"/>
      <point x="546" y="3"/>
      <point x="541" y="-1" type="curve"/>
      <point x="462" y="-1" type="line"/>
      <point x="459" y="23"/>
      <point x="413" y="84"/>
      <point x="389" y="115" type="curve" smooth="yes"/>
      <point x="364" y="148"/>
      <point x="283" y="255"/>
      <point x="239" y="307" type="curve"/>
      <point x="159" y="212" type="line"/>
      <point x="158" y="189"/>
      <point x="158" y="166"/>
      <point x="158" y="143" type="curve" smooth="yes"/>
      <point x="158" y="94"/>
      <point x="159" y="43"/>
      <point x="160" y="2" type="curve"/>
    </contour>
    <contour>
      <point x="251" y="4" type="move" name="bottom"/>
    </contour>
  </outline>
</glyph>
<glyph name="M" format="1">
  <advance width="622"/>
  <unicode hex="004D"/>
  <outline>
    <contour>
      <point x="472" y="0" type="line"/>
      <point x="475" y="28"/>
      <point x="480" y="312"/>
      <point x="481" y="422" type="curve"/>
      <point x="366" y="126" type="line"/>
      <point x="366" y="126"/>
      <point x="366" y="125"/>
      <point x="319" y="-5" type="curve"/>
      <point x="310" y="23"/>
      <point x="204" y="262"/>
      <point x="143" y="406" type="curve"/>
      <point x="143" y="121" type="line" smooth="yes"/>
      <point x="143" y="80"/>
      <point x="143" y="37"/>
      <point x="144" y="2" type="curve"/>
      <point x="79" y="2" type="line"/>
      <point x="84" y="35"/>
      <point x="89" y="412"/>
      <point x="89" y="462" type="curve" smooth="yes"/>
      <point x="89" y="503"/>
      <point x="89" y="549"/>
      <point x="78" y="567" type="curve"/>
      <point x="95" y="616"/>
      <point x="102" y="631"/>
      <point x="115" y="666" type="curve"/>
      <point x="115" y="667"/>
      <point x="117" y="665"/>
      <point x="118" y="663" type="curve" smooth="yes"/>
      <point x="158" y="604"/>
      <point x="265" y="334"/>
      <point x="330" y="200" type="curve"/>
      <point x="374" y="306"/>
      <point x="432" y="450"/>
      <point x="444" y="482" type="curve"/>
      <point x="450" y="494"/>
      <point x="461" y="522"/>
      <point x="471" y="549" type="curve"/>
      <point x="474" y="558" type="line"/>
      <point x="471" y="567" type="line"/>
      <point x="532" y="649" type="line"/>
      <point x="563" y="649"/>
      <point x="567" y="522"/>
      <point x="567" y="369" type="curve" smooth="yes"/>
      <point x="567" y="121" type="line" smooth="yes"/>
      <point x="567" y="80"/>
      <point x="567" y="37"/>
      <point x="568" y="2" type="curve"/>
    </contour>
  </outline>
</glyph>
<glyph name="O" format="1">
  <advance width="581"/>
  <unicode hex="004F"/>
  <outline>
    <contour>
      <point x="52" y="392" type="curve" smooth="yes"/>
      <point x="108" y="589"/>
      <point x="273" y="657"/>
      <point x="359" y="657" type="curve"/>
      <point x="487" y="657"/>
      <point x="531" y="503"/>
      <point x="531" y="376" type="curve" smooth="yes"/>
      <point x="531" y="334"/>
      <point x="526" y="293"/>
      <point x="517" y="261" type="curve"/>
      <point x="464" y="73"/>
      <point x="298" y="-3"/>
      <point x="212" y="-3" type="curve"/>
      <point x="84" y="-3"/>
      <point x="38" y="149"/>
      <point x="38" y="276" type="curve" smooth="yes"/>
      <point x="38" y="320"/>
      <point x="43" y="361"/>
    </contour>
    <contour>
      <point x="244" y="576" type="curve"/>
      <point x="201" y="574"/>
      <point x="125" y="552"/>
      <point x="125" y="348" type="curve"/>
      <point x="125" y="330" type="line"/>
      <point x="125" y="161"/>
      <point x="223" y="75"/>
      <point x="301" y="75" type="curve" smooth="yes"/>
      <point x="394" y="75"/>
      <point x="438" y="109"/>
      <point x="444" y="335" type="curve"/>
      <point x="444" y="345" type="line"/>
      <point x="442" y="549"/>
      <point x="325" y="577"/>
      <point x="262" y="577" type="curve" smooth="yes"/>
      <point x="255" y="577"/>
      <point x="249" y="577"/>
    </contour>
    <contour>
      <point x="316" y="609" type="move" name="top"/>
    </contour>
  </outline>
</glyph>
<glyph name="P" format="1">
  <advance width="366"/>
  <unicode hex="0050"/>
  <outline>
    <contour>
      <point x="32" y="649" type="line"/>
      <point x="335" y="649" type="line"/>
      <point x="447" y="640"/>
      <point x="481" y="562"/>
      <point x="481" y="496" type="curve" smooth="yes"/>
      <point x="481" y="374"/>
      <point x="351" y="282"/>
      <point x="282" y="282" type="curve" smooth="yes"/>
      <point x="158" y="282" type="line"/>
      <point x="158" y="256" type="line" smooth="yes"/>
      <point x="158" y="221"/>
      <point x="157" y="186"/>
      <point x="157" y="151" type="curve" smooth="yes"/>
      <point x="157" y="102"/>
      <point x="158" y="44"/>
      <point x="159" y="2" type="curve"/>
      <point x="61" y="2" type="line"/>
      <point x="64" y="21"/>
      <point x="68" y="175"/>
      <point x="71" y="298" type="curve"/>
      <point x="71" y="364"/>
      <point x="72" y="445"/>
      <point x="72" y="462" type="curve" smooth="yes"/>
      <point x="72" y="502"/>
      <point x="72" y="546"/>
      <point x="61" y="563" type="curve"/>
      <point x="77" y="584" type="line"/>
      <point x="60" y="582" type="line"/>
    </contour>
    <contour>
      <point x="158" y="376" type="curve"/>
      <point x="158" y="330" type="line"/>
      <point x="193" y="326"/>
      <point x="223" y="324"/>
      <point x="248" y="324" type="curve" smooth="yes"/>
      <point x="363" y="324"/>
      <point x="392" y="365"/>
      <point x="394" y="453" type="curve"/>
      <point x="394" y="459" type="line"/>
      <point x="394" y="553"/>
      <point x="343" y="599"/>
      <point x="255" y="599" type="curve"/>
      <point x="210" y="599"/>
      <point x="158" y="594"/>
      <point x="149" y="594" type="curve"/>
      <point x="157" y="544"/>
      <point x="158" y="466"/>
    </contour>
  </outline>
</glyph>
<glyph name="Q" format="1">
  <advance width="666"/>
  <unicode hex="0051"/>
  <outline>
    <contour>
      <point x="163" y="392" type="curve" smooth="yes"/>
      <point x="221" y="589"/>
      <point x="385" y="657"/>
      <point x="471" y="657" type="curve"/>
      <point x="599" y="657"/>
      <point x="643" y="503"/>
      <point x="643" y="375" type="curve" smooth="yes"/>
      <point x="643" y="332"/>
      <point x="639" y="292"/>
      <point x="631" y="261" type="curve" smooth="yes"/>
      <point x="593" y="112"/>
      <point x="491" y="39"/>
      <point x="404" y="11" type="curve"/>
      <point x="410" y="-99"/>
      <point x="471" y="-138"/>
      <point x="542" y="-138" type="curve" smooth="yes"/>
      <point x="595" y="-138"/>
      <point x="658" y="-116"/>
      <point x="711" y="-84" type="curve"/>
      <point x="721" y="-126" type="line"/>
      <point x="666" y="-168"/>
      <point x="538" y="-182"/>
      <point x="470" y="-182" type="curve" smooth="yes"/>
      <point x="449" y="-182"/>
      <point x="433" y="-180"/>
      <point x="428" y="-179" type="curve" smooth="yes"/>
      <point x="344" y="-154"/>
      <point x="303" y="-85"/>
      <point x="298" y="0" type="curve"/>
      <point x="190" y="22"/>
      <point x="148" y="158"/>
      <point x="148" y="277" type="curve" smooth="yes"/>
      <point x="148" y="320"/>
      <point x="154" y="361"/>
    </contour>
    <contour>
      <point x="356" y="576" type="curve"/>
      <point x="312" y="574"/>
      <point x="237" y="552"/>
      <point x="237" y="348" type="curve"/>
      <point x="237" y="330" type="line"/>
      <point x="237" y="161"/>
      <point x="335" y="75"/>
      <point x="412" y="75" type="curve" smooth="yes"/>
      <point x="504" y="75"/>
      <point x="549" y="109"/>
      <point x="555" y="335" type="curve"/>
      <point x="555" y="345" type="line"/>
      <point x="553" y="549"/>
      <point x="437" y="577"/>
      <point x="374" y="577" type="curve" smooth="yes"/>
      <point x="367" y="577"/>
      <point x="362" y="577"/>
    </contour>
  </outline>
</glyph>
<glyph name="S" format="1">
  <advance width="609"/>
  <unicode hex="0053"/>
  <outline>
    <contour>
      <point x="126" y="252" type="curve"/>
      <point x="173" y="237" type="line"/>
      <point x="169" y="221"/>
      <point x="167" y="207"/>
      <point x="167" y="194" type="curve" smooth="yes"/>
      <point x="167" y="95"/>
      <point x="266" y="87"/>
      <point x="321" y="87" type="curve"/>
      <point x="431" y="91"/>
      <point x="453" y="171"/>
      <point x="453" y="186" type="curve" smooth="yes"/>
      <point x="453" y="189" type="line"/>
      <point x="403" y="290"/>
      <point x="121" y="353"/>
      <point x="121" y="412" type="curve" smooth="yes"/>
      <point x="121" y="414"/>
      <point x="121" y="416"/>
      <point x="121" y="417" type="curve" smooth="yes"/>
      <point x="139" y="481"/>
      <point x="272" y="658"/>
      <point x="339" y="658" type="curve" smooth="yes"/>
      <point x="344" y="658" type="line"/>
      <point x="410" y="649"/>
      <point x="517" y="594"/>
      <point x="517" y="587" type="curve" smooth="yes"/>
      <point x="517" y="576"/>
      <point x="517" y="563"/>
      <point x="517" y="547" type="curve" smooth="yes"/>
      <point x="517" y="511"/>
      <point x="508" y="461"/>
      <point x="486" y="414" type="curve"/>
      <point x="447" y="428" type="line"/>
      <point x="452" y="440"/>
      <point x="453" y="451"/>
      <point x="453" y="462" type="curve"/>
      <point x="453" y="518"/>
      <point x="371" y="575"/>
      <point x="331" y="577" type="curve" smooth="yes"/>
      <point x="326" y="577" type="line" smooth="yes"/>
      <point x="287" y="577"/>
      <point x="230" y="525"/>
      <point x="217" y="470" type="curve"/>
      <point x="217" y="470"/>
      <point x="576" y="292"/>
      <point x="576" y="226" type="curve" smooth="yes"/>
      <point x="576" y="222" type="line"/>
      <point x="561" y="162"/>
      <point x="389" y="-6"/>
      <point x="307" y="-6" type="curve" smooth="yes"/>
      <point x="303" y="-6"/>
      <point x="301" y="-6"/>
      <point x="298" y="-5" type="curve"/>
      <point x="225" y="2"/>
      <point x="93" y="66"/>
      <point x="86" y="75" type="curve"/>
      <point x="86" y="81"/>
      <point x="85" y="88"/>
      <point x="85" y="94" type="curve" smooth="yes"/>
      <point x="85" y="155"/>
      <point x="99" y="206"/>
    </contour>
    <contour>
      <point x="359" y="599" type="move" name="top"/>
    </contour>
    <contour>
      <point x="303" y="17" type="move" name="bottom"/>
    </contour>
  </outline>
</glyph>
<glyph name="U" format="1">
  <advance width="484"/>
  <unicode hex="0055"/>
  <outline>
    <contour>
      <point x="453" y="649" type="line"/>
      <point x="448" y="591"/>
      <point x="449" y="404"/>
      <point x="449" y="317" type="curve" smooth="yes"/>
      <point x="449" y="246"/>
      <point x="451" y="30"/>
      <point x="463" y="-2" type="curve"/>
      <point x="389" y="-2" type="line" smooth="yes"/>
      <point x="370" y="-2"/>
      <point x="363" y="43"/>
      <point x="361" y="118" type="curve"/>
      <point x="321" y="60"/>
      <point x="275" y="-2"/>
      <point x="244" y="-2" type="curve" smooth="yes"/>
      <point x="189" y="-2"/>
      <point x="84" y="98"/>
      <point x="84" y="125" type="curve"/>
      <point x="70" y="140"/>
      <point x="68" y="232"/>
      <point x="68" y="320" type="curve"/>
      <point x="68" y="418" type="line"/>
      <point x="68" y="482"/>
      <point x="68" y="607"/>
      <point x="66" y="626" type="curve"/>
      <point x="167" y="635" type="line"/>
      <point x="161" y="583"/>
      <point x="159" y="451"/>
      <point x="159" y="395" type="curve"/>
      <point x="159" y="328" type="line"/>
      <point x="159" y="212"/>
      <point x="168" y="104"/>
      <point x="292" y="97" type="curve"/>
      <point x="314" y="97"/>
      <point x="339" y="131"/>
      <point x="360" y="162" type="curve"/>
      <point x="360" y="201" type="line"/>
      <point x="360" y="253"/>
      <point x="361" y="329"/>
      <point x="361" y="421" type="curve" smooth="yes"/>
      <point x="361" y="483"/>
      <point x="361" y="552"/>
      <point x="359" y="626" type="curve"/>
    </contour>
    <contour>
      <point x="259" y="604" type="move" name="top"/>
    </contour>
    <contour>
      <point x="426" y="11" type="move" name="bottom"/>
    </contour>
  </outline>
</glyph>
<glyph name="V" format="1">
  <advance width="498"/>
  <unicode hex="0056"/>
  <outline>
    <contour>
      <point x="262" y="-1" type="line"/>
      <point x="253" y="54"/>
      <point x="189" y="277"/>
      <point x="162" y="355" type="curve" smooth="yes"/>
      <point x="138" y="421"/>
      <point x="86" y="549"/>
      <point x="61" y="569" type="curve"/>
      <point x="116" y="655" type="line"/>
      <point x="118" y="657"/>
      <point x="121" y="658"/>
      <point x="123" y="658" type="curve" smooth="yes"/>
      <point x="159" y="658"/>
      <point x="199" y="495"/>
      <point x="297" y="210" type="curve"/>
      <point x="354" y="353"/>
      <point x="396" y="499"/>
      <point x="422" y="653" type="curve"/>
      <point x="476" y="657" type="line"/>
      <point x="485" y="653"/>
      <point x="490" y="645"/>
      <point x="490" y="630" type="curve"/>
      <point x="490" y="626" type="line"/>
      <point x="488" y="573"/>
      <point x="430" y="420"/>
      <point x="330" y="114" type="curve"/>
      <point x="332" y="107"/>
      <point x="333" y="103"/>
      <point x="336" y="96" type="curve"/>
    </contour>
  </outline>
</glyph>
<glyph name="W" format="1">
  <advance width="667"/>
  <unicode hex="0057"/>
  <outline>
    <contour>
      <point x="503" y="-1" type="line"/>
      <point x="494" y="54"/>
      <point x="435" y="261"/>
      <point x="408" y="339" type="curve" smooth="yes"/>
      <point x="406" y="344" type="line"/>
      <point x="386" y="277"/>
      <point x="356" y="198"/>
      <point x="330" y="119" type="curve"/>
      <point x="333" y="112"/>
      <point x="335" y="103"/>
      <point x="339" y="96" type="curve"/>
      <point x="265" y="-1" type="line"/>
      <point x="254" y="54"/>
      <point x="189" y="277"/>
      <point x="162" y="355" type="curve" smooth="yes"/>
      <point x="139" y="421"/>
      <point x="86" y="549"/>
      <point x="61" y="569" type="curve"/>
      <point x="116" y="655" type="line"/>
      <point x="119" y="657"/>
      <point x="121" y="657"/>
      <point x="124" y="657" type="curve" smooth="yes"/>
      <point x="160" y="657"/>
      <point x="200" y="499"/>
      <point x="298" y="212" type="curve"/>
      <point x="322" y="276"/>
      <point x="348" y="343"/>
      <point x="372" y="430" type="curve"/>
      <point x="349" y="485"/>
      <point x="316" y="556"/>
      <point x="301" y="569" type="curve"/>
      <point x="355" y="655" type="line"/>
      <point x="357" y="656"/>
      <point x="359" y="657"/>
      <point x="361" y="657" type="curve" smooth="yes"/>
      <point x="397" y="657"/>
      <point x="447" y="471"/>
      <point x="534" y="215" type="curve"/>
      <point x="549" y="262"/>
      <point x="580" y="368"/>
      <point x="590" y="408" type="curve"/>
      <point x="609" y="468"/>
      <point x="640" y="590"/>
      <point x="640" y="638" type="curve" smooth="yes"/>
      <point x="640" y="643"/>
      <point x="640" y="646"/>
      <point x="640" y="649" type="curve"/>
      <point x="694" y="658" type="line"/>
      <point x="702" y="654"/>
      <point x="706" y="645"/>
      <point x="706" y="628" type="curve" smooth="yes"/>
      <point x="706" y="563"/>
      <point x="649" y="400"/>
      <point x="571" y="117" type="curve"/>
      <point x="578" y="96" type="line"/>
    </contour>
    <contour>
      <point x="372" y="604" type="move" name="top"/>
    </contour>
  </outline>
</glyph>
<glyph name="X" format="1">
  <advance width="481"/>
  <unicode hex="0058"/>
  <outline>
    <contour>
      <point x="373" y="6" type="line"/>
      <point x="361" y="61"/>
      <point x="292" y="190"/>
      <point x="258" y="271" type="curve"/>
      <point x="228" y="220" type="line" smooth="yes"/>
      <point x="194" y="160"/>
      <point x="123" y="34"/>
      <point x="122" y="0" type="curve"/>
      <point x="54" y="0" type="line"/>
      <point x="46" y="7"/>
      <point x="42" y="13"/>
      <point x="42" y="23" type="curve" smooth="yes"/>
      <point x="42" y="58"/>
      <point x="98" y="130"/>
      <point x="225" y="343" type="curve"/>
      <point x="187" y="419"/>
      <point x="130" y="519"/>
      <point x="110" y="534" type="curve"/>
      <point x="131" y="668" type="line"/>
      <point x="133" y="669"/>
      <point x="135" y="670"/>
      <point x="138" y="670" type="curve" smooth="yes"/>
      <point x="170" y="670"/>
      <point x="227" y="571"/>
      <point x="300" y="413" type="curve"/>
      <point x="303" y="419"/>
      <point x="307" y="425"/>
      <point x="311" y="432" type="curve" smooth="yes"/>
      <point x="346" y="491"/>
      <point x="416" y="618"/>
      <point x="416" y="652" type="curve"/>
      <point x="485" y="652" type="line"/>
      <point x="494" y="644"/>
      <point x="499" y="636"/>
      <point x="499" y="626" type="curve" smooth="yes"/>
      <point x="499" y="595"/>
      <point x="455" y="535"/>
      <point x="336" y="334" type="curve"/>
      <point x="379" y="238"/>
      <point x="426" y="125"/>
      <point x="476" y="6" type="curve"/>
    </contour>
  </outline>
</glyph>
<glyph name="backslash" format="1">
  <advance width="394"/>
  <unicode hex="005C"/>
  <outline>
    <contour>
      <point x="369" y="-2" type="line"/>
      <point x="270" y="197" type="line"/>
      <point x="254" y="228"/>
      <point x="236" y="259"/>
      <point x="220" y="292" type="curve" smooth="yes"/>
      <point x="163" y="404" type="line" smooth="yes"/>
      <point x="117" y="497"/>
      <point x="78" y="579"/>
      <point x="67" y="625" type="curve"/>
      <point x="65" y="633"/>
      <point x="64" y="640"/>
      <point x="64" y="645" type="curve" smooth="yes"/>
      <point x="64" y="654"/>
      <point x="66" y="660"/>
      <point x="72" y="662" type="curve"/>
      <point x="153" y="602" type="line"/>
      <point x="153" y="599"/>
      <point x="153" y="594"/>
      <point x="155" y="589" type="curve" smooth="yes"/>
      <point x="159" y="569"/>
      <point x="175" y="538"/>
      <point x="189" y="510" type="curve"/>
      <point x="198" y="490" type="line"/>
      <point x="244" y="401"/>
      <point x="439" y="18"/>
      <point x="458" y="-9" type="curve"/>
    </contour>
  </outline>
</glyph>
<glyph name="bracketright" format="1">
  <advance width="230"/>
  <unicode hex="005D"/>
  <outline>
    <contour>
      <point x="163" y="634" type="line"/>
      <point x="166" y="633" type="line"/>
      <point x="156" y="614"/>
      <point x="153" y="521"/>
      <point x="153" y="481" type="curve" smooth="yes"/>
      <point x="153" y="434"/>
      <point x="159" y="-48"/>
      <point x="164" y="-149" type="curve"/>
      <point x="185" y="-179" type="line"/>
      <point x="70" y="-179" type="line"/>
      <point x="-13" y="-179"/>
      <point x="-53" y="-175"/>
      <point x="-53" y="-151" type="curve"/>
      <point x="-11" y="-122" type="line"/>
      <point x="12" y="-135"/>
      <point x="52" y="-135"/>
      <point x="84" y="-135" type="curve"/>
      <point x="84" y="-79" type="line"/>
      <point x="84" y="41"/>
      <point x="82" y="197"/>
      <point x="82" y="335" type="curve" smooth="yes"/>
      <point x="82" y="456"/>
      <point x="84" y="563"/>
      <point x="89" y="621" type="curve"/>
      <point x="84" y="621" type="line" smooth="yes"/>
      <point x="53" y="621"/>
      <point x="12" y="621"/>
      <point x="-11" y="608" type="curve"/>
      <point x="-53" y="636" type="line"/>
      <point x="-53" y="661"/>
      <point x="-13" y="664"/>
      <point x="70" y="664" type="curve" smooth="yes"/>
      <point x="106" y="664"/>
      <point x="143" y="663"/>
      <point x="185" y="663" type="curve"/>
    </contour>
  </outline>
</glyph>
<glyph name="asciicircum" format="1">
  <advance width="683"/>
  <unicode hex="005E"/>
  <outline>
    <contour>
      <point x="286" y="635" type="line"/>
      <point x="311" y="564"/>
      <point x="428" y="343"/>
      <point x="428" y="279" type="curve" smooth="yes"/>
      <point x="428" y="270"/>
      <point x="426" y="264"/>
      <point x="421" y="262" type="curve" smooth="yes"/>
      <point x="417" y="261" type="line"/>
      <point x="349" y="333" type="line"/>
      <point x="350" y="338"/>
      <point x="353" y="343"/>
      <point x="353" y="347" type="curve" smooth="yes"/>
      <point x="353" y="359"/>
      <point x="345" y="371"/>
      <point x="341" y="381" type="curve"/>
      <point x="326" y="417"/>
      <point x="278" y="492"/>
      <point x="239" y="571" type="curve"/>
      <point x="200" y="492"/>
      <point x="152" y="417"/>
      <point x="137" y="381" type="curve"/>
      <point x="134" y="376" type="line"/>
      <point x="127" y="358"/>
      <point x="125" y="352"/>
      <point x="125" y="348" type="curve" smooth="yes"/>
      <point x="125" y="342"/>
      <point x="128" y="337"/>
      <point x="129" y="333" type="curve"/>
      <point x="61" y="261" type="line"/>
      <point x="57" y="262" type="line" smooth="yes"/>
      <point x="52" y="264"/>
      <point x="50" y="271"/>
      <point x="50" y="280" type="curve" smooth="yes"/>
      <point x="50" y="344"/>
      <point x="167" y="564"/>
      <point x="191" y="634" type="curve"/>
      <point x="191" y="635"/>
      <point x="192" y="635"/>
      <point x="239" y="635" type="curve"/>
    </contour>
  </outline>
</glyph>
<glyph name="grave" format="1">
  <advance width="328"/>
  <unicode hex="0060"/>
  <outline>
    <contour>
      <point x="148" y="544" type="line"/>
      <point x="161" y="530"/>
      <point x="170" y="522"/>
      <point x="193" y="504" type="curve" smooth="yes"/>
      <point x="211" y="490"/>
      <point x="231" y="475"/>
      <point x="243" y="473" type="curve"/>
      <point x="246" y="409" type="line"/>
      <point x="244" y="406"/>
      <point x="241" y="404"/>
      <point x="238" y="404" type="curve" smooth="yes"/>
      <point x="225" y="404"/>
      <point x="201" y="430"/>
      <point x="115" y="498" type="curve"/>
    </contour>
    <contour>
      <point x="180" y="329" type="move" name="_top"/>
    </contour>
  </outline>
</glyph>
<glyph name="b" format="1">
  <advance width="371"/>
  <unicode hex="0062"/>
  <outline>
    <contour>
      <point x="49" y="0" type="line"/>
      <point x="54" y="34"/>
      <point x="59" y="430"/>
      <point x="59" y="481" type="curve" smooth="yes"/>
      <point x="59" y="521"/>
      <point x="59" y="569"/>
      <point x="49" y="588" type="curve"/>
      <point x="109" y="664" type="line"/>
      <point x="130" y="664"/>
      <point x="131" y="493"/>
      <point x="131" y="305" type="curve"/>
      <point x="161" y="343"/>
      <point x="211" y="378"/>
      <point x="225" y="378" type="curve"/>
      <point x="305" y="378"/>
      <point x="340" y="277"/>
      <point x="340" y="203" type="curve" smooth="yes"/>
      <point x="340" y="186"/>
      <point x="339" y="171"/>
      <point x="335" y="158" type="curve" smooth="yes"/>
      <point x="326" y="121"/>
      <point x="235" y="-3"/>
      <point x="197" y="-3" type="curve" smooth="yes"/>
      <point x="195" y="-3"/>
      <point x="194" y="-2"/>
      <point x="193" y="-2" type="curve"/>
      <point x="172" y="2"/>
      <point x="139" y="23"/>
      <point x="112" y="46" type="curve"/>
      <point x="91" y="2" type="line"/>
    </contour>
    <contour>
      <point x="156" y="283" type="curve" smooth="yes"/>
      <point x="144" y="276"/>
      <point x="134" y="266"/>
      <point x="131" y="258" type="curve"/>
      <point x="131" y="170" type="line"/>
      <point x="147" y="121"/>
      <point x="185" y="78"/>
      <point x="228" y="78" type="curve" smooth="yes"/>
      <point x="241" y="78"/>
      <point x="255" y="83"/>
      <point x="269" y="92" type="curve"/>
      <point x="279" y="110"/>
      <point x="283" y="131"/>
      <point x="283" y="153" type="curve" smooth="yes"/>
      <point x="283" y="221"/>
      <point x="240" y="293"/>
      <point x="189" y="293" type="curve" smooth="yes"/>
      <point x="178" y="293"/>
      <point x="167" y="289"/>
    </contour>
  </outline>
</glyph>
<glyph name="c" format="1">
  <advance width="340"/>
  <unicode hex="0063"/>
  <outline>
    <contour>
      <point x="294" y="301" type="curve"/>
      <point x="293" y="296"/>
      <point x="267" y="256"/>
      <point x="253" y="246" type="curve"/>
      <point x="235" y="273"/>
      <point x="184" y="303"/>
      <point x="146" y="303" type="curve" smooth="yes"/>
      <point x="125" y="303"/>
      <point x="106" y="294"/>
      <point x="99" y="268" type="curve"/>
      <point x="98" y="253"/>
      <point x="97" y="239"/>
      <point x="97" y="225" type="curve" smooth="yes"/>
      <point x="97" y="120"/>
      <point x="154" y="75"/>
      <point x="212" y="75" type="curve" smooth="yes"/>
      <point x="244" y="75"/>
      <point x="276" y="88"/>
      <point x="298" y="113" type="curve"/>
      <point x="316" y="95" type="line"/>
      <point x="285" y="57"/>
      <point x="164" y="-3"/>
      <point x="146" y="-3" type="curve" smooth="yes"/>
      <point x="66" y="-3"/>
      <point x="31" y="101"/>
      <point x="31" y="178" type="curve" smooth="yes"/>
      <point x="31" y="194"/>
      <point x="33" y="210"/>
      <point x="36" y="223" type="curve" smooth="yes"/>
      <point x="46" y="261"/>
      <point x="137" y="385"/>
      <point x="176" y="385" type="curve"/>
      <point x="180" y="385" type="line"/>
      <point x="207" y="380"/>
      <point x="289" y="326"/>
    </contour>
    <contour>
      <point x="178" y="368" type="move" name="top"/>
    </contour>
    <contour>
      <point x="148" y="11" type="move" name="bottom"/>
    </contour>
  </outline>
</glyph>
<glyph name="e" format="1">
  <advance width="346"/>
  <unicode hex="0065"/>
  <outline>
    <contour>
      <point x="253" y="193" type="curve"/>
      <point x="225" y="170"/>
      <point x="151" y="161"/>
      <point x="113" y="161" type="curve"/>
      <point x="102" y="161" type="line"/>
      <point x="117" y="98"/>
      <point x="161" y="72"/>
      <point x="206" y="72" type="curve" smooth="yes"/>
      <point x="239" y="72"/>
      <point x="274" y="87"/>
      <point x="298" y="113" type="curve"/>
      <point x="315" y="95" type="line"/>
      <point x="285" y="57"/>
      <point x="165" y="-3"/>
      <point x="146" y="-3" type="curve" smooth="yes"/>
      <point x="67" y="-3"/>
      <point x="32" y="96"/>
      <point x="32" y="171" type="curve" smooth="yes"/>
      <point x="32" y="187"/>
      <point x="34" y="202"/>
      <point x="37" y="215" type="curve" smooth="yes"/>
      <point x="47" y="253"/>
      <point x="138" y="376"/>
      <point x="176" y="376" type="curve"/>
      <point x="180" y="376" type="line"/>
      <point x="243" y="370"/>
      <point x="304" y="278"/>
      <point x="306" y="262" type="curve"/>
      <point x="295" y="227"/>
      <point x="253" y="193"/>
    </contour>
    <contour>
      <point x="98" y="260" type="curve"/>
      <point x="96" y="245"/>
      <point x="95" y="232"/>
      <point x="95" y="220" type="curve"/>
      <point x="111" y="206"/>
      <point x="134" y="200"/>
      <point x="157" y="200" type="curve" smooth="yes"/>
      <point x="193" y="200"/>
      <point x="231" y="212"/>
      <point x="250" y="227" type="curve"/>
      <point x="236" y="267"/>
      <point x="188" y="294"/>
      <point x="149" y="294" type="curve" smooth="yes"/>
      <point x="125" y="294"/>
      <point x="105" y="283"/>
    </contour>
    <contour>
      <point x="180" y="362" type="move" name="top"/>
    </contour>
    <contour>
      <point x="148" y="11" type="move" name="bottom"/>
    </contour>
  </outline>
</glyph>
<glyph name="f" format="1">
  <advance width="285"/>
  <unicode hex="0066"/>
  <outline>
    <contour>
      <point x="217" y="495" type="line"/>
      <point x="242" y="509"/>
      <point x="266" y="526"/>
      <point x="266" y="540" type="curve" smooth="yes"/>
      <point x="266" y="541"/>
      <point x="266" y="544"/>
      <point x="265" y="545" type="curve"/>
      <point x="243" y="564"/>
      <point x="212" y="579"/>
      <point x="186" y="579" type="curve" smooth="yes"/>
      <point x="180" y="579"/>
      <point x="175" y="577"/>
      <point x="169" y="576" type="curve"/>
      <point x="164" y="380" type="line"/>
      <point x="288" y="380" type="line"/>
      <point x="280" y="339" type="line"/>
      <point x="162" y="339" type="line"/>
      <point x="162" y="-254" type="line"/>
      <point x="85" y="-254" type="line"/>
      <point x="85" y="336" type="line"/>
      <point x="25" y="336" type="line"/>
      <point x="34" y="380" type="line"/>
      <point x="86" y="380" type="line"/>
      <point x="88" y="508" type="line" smooth="yes"/>
      <point x="88" y="536"/>
      <point x="181" y="659"/>
      <point x="221" y="659" type="curve"/>
      <point x="224" y="659" type="line"/>
      <point x="247" y="658"/>
      <point x="304" y="617"/>
      <point x="330" y="579" type="curve"/>
      <point x="326" y="559"/>
      <point x="269" y="492"/>
      <point x="231" y="475" type="curve"/>
    </contour>
  </outline>
</glyph>
<glyph name="h" format="1">
  <advance width="401"/>
  <unicode hex="0068"/>
  <outline>
    <contour>
      <point x="49" y="0" type="line"/>
      <point x="54" y="34"/>
      <point x="59" y="430"/>
      <point x="59" y="481" type="curve" smooth="yes"/>
      <point x="59" y="521"/>
      <point x="59" y="569"/>
      <point x="49" y="588" type="curve"/>
      <point x="109" y="664" type="line"/>
      <point x="127" y="664"/>
      <point x="130" y="543"/>
      <point x="130" y="394" type="curve"/>
      <point x="130" y="331" type="line"/>
      <point x="158" y="357"/>
      <point x="193" y="381"/>
      <point x="227" y="381" type="curve" smooth="yes"/>
      <point x="266" y="381"/>
      <point x="354" y="326"/>
      <point x="356" y="262" type="curve"/>
      <point x="356" y="262"/>
      <point x="354" y="195"/>
      <point x="354" y="136" type="curve" smooth="yes"/>
      <point x="354" y="102"/>
      <point x="356" y="11"/>
      <point x="356" y="0" type="curve"/>
      <point x="274" y="0" type="line"/>
      <point x="279" y="30"/>
      <point x="282" y="118"/>
      <point x="282" y="150" type="curve" smooth="yes"/>
      <point x="282" y="230"/>
      <point x="264" y="296"/>
      <point x="194" y="307" type="curve" smooth="yes"/>
      <point x="189" y="307"/>
      <point x="183" y="307"/>
      <point x="177" y="307" type="curve" smooth="yes"/>
      <point x="159" y="307"/>
      <point x="143" y="304"/>
      <point x="130" y="298" type="curve"/>
      <point x="130" y="143" type="line"/>
      <point x="130" y="93"/>
      <point x="130" y="44"/>
      <point x="131" y="2" type="curve"/>
    </contour>
    <contour>
      <point x="187" y="626" type="move" name="top"/>
    </contour>
  </outline>
</glyph>
<glyph name="i" format="1">
  <advance width="216"/>
  <unicode hex="0069"/>
  <outline>
    <contour>
      <point x="110" y="567" type="curve"/>
      <point x="140" y="567"/>
      <point x="148" y="542"/>
      <point x="148" y="524" type="curve" smooth="yes"/>
      <point x="148" y="502"/>
      <point x="130" y="481"/>
      <point x="107" y="481" type="curve" smooth="yes"/>
      <point x="83" y="481"/>
      <point x="68" y="502"/>
      <point x="68" y="524" type="curve" smooth="yes"/>
      <point x="68" y="529"/>
      <point x="68" y="532"/>
      <point x="70" y="535" type="curve" smooth="yes"/>
      <point x="73" y="555"/>
      <point x="93" y="567"/>
    </contour>
    <contour>
      <point x="70" y="0" type="line"/>
      <point x="75" y="34"/>
      <point x="80" y="145"/>
      <point x="80" y="197" type="curve" smooth="yes"/>
      <point x="80" y="238"/>
      <point x="80" y="285"/>
      <point x="70" y="303" type="curve"/>
      <point x="130" y="381" type="line"/>
      <point x="148" y="381"/>
      <point x="152" y="339"/>
      <point x="152" y="260" type="curve" smooth="yes"/>
      <point x="152" y="219"/>
      <point x="151" y="168"/>
      <point x="151" y="108" type="curve" smooth="yes"/>
      <point x="151" y="75"/>
      <point x="151" y="40"/>
      <point x="152" y="2" type="curve"/>
    </contour>
    <contour>
      <point x="111" y="394" type="move" name="top"/>
    </contour>
  </outline>
</glyph>
<glyph name="j" format="1">
  <advance width="218"/>
  <unicode hex="006A"/>
  <outline>
    <contour>
      <point x="-89" y="-175" type="curve"/>
      <point x="-87" y="-170"/>
      <point x="-61" y="-131"/>
      <point x="-47" y="-120" type="curve"/>
      <point x="-30" y="-147"/>
      <point x="19" y="-177"/>
      <point x="55" y="-177" type="curve" smooth="yes"/>
      <point x="61" y="-177"/>
      <point x="66" y="-176"/>
      <point x="71" y="-175" type="curve"/>
      <point x="75" y="-78"/>
      <point x="80" y="153"/>
      <point x="80" y="197" type="curve" smooth="yes"/>
      <point x="80" y="238"/>
      <point x="80" y="285"/>
      <point x="70" y="303" type="curve"/>
      <point x="130" y="381"/>
      <point x="130" y="381"/>
      <point x="130" y="381" type="curve" smooth="yes"/>
      <point x="149" y="381"/>
      <point x="153" y="302"/>
      <point x="153" y="193" type="curve" smooth="yes"/>
      <point x="153" y="112"/>
      <point x="151" y="51"/>
      <point x="151" y="-43" type="curve" smooth="yes"/>
      <point x="151" y="-65"/>
      <point x="152" y="-87"/>
      <point x="152" y="-108" type="curve"/>
      <point x="152" y="-135"/>
      <point x="61" y="-258"/>
      <point x="22" y="-258" type="curve" smooth="yes"/>
      <point x="20" y="-258"/>
      <point x="20" y="-257"/>
      <point x="18" y="-257" type="curve"/>
      <point x="-6" y="-253"/>
      <point x="-86" y="-198"/>
    </contour>
    <contour>
      <point x="110" y="567" type="curve" smooth="yes"/>
      <point x="140" y="567"/>
      <point x="148" y="542"/>
      <point x="148" y="524" type="curve" smooth="yes"/>
      <point x="148" y="502"/>
      <point x="130" y="481"/>
      <point x="107" y="481" type="curve" smooth="yes"/>
      <point x="83" y="481"/>
      <point x="68" y="502"/>
      <point x="68" y="524" type="curve" smooth="yes"/>
      <point x="68" y="529"/>
      <point x="68" y="532"/>
      <point x="70" y="535" type="curve"/>
      <point x="73" y="555"/>
      <point x="93" y="567"/>
    </contour>
    <contour>
      <point x="111" y="385" type="move" name="top"/>
    </contour>
  </outline>
</glyph>
<glyph name="k" format="1">
  <advance width="401"/>
  <unicode hex="006B"/>
  <outline>
    <contour>
      <point x="289" y="376" type="curve"/>
      <point x="302" y="371"/>
      <point x="340" y="295"/>
      <point x="341" y="247" type="curve"/>
      <point x="317" y="244" type="line"/>
      <point x="315" y="262"/>
      <point x="304" y="278"/>
      <point x="291" y="278" type="curve" smooth="yes"/>
      <point x="289" y="278"/>
      <point x="286" y="277"/>
      <point x="284" y="276" type="curve"/>
      <point x="268" y="271"/>
      <point x="246" y="248"/>
      <point x="224" y="225" type="curve"/>
      <point x="270" y="170" type="line"/>
      <point x="296" y="139"/>
      <point x="322" y="102"/>
      <point x="343" y="93" type="curve"/>
      <point x="345" y="93"/>
      <point x="347" y="93"/>
      <point x="348" y="93" type="curve" smooth="yes"/>
      <point x="365" y="93"/>
      <point x="379" y="110"/>
      <point x="382" y="129" type="curve"/>
      <point x="407" y="123" type="line"/>
      <point x="402" y="77"/>
      <point x="360" y="11"/>
      <point x="344" y="-5" type="curve"/>
      <point x="341" y="-7"/>
      <point x="338" y="-8"/>
      <point x="335" y="-8" type="curve" smooth="yes"/>
      <point x="311" y="-8"/>
      <point x="280" y="46"/>
      <point x="180" y="174" type="curve"/>
      <point x="130" y="114" type="line"/>
      <point x="130" y="75"/>
      <point x="130" y="35"/>
      <point x="131" y="2" type="curve"/>
      <point x="49" y="2" type="line"/>
      <point x="54" y="34"/>
      <point x="59" y="430"/>
      <point x="59" y="481" type="curve" smooth="yes"/>
      <point x="59" y="521"/>
      <point x="59" y="569"/>
      <point x="49" y="588" type="curve"/>
      <point x="109" y="664" type="line"/>
      <point x="128" y="664"/>
      <point x="130" y="532"/>
      <point x="130" y="373" type="curve"/>
      <point x="130" y="224" type="line"/>
      <point x="207" y="311"/>
      <point x="268" y="376"/>
      <point x="286" y="376" type="curve" smooth="yes"/>
      <point x="287" y="376"/>
      <point x="288" y="376"/>
    </contour>
    <contour>
      <point x="187" y="2" type="move" name="bottom"/>
    </contour>
  </outline>
</glyph>
<glyph name="l" format="1">
  <advance width="215"/>
  <unicode hex="006C"/>
  <outline>
    <contour>
      <point x="68" y="0" type="line"/>
      <point x="73" y="34"/>
      <point x="78" y="430"/>
      <point x="78" y="481" type="curve" smooth="yes"/>
      <point x="78" y="521"/>
      <point x="78" y="569"/>
      <point x="68" y="588" type="curve"/>
      <point x="128" y="664" type="line"/>
      <point x="147" y="664"/>
      <point x="150" y="534"/>
      <point x="150" y="376" type="curve" smooth="yes"/>
      <point x="150" y="295"/>
      <point x="149" y="207"/>
      <point x="149" y="126" type="curve" smooth="yes"/>
      <point x="149" y="82"/>
      <point x="149" y="40"/>
      <point x="150" y="2" type="curve"/>
    </contour>
    <contour>
      <point x="125" y="640" type="move" name="top"/>
    </contour>
  </outline>
</glyph>
<glyph name="m" format="1">
  <advance width="620"/>
  <unicode hex="006D"/>
  <outline>
    <contour>
      <point x="45" y="0" type="line"/>
      <point x="50" y="34"/>
      <point x="55" y="145"/>
      <point x="55" y="197" type="curve" smooth="yes"/>
      <point x="55" y="238"/>
      <point x="55" y="285"/>
      <point x="45" y="303" type="curve"/>
      <point x="105" y="381" type="line"/>
      <point x="118" y="381"/>
      <point x="124" y="358"/>
      <point x="125" y="316" type="curve"/>
      <point x="154" y="349"/>
      <point x="187" y="381"/>
      <point x="218" y="381" type="curve" smooth="yes"/>
      <point x="253" y="381"/>
      <point x="316" y="338"/>
      <point x="334" y="316" type="curve"/>
      <point x="364" y="346"/>
      <point x="404" y="381"/>
      <point x="446" y="381" type="curve" smooth="yes"/>
      <point x="485" y="381"/>
      <point x="573" y="326"/>
      <point x="575" y="262" type="curve"/>
      <point x="575" y="262"/>
      <point x="573" y="195"/>
      <point x="573" y="136" type="curve" smooth="yes"/>
      <point x="573" y="102"/>
      <point x="575" y="11"/>
      <point x="575" y="0" type="curve"/>
      <point x="493" y="0" type="line"/>
      <point x="498" y="30"/>
      <point x="501" y="118"/>
      <point x="501" y="150" type="curve" smooth="yes"/>
      <point x="501" y="230"/>
      <point x="485" y="296"/>
      <point x="413" y="307" type="curve"/>
      <point x="408" y="307"/>
      <point x="402" y="307"/>
      <point x="396" y="307" type="curve" smooth="yes"/>
      <point x="376" y="307"/>
      <point x="358" y="303"/>
      <point x="344" y="296" type="curve"/>
      <point x="351" y="276"/>
      <point x="352" y="235"/>
      <point x="352" y="194" type="curve"/>
      <point x="352" y="136" type="line"/>
      <point x="352" y="102"/>
      <point x="352" y="11"/>
      <point x="353" y="0" type="curve"/>
      <point x="270" y="0" type="line"/>
      <point x="275" y="30"/>
      <point x="278" y="118"/>
      <point x="278" y="150" type="curve" smooth="yes"/>
      <point x="278" y="230"/>
      <point x="271" y="298"/>
      <point x="182" y="303" type="curve"/>
      <point x="178" y="303" type="line"/>
      <point x="155" y="303"/>
      <point x="139" y="295"/>
      <point x="126" y="285" type="curve"/>
      <point x="126" y="122" type="line"/>
      <point x="126" y="85"/>
      <point x="126" y="46"/>
      <point x="127" y="2" type="curve"/>
    </contour>
  </outline>
</glyph>
<glyph name="n" format="1">
  <advance width="399"/>
  <unicode hex="006E"/>
  <outline>
    <contour>
      <point x="45" y="0" type="line"/>
      <point x="50" y="34"/>
      <point x="55" y="145"/>
      <point x="55" y="197" type="curve" smooth="yes"/>
      <point x="55" y="238"/>
      <point x="55" y="285"/>
      <point x="45" y="303" type="curve"/>
      <point x="105" y="381" type="line"/>
      <point x="118" y="381"/>
      <point x="124" y="358"/>
      <point x="125" y="316" type="curve"/>
      <point x="154" y="349"/>
      <point x="187" y="381"/>
      <point x="218" y="381" type="curve" smooth="yes"/>
      <point x="260" y="381"/>
      <point x="339" y="321"/>
      <point x="339" y="307" type="curve"/>
      <point x="350" y="297"/>
      <point x="352" y="244"/>
      <point x="352" y="194" type="curve"/>
      <point x="352" y="136" type="line"/>
      <point x="352" y="102"/>
      <point x="352" y="11"/>
      <point x="353" y="0" type="curve"/>
      <point x="270" y="0" type="line"/>
      <point x="275" y="30"/>
      <point x="278" y="118"/>
      <point x="278" y="150" type="curve" smooth="yes"/>
      <point x="278" y="230"/>
      <point x="271" y="298"/>
      <point x="182" y="303" type="curve"/>
      <point x="178" y="303" type="line"/>
      <point x="155" y="303"/>
      <point x="139" y="295"/>
      <point x="126" y="285" type="curve"/>
      <point x="126" y="122" type="line"/>
      <point x="126" y="85"/>
      <point x="126" y="46"/>
      <point x="127" y="2" type="curve"/>
    </contour>
    <contour>
      <point x="209" y="370" type="move" name="top"/>
    </contour>
    <contour>
      <point x="193" y="2" type="move" name="bottom"/>
    </contour>
  </outline>
</glyph>
<glyph name="p" format="1">
  <advance width="371"/>
  <unicode hex="0070"/>
  <outline>
    <contour>
      <point x="50" y="-255" type="line"/>
      <point x="55" y="-222"/>
      <point x="59" y="145"/>
      <point x="59" y="197" type="curve" smooth="yes"/>
      <point x="59" y="238"/>
      <point x="59" y="285"/>
      <point x="49" y="303" type="curve"/>
      <point x="109" y="381" type="line"/>
      <point x="118" y="381"/>
      <point x="123" y="350"/>
      <point x="126" y="299" type="curve"/>
      <point x="130" y="303" type="line" smooth="yes"/>
      <point x="159" y="341"/>
      <point x="211" y="378"/>
      <point x="225" y="378" type="curve"/>
      <point x="305" y="378"/>
      <point x="340" y="277"/>
      <point x="340" y="203" type="curve" smooth="yes"/>
      <point x="340" y="186"/>
      <point x="339" y="171"/>
      <point x="335" y="158" type="curve" smooth="yes"/>
      <point x="326" y="121"/>
      <point x="235" y="-3"/>
      <point x="195" y="-3" type="curve"/>
      <point x="192" y="-3" type="line"/>
      <point x="176" y="1"/>
      <point x="153" y="15"/>
      <point x="130" y="31" type="curve"/>
      <point x="130" y="-30"/>
      <point x="130" y="-94"/>
      <point x="130" y="-155" type="curve" smooth="yes"/>
      <point x="130" y="-200"/>
      <point x="130" y="-214"/>
      <point x="131" y="-253" type="curve"/>
    </contour>
    <contour>
      <point x="156" y="283" type="curve"/>
      <point x="135" y="272"/>
      <point x="131" y="260"/>
      <point x="130" y="248" type="curve"/>
      <point x="130" y="175" type="line"/>
      <point x="145" y="124"/>
      <point x="184" y="79"/>
      <point x="228" y="79" type="curve" smooth="yes"/>
      <point x="241" y="79"/>
      <point x="255" y="83"/>
      <point x="269" y="92" type="curve"/>
      <point x="279" y="111"/>
      <point x="283" y="131"/>
      <point x="283" y="153" type="curve" smooth="yes"/>
      <point x="283" y="221"/>
      <point x="242" y="293"/>
      <point x="189" y="293" type="curve" smooth="yes"/>
      <point x="179" y="293"/>
      <point x="167" y="289"/>
    </contour>
  </outline>
</glyph>
<glyph name="q" format="1">
  <advance width="367"/>
  <unicode hex="0071"/>
  <outline>
    <contour>
      <point x="322" y="373" type="line"/>
      <point x="317" y="341"/>
      <point x="311" y="-21"/>
      <point x="311" y="-71" type="curve"/>
      <point x="311" y="-103" type="line"/>
      <point x="311" y="-135"/>
      <point x="312" y="-166"/>
      <point x="319" y="-178" type="curve"/>
      <point x="321" y="-179"/>
      <point x="325" y="-180"/>
      <point x="328" y="-180" type="curve" smooth="yes"/>
      <point x="339" y="-180"/>
      <point x="353" y="-172"/>
      <point x="362" y="-162" type="curve"/>
      <point x="380" y="-180" type="line"/>
      <point x="352" y="-217"/>
      <point x="278" y="-253"/>
      <point x="259" y="-256" type="curve"/>
      <point x="239" y="-256"/>
      <point x="239" y="-158"/>
      <point x="239" y="2" type="curve"/>
      <point x="239" y="66" type="line"/>
      <point x="223" y="48"/>
      <point x="175" y="-2"/>
      <point x="146" y="-3" type="curve"/>
      <point x="66" y="-1"/>
      <point x="31" y="96"/>
      <point x="31" y="171" type="curve" smooth="yes"/>
      <point x="31" y="187"/>
      <point x="33" y="202"/>
      <point x="36" y="215" type="curve" smooth="yes"/>
      <point x="46" y="253"/>
      <point x="137" y="376"/>
      <point x="176" y="376" type="curve"/>
      <point x="180" y="376" type="line"/>
      <point x="199" y="371"/>
      <point x="232" y="350"/>
      <point x="259" y="326" type="curve"/>
      <point x="280" y="371" type="line"/>
    </contour>
    <contour>
      <point x="216" y="90" type="curve"/>
      <point x="235" y="98"/>
      <point x="238" y="108"/>
      <point x="240" y="118" type="curve"/>
      <point x="240" y="144"/>
      <point x="241" y="171"/>
      <point x="241" y="198" type="curve"/>
      <point x="226" y="249"/>
      <point x="188" y="294"/>
      <point x="143" y="294" type="curve" smooth="yes"/>
      <point x="130" y="294"/>
      <point x="116" y="290"/>
      <point x="102" y="281" type="curve"/>
      <point x="93" y="262"/>
      <point x="89" y="241"/>
      <point x="89" y="220" type="curve" smooth="yes"/>
      <point x="89" y="152"/>
      <point x="130" y="80"/>
      <point x="182" y="80" type="curve" smooth="yes"/>
      <point x="193" y="80"/>
      <point x="204" y="84"/>
    </contour>
  </outline>
</glyph>
<glyph name="r" format="1">
  <advance width="340"/>
  <unicode hex="0072"/>
  <outline>
    <contour>
      <point x="68" y="0" type="line"/>
      <point x="73" y="34"/>
      <point x="78" y="145"/>
      <point x="78" y="197" type="curve" smooth="yes"/>
      <point x="78" y="238"/>
      <point x="78" y="285"/>
      <point x="68" y="303" type="curve"/>
      <point x="128" y="381" type="line"/>
      <point x="142" y="381"/>
      <point x="148" y="358"/>
      <point x="149" y="312" type="curve"/>
      <point x="177" y="347"/>
      <point x="207" y="376"/>
      <point x="222" y="376" type="curve"/>
      <point x="268" y="370"/>
      <point x="332" y="301"/>
      <point x="332" y="294" type="curve"/>
      <point x="317" y="263"/>
      <point x="271" y="209"/>
      <point x="234" y="191" type="curve"/>
      <point x="219" y="212" type="line"/>
      <point x="236" y="221"/>
      <point x="266" y="240"/>
      <point x="266" y="255" type="curve" smooth="yes"/>
      <point x="266" y="257"/>
      <point x="266" y="259"/>
      <point x="265" y="261" type="curve"/>
      <point x="233" y="289"/>
      <point x="207" y="300"/>
      <point x="188" y="300" type="curve" smooth="yes"/>
      <point x="171" y="300"/>
      <point x="158" y="293"/>
      <point x="149" y="284" type="curve"/>
      <point x="149" y="252" type="line"/>
      <point x="149" y="216"/>
      <point x="148" y="173"/>
      <point x="148" y="124" type="curve" smooth="yes"/>
      <point x="150" y="2" type="line"/>
    </contour>
    <contour>
      <point x="198" y="378" type="move" name="top"/>
    </contour>
    <contour>
      <point x="102" y="11" type="move" name="bottom"/>
    </contour>
  </outline>
</glyph>
<glyph name="t" format="1">
  <advance width="298"/>
  <unicode hex="0074"/>
  <outline>
    <contour>
      <point x="35" y="380" type="line"/>
      <point x="83" y="380" type="line"/>
      <point x="89" y="478" type="line"/>
      <point x="171" y="478" type="line"/>
      <point x="170" y="469"/>
      <point x="164" y="430"/>
      <point x="159" y="380" type="curve"/>
      <point x="289" y="380" type="line"/>
      <point x="280" y="337" type="line"/>
      <point x="155" y="337" type="line"/>
      <point x="151" y="292"/>
      <point x="148" y="239"/>
      <point x="148" y="194" type="curve" smooth="yes"/>
      <point x="148" y="148"/>
      <point x="151" y="108"/>
      <point x="160" y="86" type="curve" smooth="yes"/>
      <point x="164" y="75"/>
      <point x="175" y="71"/>
      <point x="184" y="71" type="curve" smooth="yes"/>
      <point x="212" y="71"/>
      <point x="257" y="124"/>
      <point x="258" y="123" type="curve" smooth="yes"/>
      <point x="276" y="105" type="line"/>
      <point x="225" y="35"/>
      <point x="139" y="-3"/>
      <point x="121" y="-3" type="curve" smooth="yes"/>
      <point x="90" y="-3"/>
      <point x="78" y="39"/>
      <point x="75" y="100" type="curve" smooth="yes"/>
      <point x="74" y="117"/>
      <point x="74" y="137"/>
      <point x="74" y="157" type="curve" smooth="yes"/>
      <point x="74" y="216"/>
      <point x="76" y="279"/>
      <point x="80" y="337" type="curve"/>
      <point x="26" y="337" type="line"/>
    </contour>
    <contour>
      <point x="116" y="11" type="move" name="bottom"/>
    </contour>
  </outline>
</glyph>
<glyph name="v" format="1">
  <advance width="355"/>
  <unicode hex="0076"/>
  <outline>
    <contour>
      <point x="177" y="-2" type="line"/>
      <point x="169" y="30"/>
      <point x="125" y="146"/>
      <point x="106" y="191" type="curve" smooth="yes"/>
      <point x="89" y="229"/>
      <point x="71" y="272"/>
      <point x="53" y="288" type="curve"/>
      <point x="50" y="289"/>
      <point x="47" y="290"/>
      <point x="43" y="290" type="curve" smooth="yes"/>
      <point x="29" y="290"/>
      <point x="15" y="276"/>
      <point x="9" y="262" type="curve"/>
      <point x="-13" y="276" type="line"/>
      <point x="5" y="320"/>
      <point x="66" y="373"/>
      <point x="84" y="379" type="curve"/>
      <point x="85" y="380"/>
      <point x="88" y="380"/>
      <point x="89" y="380" type="curve" smooth="yes"/>
      <point x="115" y="380"/>
      <point x="139" y="304"/>
      <point x="207" y="146" type="curve"/>
      <point x="222" y="180"/>
      <point x="235" y="215"/>
      <point x="242" y="235" type="curve"/>
      <point x="256" y="271"/>
      <point x="280" y="342"/>
      <point x="280" y="369" type="curve" smooth="yes"/>
      <point x="280" y="371"/>
      <point x="280" y="374"/>
      <point x="279" y="376" type="curve"/>
      <point x="327" y="382" type="line"/>
      <point x="334" y="380"/>
      <point x="337" y="374"/>
      <point x="337" y="365" type="curve" smooth="yes"/>
      <point x="337" y="333"/>
      <point x="298" y="253"/>
      <point x="238" y="80" type="curve"/>
      <point x="239" y="75"/>
      <point x="241" y="71"/>
      <point x="244" y="67" type="curve"/>
    </contour>
  </outline>
</glyph>
<glyph name="w" format="1">
  <advance width="533"/>
  <unicode hex="0077"/>
  <outline>
    <contour>
      <point x="372" y="-3" type="line"/>
      <point x="364" y="29"/>
      <point x="321" y="143"/>
      <point x="300" y="189" type="curve"/>
      <point x="289" y="212" type="line"/>
      <point x="286" y="205" type="line"/>
      <point x="274" y="173"/>
      <point x="258" y="132"/>
      <point x="239" y="76" type="curve"/>
      <point x="244" y="66" type="line"/>
      <point x="177" y="-3" type="line"/>
      <point x="169" y="29"/>
      <point x="127" y="143"/>
      <point x="106" y="189" type="curve"/>
      <point x="104" y="194" type="line"/>
      <point x="89" y="230"/>
      <point x="70" y="271"/>
      <point x="56" y="288" type="curve"/>
      <point x="52" y="289"/>
      <point x="49" y="289"/>
      <point x="47" y="289" type="curve" smooth="yes"/>
      <point x="30" y="289"/>
      <point x="17" y="278"/>
      <point x="11" y="262" type="curve"/>
      <point x="-11" y="276" type="line"/>
      <point x="7" y="321"/>
      <point x="71" y="376"/>
      <point x="86" y="378" type="curve"/>
      <point x="88" y="379"/>
      <point x="89" y="379"/>
      <point x="91" y="379" type="curve" smooth="yes"/>
      <point x="116" y="379"/>
      <point x="140" y="301"/>
      <point x="211" y="139" type="curve"/>
      <point x="225" y="175"/>
      <point x="239" y="209"/>
      <point x="247" y="231" type="curve" smooth="yes"/>
      <point x="251" y="243"/>
      <point x="256" y="256"/>
      <point x="260" y="269" type="curve"/>
      <point x="256" y="275"/>
      <point x="252" y="280"/>
      <point x="248" y="283" type="curve"/>
      <point x="279" y="378" type="line"/>
      <point x="280" y="379"/>
      <point x="282" y="379"/>
      <point x="284" y="379" type="curve" smooth="yes"/>
      <point x="308" y="379"/>
      <point x="331" y="308"/>
      <point x="394" y="163" type="curve"/>
      <point x="403" y="187"/>
      <point x="412" y="210"/>
      <point x="419" y="230" type="curve"/>
      <point x="425" y="247" type="line"/>
      <point x="438" y="285"/>
      <point x="458" y="344"/>
      <point x="458" y="369" type="curve" smooth="yes"/>
      <point x="458" y="371"/>
      <point x="458" y="373"/>
      <point x="458" y="375" type="curve"/>
      <point x="505" y="381" type="line"/>
      <point x="512" y="379"/>
      <point x="516" y="373"/>
      <point x="516" y="363" type="curve" smooth="yes"/>
      <point x="516" y="331"/>
      <point x="479" y="257"/>
      <point x="422" y="98" type="curve"/>
      <point x="437" y="66" type="line"/>
    </contour>
    <contour>
      <point x="288" y="367" type="move" name="top"/>
    </contour>
  </outline>
</glyph>
<glyph name="x" format="1">
  <advance width="332"/>
  <unicode hex="0078"/>
  <outline>
    <contour>
      <point x="223" y="3" type="line"/>
      <point x="216" y="30"/>
      <point x="176" y="95"/>
      <point x="153" y="141" type="curve"/>
      <point x="142" y="126" type="line" smooth="yes"/>
      <point x="119" y="92"/>
      <point x="71" y="20"/>
      <point x="69" y="0" type="curve"/>
      <point x="17" y="0" type="line"/>
      <point x="11" y="4"/>
      <point x="9" y="8"/>
      <point x="9" y="14" type="curve" smooth="yes"/>
      <point x="9" y="33"/>
      <point x="48" y="76"/>
      <point x="127" y="187" type="curve"/>
      <point x="101" y="228"/>
      <point x="56" y="288"/>
      <point x="41" y="298" type="curve"/>
      <point x="71" y="384" type="line"/>
      <point x="72" y="385"/>
      <point x="73" y="385"/>
      <point x="75" y="385" type="curve" smooth="yes"/>
      <point x="96" y="385"/>
      <point x="134" y="330"/>
      <point x="183" y="242" type="curve"/>
      <point x="188" y="248" type="line" smooth="yes"/>
      <point x="212" y="282"/>
      <point x="259" y="355"/>
      <point x="259" y="374" type="curve"/>
      <point x="312" y="374" type="line"/>
      <point x="319" y="369"/>
      <point x="323" y="365"/>
      <point x="323" y="358" type="curve" smooth="yes"/>
      <point x="323" y="341"/>
      <point x="292" y="307"/>
      <point x="211" y="192" type="curve"/>
      <point x="240" y="137"/>
      <point x="272" y="72"/>
      <point x="307" y="3" type="curve"/>
    </contour>
  </outline>
</glyph>
<glyph name="y" format="1">
  <advance width="354"/>
  <unicode hex="0079"/>
  <outline>
    <contour>
      <point x="53" y="-254" type="line"/>
      <point x="71" y="-213"/>
      <point x="117" y="-113"/>
      <point x="179" y="28" type="curve"/>
      <point x="164" y="75"/>
      <point x="132" y="160"/>
      <point x="115" y="197" type="curve" smooth="yes"/>
      <point x="98" y="235"/>
      <point x="80" y="278"/>
      <point x="64" y="292" type="curve"/>
      <point x="61" y="294"/>
      <point x="58" y="294"/>
      <point x="54" y="294" type="curve" smooth="yes"/>
      <point x="40" y="294"/>
      <point x="26" y="283"/>
      <point x="18" y="267" type="curve"/>
      <point x="-4" y="280" type="line"/>
      <point x="12" y="321"/>
      <point x="81" y="386"/>
      <point x="101" y="386" type="curve" smooth="yes"/>
      <point x="126" y="386"/>
      <point x="147" y="311"/>
      <point x="225" y="135" type="curve"/>
      <point x="271" y="245"/>
      <point x="306" y="343"/>
      <point x="306" y="379" type="curve"/>
      <point x="363" y="389" type="line"/>
      <point x="365" y="389"/>
      <point x="366" y="385"/>
      <point x="366" y="380" type="curve" smooth="yes"/>
      <point x="366" y="316"/>
      <point x="199" y="-41"/>
      <point x="119" y="-254" type="curve"/>
    </contour>
    <contour>
      <point x="211" y="378" type="move" name="top"/>
    </contour>
  </outline>
</glyph>
<glyph name="bar" format="1">
  <advance width="202"/>
  <unicode hex="007C"/>
  <outline>
    <contour>
      <point x="79" y="-235" type="line"/>
      <point x="82" y="-215"/>
      <point x="82" y="41"/>
      <point x="82" y="253" type="curve"/>
      <point x="82" y="538" type="line"/>
      <point x="82" y="577"/>
      <point x="79" y="671"/>
      <point x="69" y="690" type="curve"/>
      <point x="112" y="713" type="line"/>
      <point x="129" y="713"/>
      <point x="133" y="519"/>
      <point x="133" y="299" type="curve" smooth="yes"/>
      <point x="133" y="153"/>
      <point x="131" y="-4"/>
      <point x="131" y="-124" type="curve" smooth="yes"/>
      <point x="131" y="-169"/>
      <point x="131" y="-208"/>
      <point x="132" y="-240" type="curve"/>
    </contour>
  </outline>
</glyph>
<glyph name="braceright" format="1">
  <advance width="380"/>
  <unicode hex="007D"/>
  <outline>
    <contour>
      <point x="284" y="242" type="line"/>
      <point x="280" y="239"/>
      <point x="278" y="237"/>
      <point x="276" y="234" type="curve" smooth="yes"/>
      <point x="272" y="230" type="line" smooth="yes"/>
      <point x="248" y="195"/>
      <point x="240" y="124"/>
      <point x="240" y="50" type="curve" smooth="yes"/>
      <point x="240" y="-29"/>
      <point x="248" y="-109"/>
      <point x="255" y="-148" type="curve"/>
      <point x="276" y="-178" type="line"/>
      <point x="161" y="-178" type="line"/>
      <point x="78" y="-178"/>
      <point x="38" y="-175"/>
      <point x="38" y="-150" type="curve"/>
      <point x="80" y="-121" type="line"/>
      <point x="103" y="-134"/>
      <point x="144" y="-134"/>
      <point x="175" y="-134" type="curve" smooth="yes"/>
      <point x="181" y="-134" type="line"/>
      <point x="178" y="-62"/>
      <point x="171" y="0"/>
      <point x="171" y="54" type="curve" smooth="yes"/>
      <point x="171" y="133"/>
      <point x="185" y="194"/>
      <point x="246" y="243" type="curve"/>
      <point x="185" y="291"/>
      <point x="171" y="353"/>
      <point x="171" y="431" type="curve" smooth="yes"/>
      <point x="171" y="485"/>
      <point x="178" y="549"/>
      <point x="181" y="621" type="curve"/>
      <point x="175" y="621" type="line" smooth="yes"/>
      <point x="144" y="621"/>
      <point x="103" y="621"/>
      <point x="80" y="608" type="curve"/>
      <point x="38" y="636" type="line"/>
      <point x="38" y="661"/>
      <point x="78" y="664"/>
      <point x="161" y="664" type="curve"/>
      <point x="188" y="664"/>
      <point x="216" y="664"/>
      <point x="276" y="663" type="curve"/>
      <point x="257" y="633" type="line"/>
      <point x="249" y="594"/>
      <point x="240" y="512"/>
      <point x="240" y="433" type="curve" smooth="yes"/>
      <point x="240" y="360"/>
      <point x="248" y="289"/>
      <point x="272" y="256" type="curve" smooth="yes"/>
      <point x="276" y="252" type="line"/>
    </contour>
  </outline>
</glyph>
<glyph name="asciitilde" format="1">
  <advance width="459"/>
  <unicode hex="007E"/>
  <outline>
    <contour>
      <point x="191" y="276" type="line"/>
      <point x="209" y="275"/>
      <point x="262" y="218"/>
      <point x="276" y="211" type="curve" smooth="yes"/>
      <point x="280" y="209"/>
      <point x="283" y="208"/>
      <point x="287" y="208" type="curve" smooth="yes"/>
      <point x="312" y="208"/>
      <point x="346" y="244"/>
      <point x="370" y="277" type="curve" smooth="yes"/>
      <point x="371" y="278" type="line"/>
      <point x="372" y="278"/>
      <point x="378" y="272"/>
      <point x="378" y="272" type="curve"/>
      <point x="375" y="208" type="line"/>
      <point x="338" y="166"/>
      <point x="312" y="147"/>
      <point x="268" y="147" type="curve" smooth="yes"/>
      <point x="257" y="147"/>
      <point x="197" y="214"/>
      <point x="180" y="214" type="curve" smooth="yes"/>
      <point x="152" y="214"/>
      <point x="99" y="147"/>
      <point x="89" y="147" type="curve" smooth="yes"/>
      <point x="85" y="147"/>
      <point x="84" y="148"/>
      <point x="81" y="152" type="curve"/>
      <point x="84" y="216" type="line"/>
      <point x="114" y="241"/>
      <point x="146" y="276"/>
      <point x="184" y="276" type="curve" smooth="yes"/>
    </contour>
  </outline>
</glyph>
<glyph name="cent" format="1">
  <advance width="340"/>
  <unicode hex="00A2"/>
  <outline>
    <contour>
      <point x="142" y="-64" type="line"/>
      <point x="143" y="-55"/>
      <point x="143" y="-32"/>
      <point x="144" y="-3" type="curve"/>
      <point x="66" y="1"/>
      <point x="31" y="101"/>
      <point x="31" y="177" type="curve" smooth="yes"/>
      <point x="31" y="194"/>
      <point x="33" y="210"/>
      <point x="36" y="223" type="curve" smooth="yes"/>
      <point x="43" y="251"/>
      <point x="96" y="328"/>
      <point x="139" y="365" type="curve"/>
      <point x="136" y="392"/>
      <point x="133" y="416"/>
      <point x="129" y="424" type="curve"/>
      <point x="171" y="448" type="line"/>
      <point x="181" y="448"/>
      <point x="187" y="423"/>
      <point x="190" y="382" type="curve"/>
      <point x="234" y="368"/>
      <point x="294" y="308"/>
      <point x="294" y="302" type="curve" smooth="yes"/>
      <point x="294" y="296"/>
      <point x="266" y="257"/>
      <point x="253" y="246" type="curve"/>
      <point x="241" y="262"/>
      <point x="218" y="280"/>
      <point x="194" y="291" type="curve"/>
      <point x="194" y="75" type="line"/>
      <point x="199" y="75"/>
      <point x="205" y="74"/>
      <point x="211" y="74" type="curve" smooth="yes"/>
      <point x="243" y="74"/>
      <point x="275" y="88"/>
      <point x="298" y="113" type="curve"/>
      <point x="316" y="95" type="line"/>
      <point x="296" y="70"/>
      <point x="237" y="35"/>
      <point x="194" y="15" type="curve"/>
      <point x="194" y="-13"/>
      <point x="194" y="-41"/>
      <point x="195" y="-69" type="curve"/>
    </contour>
    <contour>
      <point x="99" y="268" type="curve"/>
      <point x="97" y="253"/>
      <point x="96" y="238"/>
      <point x="96" y="224" type="curve" smooth="yes"/>
      <point x="96" y="162"/>
      <point x="116" y="121"/>
      <point x="145" y="98" type="curve"/>
      <point x="145" y="165"/>
      <point x="144" y="232"/>
      <point x="144" y="257" type="curve" smooth="yes"/>
      <point x="144" y="268"/>
      <point x="143" y="285"/>
      <point x="143" y="303" type="curve"/>
      <point x="122" y="303"/>
      <point x="106" y="293"/>
    </contour>
  </outline>
</glyph>
<glyph name="sterling" format="1">
  <advance width="453"/>
  <unicode hex="00A3"/>
  <outline>
    <contour>
      <point x="129" y="317" type="line"/>
      <point x="189" y="317" type="line"/>
      <point x="190" y="332"/>
      <point x="193" y="357"/>
      <point x="194" y="389" type="curve"/>
      <point x="216" y="437"/>
      <point x="294" y="537"/>
      <point x="329" y="537" type="curve"/>
      <point x="332" y="537" type="line"/>
      <point x="346" y="535"/>
      <point x="363" y="526"/>
      <point x="380" y="515" type="curve"/>
      <point x="385" y="514"/>
      <point x="388" y="512"/>
      <point x="389" y="508" type="curve"/>
      <point x="420" y="486"/>
      <point x="447" y="458"/>
      <point x="447" y="454" type="curve" smooth="yes"/>
      <point x="447" y="449"/>
      <point x="419" y="409"/>
      <point x="405" y="399" type="curve"/>
      <point x="386" y="426"/>
      <point x="336" y="456"/>
      <point x="298" y="456" type="curve" smooth="yes"/>
      <point x="277" y="456"/>
      <point x="260" y="447"/>
      <point x="253" y="424" type="curve" smooth="yes"/>
      <point x="252" y="421"/>
      <point x="251" y="417"/>
      <point x="251" y="414" type="curve" smooth="yes"/>
      <point x="250" y="403"/>
      <point x="250" y="393"/>
      <point x="250" y="383" type="curve" smooth="yes"/>
      <point x="250" y="359"/>
      <point x="252" y="339"/>
      <point x="253" y="326" type="curve" smooth="yes"/>
      <point x="253" y="322"/>
      <point x="254" y="320"/>
      <point x="254" y="317" type="curve"/>
      <point x="283" y="317"/>
      <point x="312" y="318"/>
      <point x="341" y="319" type="curve" smooth="yes"/>
      <point x="367" y="319" type="line"/>
      <point x="332" y="265" type="line"/>
      <point x="306" y="265"/>
      <point x="298" y="267"/>
      <point x="280" y="267" type="curve" smooth="yes"/>
      <point x="272" y="267"/>
      <point x="264" y="267"/>
      <point x="256" y="266" type="curve"/>
      <point x="248" y="191"/>
      <point x="211" y="111"/>
      <point x="155" y="61" type="curve"/>
      <point x="203" y="57"/>
      <point x="264" y="56"/>
      <point x="297" y="56" type="curve" smooth="yes"/>
      <point x="307" y="56" type="line" smooth="yes"/>
      <point x="337" y="56"/>
      <point x="379" y="56"/>
      <point x="403" y="69" type="curve"/>
      <point x="458" y="28" type="line"/>
      <point x="458" y="4"/>
      <point x="419" y="1"/>
      <point x="338" y="1" type="curve" smooth="yes"/>
      <point x="281" y="1" type="line" smooth="yes"/>
      <point x="261" y="1"/>
      <point x="215" y="2"/>
      <point x="190" y="2" type="curve" smooth="yes"/>
      <point x="154" y="2"/>
      <point x="106" y="1"/>
      <point x="62" y="0" type="curve"/>
      <point x="92" y="66" type="line"/>
      <point x="98" y="65"/>
      <point x="109" y="64"/>
      <point x="122" y="63" type="curve"/>
      <point x="164" y="98"/>
      <point x="182" y="192"/>
      <point x="186" y="266" type="curve"/>
      <point x="157" y="265"/>
      <point x="141" y="263"/>
      <point x="112" y="260" type="curve"/>
    </contour>
  </outline>
</glyph>
<glyph name="currency" format="1">
  <advance width="431"/>
  <unicode hex="00A4"/>
  <outline>
    <contour>
      <point x="54" y="289" type="curve" smooth="yes"/>
      <point x="54" y="320"/>
      <point x="62" y="348"/>
      <point x="78" y="372" type="curve"/>
      <point x="57" y="397"/>
      <point x="41" y="420"/>
      <point x="30" y="436" type="curve"/>
      <point x="76" y="461" type="line"/>
      <point x="81" y="453"/>
      <point x="97" y="435"/>
      <point x="116" y="413" type="curve"/>
      <point x="142" y="435"/>
      <point x="175" y="447"/>
      <point x="212" y="447" type="curve" smooth="yes"/>
      <point x="247" y="447"/>
      <point x="280" y="436"/>
      <point x="304" y="415" type="curve"/>
      <point x="306" y="412" type="line"/>
      <point x="347" y="461" type="line"/>
      <point x="394" y="436" type="line"/>
      <point x="382" y="420"/>
      <point x="365" y="397"/>
      <point x="344" y="372" type="curve"/>
      <point x="360" y="348"/>
      <point x="367" y="320"/>
      <point x="367" y="289" type="curve" smooth="yes"/>
      <point x="367" y="258"/>
      <point x="359" y="230"/>
      <point x="342" y="204" type="curve"/>
      <point x="363" y="178"/>
      <point x="381" y="154"/>
      <point x="394" y="137" type="curve"/>
      <point x="347" y="112" type="line"/>
      <point x="341" y="120"/>
      <point x="324" y="139"/>
      <point x="303" y="164" type="curve"/>
      <point x="279" y="145"/>
      <point x="247" y="134"/>
      <point x="212" y="134" type="curve" smooth="yes"/>
      <point x="177" y="134"/>
      <point x="145" y="144"/>
      <point x="120" y="164" type="curve"/>
      <point x="98" y="139"/>
      <point x="82" y="120"/>
      <point x="76" y="112" type="curve"/>
      <point x="30" y="137" type="line"/>
      <point x="41" y="154"/>
      <point x="60" y="178"/>
      <point x="81" y="204" type="curve"/>
      <point x="64" y="230"/>
      <point x="54" y="258"/>
    </contour>
    <contour>
      <point x="103" y="289" type="curve" smooth="yes"/>
      <point x="103" y="230"/>
      <point x="152" y="183"/>
      <point x="212" y="183" type="curve" smooth="yes"/>
      <point x="271" y="183"/>
      <point x="319" y="230"/>
      <point x="319" y="289" type="curve" smooth="yes"/>
      <point x="319" y="350"/>
      <point x="271" y="398"/>
      <point x="212" y="398" type="curve" smooth="yes"/>
      <point x="152" y="398"/>
      <point x="103" y="350"/>
    </contour>
  </outline>
</glyph>
<glyph name="yen" format="1">
  <advance width="537"/>
  <unicode hex="00A5"/>
  <outline>
    <contour>
      <point x="82" y="169" type="line"/>
      <point x="239" y="169" type="line"/>
      <point x="239" y="190"/>
      <point x="240" y="212"/>
      <point x="240" y="234" type="curve"/>
      <point x="188" y="233"/>
      <point x="113" y="230"/>
      <point x="81" y="227" type="curve"/>
      <point x="98" y="285" type="line"/>
      <point x="235" y="285" type="line"/>
      <point x="210" y="338"/>
      <point x="174" y="410"/>
      <point x="155" y="442" type="curve" smooth="yes"/>
      <point x="131" y="482"/>
      <point x="79" y="559"/>
      <point x="53" y="572" type="curve"/>
      <point x="116" y="624" type="line"/>
      <point x="120" y="625"/>
      <point x="122" y="626"/>
      <point x="125" y="626" type="curve" smooth="yes"/>
      <point x="162" y="626"/>
      <point x="190" y="545"/>
      <point x="298" y="361" type="curve"/>
      <point x="320" y="400"/>
      <point x="344" y="445"/>
      <point x="355" y="474" type="curve"/>
      <point x="375" y="511"/>
      <point x="407" y="585"/>
      <point x="407" y="614" type="curve" smooth="yes"/>
      <point x="407" y="617"/>
      <point x="407" y="619"/>
      <point x="406" y="621" type="curve"/>
      <point x="460" y="626" type="line"/>
      <point x="468" y="624"/>
      <point x="472" y="618"/>
      <point x="472" y="608" type="curve" smooth="yes"/>
      <point x="472" y="568"/>
      <point x="410" y="465"/>
      <point x="326" y="285" type="curve"/>
      <point x="465" y="285" type="line"/>
      <point x="490" y="288" type="line"/>
      <point x="456" y="234" type="line"/>
      <point x="433" y="235"/>
      <point x="417" y="236"/>
      <point x="401" y="236" type="curve" smooth="yes"/>
      <point x="380" y="236"/>
      <point x="359" y="235"/>
      <point x="326" y="235" type="curve"/>
      <point x="326" y="187" type="line"/>
      <point x="325" y="183"/>
      <point x="325" y="181"/>
      <point x="325" y="180" type="curve" smooth="yes"/>
      <point x="325" y="169" type="line"/>
      <point x="474" y="169" type="line"/>
      <point x="440" y="118" type="line"/>
      <point x="410" y="119"/>
      <point x="385" y="120"/>
      <point x="359" y="120" type="curve" smooth="yes"/>
      <point x="348" y="120"/>
      <point x="336" y="120"/>
      <point x="325" y="119" type="curve"/>
      <point x="325" y="71"/>
      <point x="325" y="22"/>
      <point x="326" y="2" type="curve"/>
      <point x="229" y="2" type="line"/>
      <point x="230" y="42"/>
      <point x="234" y="80"/>
      <point x="236" y="116" type="curve"/>
      <point x="233" y="117"/>
      <point x="230" y="117"/>
      <point x="228" y="118" type="curve"/>
      <point x="175" y="117"/>
      <point x="98" y="115"/>
      <point x="65" y="112" type="curve"/>
    </contour>
  </outline>
</glyph>
<glyph name="brokenbar" format="1">
  <advance width="202"/>
  <unicode hex="00A6"/>
  <outline>
    <contour>
      <point x="77" y="-234" type="line"/>
      <point x="82" y="-200"/>
      <point x="82" y="-95"/>
      <point x="82" y="-43" type="curve" smooth="yes"/>
      <point x="82" y="158" type="line"/>
      <point x="132" y="158" type="line"/>
      <point x="133" y="155"/>
      <point x="133" y="150"/>
      <point x="133" y="142" type="curve" smooth="yes"/>
      <point x="133" y="107"/>
      <point x="129" y="26"/>
      <point x="129" y="-103" type="curve" smooth="yes"/>
      <point x="129" y="-129"/>
      <point x="130" y="-158"/>
      <point x="130" y="-189" type="curve"/>
      <point x="130" y="-239" type="line"/>
    </contour>
    <contour>
      <point x="78" y="315" type="line"/>
      <point x="81" y="340"/>
      <point x="82" y="425"/>
      <point x="82" y="487" type="curve" smooth="yes"/>
      <point x="82" y="539" type="line" smooth="yes"/>
      <point x="82" y="578"/>
      <point x="79" y="672"/>
      <point x="69" y="690" type="curve"/>
      <point x="112" y="714" type="line"/>
      <point x="131" y="709"/>
      <point x="130" y="554"/>
      <point x="131" y="310" type="curve"/>
    </contour>
  </outline>
</glyph>
<glyph name="section" format="1">
  <advance width="420"/>
  <unicode hex="00A7"/>
  <outline>
    <contour>
      <point x="58" y="-21" type="curve"/>
      <point x="55" y="-16"/>
      <point x="53" y="-7"/>
      <point x="53" y="6" type="curve" smooth="yes"/>
      <point x="53" y="27"/>
      <point x="59" y="57"/>
      <point x="72" y="85" type="curve"/>
      <point x="97" y="77" type="line"/>
      <point x="93" y="70"/>
      <point x="92" y="62"/>
      <point x="92" y="56" type="curve" smooth="yes"/>
      <point x="92" y="43"/>
      <point x="98" y="32"/>
      <point x="107" y="24" type="curve"/>
      <point x="127" y="2"/>
      <point x="162" y="-9"/>
      <point x="201" y="-9" type="curve" smooth="yes"/>
      <point x="231" y="-9"/>
      <point x="257" y="2"/>
      <point x="265" y="32" type="curve"/>
      <point x="233" y="93"/>
      <point x="70" y="121"/>
      <point x="64" y="158" type="curve" smooth="yes"/>
      <point x="63" y="161"/>
      <point x="63" y="163"/>
      <point x="63" y="166" type="curve" smooth="yes"/>
      <point x="63" y="217"/>
      <point x="128" y="312"/>
      <point x="171" y="340" type="curve"/>
      <point x="118" y="363"/>
      <point x="64" y="380"/>
      <point x="64" y="401" type="curve"/>
      <point x="64" y="404" type="line"/>
      <point x="75" y="442"/>
      <point x="167" y="557"/>
      <point x="208" y="557" type="curve" smooth="yes"/>
      <point x="212" y="557" type="line" smooth="yes"/>
      <point x="253" y="550"/>
      <point x="320" y="518"/>
      <point x="320" y="514" type="curve"/>
      <point x="320" y="508" type="line"/>
      <point x="320" y="476"/>
      <point x="313" y="440"/>
      <point x="300" y="412" type="curve"/>
      <point x="276" y="420" type="line"/>
      <point x="278" y="426"/>
      <point x="280" y="434"/>
      <point x="280" y="441" type="curve" smooth="yes"/>
      <point x="280" y="476"/>
      <point x="229" y="496"/>
      <point x="202" y="496" type="curve" smooth="yes"/>
      <point x="176" y="496"/>
      <point x="153" y="483"/>
      <point x="144" y="449" type="curve"/>
      <point x="144" y="449"/>
      <point x="356" y="354"/>
      <point x="356" y="316" type="curve" smooth="yes"/>
      <point x="348" y="287"/>
      <point x="297" y="196"/>
      <point x="254" y="148" type="curve"/>
      <point x="306" y="121"/>
      <point x="356" y="89"/>
      <point x="356" y="70" type="curve" smooth="yes"/>
      <point x="346" y="32"/>
      <point x="230" y="-78"/>
      <point x="189" y="-78" type="curve" smooth="yes"/>
      <point x="187" y="-78"/>
      <point x="185" y="-77"/>
      <point x="184" y="-77" type="curve"/>
      <point x="141" y="-71"/>
      <point x="58" y="-27"/>
    </contour>
    <contour>
      <point x="265" y="278" type="line"/>
      <point x="254" y="297"/>
      <point x="230" y="313"/>
      <point x="201" y="327" type="curve"/>
      <point x="175" y="298"/>
      <point x="143" y="239"/>
      <point x="143" y="210" type="curve" smooth="yes"/>
      <point x="143" y="207"/>
      <point x="143" y="205"/>
      <point x="144" y="203" type="curve"/>
      <point x="144" y="203"/>
      <point x="179" y="188"/>
      <point x="221" y="166" type="curve"/>
      <point x="241" y="184"/>
      <point x="255" y="239"/>
      <point x="262" y="269" type="curve"/>
    </contour>
  </outline>
</glyph>
<glyph name="copyright" format="1">
  <advance width="585"/>
  <unicode hex="00A9"/>
  <outline>
    <contour>
      <point x="401" y="368" type="curve"/>
      <point x="400" y="364"/>
      <point x="377" y="328"/>
      <point x="364" y="319" type="curve"/>
      <point x="347" y="344"/>
      <point x="303" y="371"/>
      <point x="268" y="371" type="curve" smooth="yes"/>
      <point x="249" y="371"/>
      <point x="233" y="362"/>
      <point x="227" y="339" type="curve"/>
      <point x="225" y="326"/>
      <point x="225" y="313"/>
      <point x="225" y="301" type="curve" smooth="yes"/>
      <point x="225" y="207"/>
      <point x="276" y="166"/>
      <point x="327" y="166" type="curve" smooth="yes"/>
      <point x="356" y="166"/>
      <point x="385" y="179"/>
      <point x="405" y="201" type="curve"/>
      <point x="421" y="184" type="line"/>
      <point x="396" y="155"/>
      <point x="305" y="98"/>
      <point x="268" y="97" type="curve"/>
      <point x="198" y="98"/>
      <point x="166" y="189"/>
      <point x="166" y="257" type="curve" smooth="yes"/>
      <point x="166" y="272"/>
      <point x="167" y="287"/>
      <point x="171" y="298" type="curve" smooth="yes"/>
      <point x="179" y="332"/>
      <point x="262" y="444"/>
      <point x="298" y="444" type="curve"/>
      <point x="319" y="440"/>
      <point x="398" y="389"/>
    </contour>
    <contour>
      <point x="29" y="263" type="curve" smooth="yes"/>
      <point x="29" y="409"/>
      <point x="147" y="527"/>
      <point x="292" y="527" type="curve" smooth="yes"/>
      <point x="438" y="527"/>
      <point x="556" y="409"/>
      <point x="556" y="263" type="curve" smooth="yes"/>
      <point x="556" y="118"/>
      <point x="438" y="0"/>
      <point x="292" y="0" type="curve" smooth="yes"/>
      <point x="147" y="0"/>
      <point x="29" y="118"/>
    </contour>
    <contour>
      <point x="86" y="263" type="curve" smooth="yes"/>
      <point x="86" y="150"/>
      <point x="179" y="57"/>
      <point x="292" y="57" type="curve" smooth="yes"/>
      <point x="406" y="57"/>
      <point x="498" y="150"/>
      <point x="498" y="263" type="curve" smooth="yes"/>
      <point x="498" y="377"/>
      <point x="406" y="469"/>
      <point x="292" y="469" type="curve" smooth="yes"/>
      <point x="179" y="469"/>
      <point x="86" y="377"/>
    </contour>
  </outline>
</glyph>
<glyph name="ordfeminine" format="1">
  <advance width="344"/>
  <unicode hex="00AA"/>
  <outline>
    <contour>
      <point x="135" y="356" type="curve" smooth="yes"/>
      <point x="93" y="360"/>
      <point x="66" y="419"/>
      <point x="66" y="426" type="curve"/>
      <point x="70" y="430"/>
      <point x="91" y="512"/>
      <point x="174" y="512" type="curve" smooth="yes"/>
      <point x="180" y="512"/>
      <point x="186" y="512"/>
      <point x="193" y="511" type="curve"/>
      <point x="193" y="519" type="line"/>
      <point x="193" y="575"/>
      <point x="169" y="588"/>
      <point x="143" y="588" type="curve" smooth="yes"/>
      <point x="130" y="588"/>
      <point x="117" y="585"/>
      <point x="107" y="582" type="curve"/>
      <point x="98" y="580" type="line"/>
      <point x="94" y="587" type="line"/>
      <point x="118" y="612"/>
      <point x="148" y="638"/>
      <point x="161" y="638" type="curve" smooth="yes"/>
      <point x="185" y="635"/>
      <point x="241" y="597"/>
      <point x="248" y="567" type="curve" smooth="yes"/>
      <point x="249" y="565"/>
      <point x="249" y="562"/>
      <point x="249" y="557" type="curve" smooth="yes"/>
      <point x="249" y="543"/>
      <point x="247" y="522"/>
      <point x="247" y="508" type="curve"/>
      <point x="246" y="501"/>
      <point x="246" y="494"/>
      <point x="246" y="488" type="curve" smooth="yes"/>
      <point x="246" y="401"/>
      <point x="295" y="403"/>
      <point x="294" y="394" type="curve"/>
      <point x="294" y="394"/>
      <point x="284" y="369"/>
      <point x="252" y="349" type="curve"/>
      <point x="228" y="360"/>
      <point x="207" y="385"/>
      <point x="198" y="407" type="curve"/>
      <point x="175" y="380"/>
      <point x="148" y="356"/>
    </contour>
    <contour>
      <point x="192" y="422" type="curve"/>
      <point x="193" y="422"/>
      <point x="194" y="445"/>
      <point x="194" y="464" type="curve" smooth="yes"/>
      <point x="194" y="473"/>
      <point x="194" y="481"/>
      <point x="193" y="486" type="curve"/>
      <point x="184" y="487"/>
      <point x="176" y="488"/>
      <point x="170" y="488" type="curve" smooth="yes"/>
      <point x="132" y="488"/>
      <point x="121" y="473"/>
      <point x="121" y="473" type="curve"/>
      <point x="121" y="450"/>
      <point x="141" y="417"/>
      <point x="171" y="417" type="curve" smooth="yes"/>
      <point x="177" y="417"/>
      <point x="184" y="418"/>
    </contour>
    <contour>
      <point x="79" y="317" type="line"/>
      <point x="157" y="317" type="line" smooth="yes"/>
      <point x="193" y="317"/>
      <point x="230" y="318"/>
      <point x="266" y="319" type="curve"/>
      <point x="303" y="319" type="line"/>
      <point x="273" y="276" type="line"/>
      <point x="262" y="276" type="line"/>
      <point x="247" y="276"/>
      <point x="239" y="279"/>
      <point x="221" y="279" type="curve" smooth="yes"/>
      <point x="171" y="278"/>
      <point x="103" y="276"/>
      <point x="66" y="271" type="curve"/>
    </contour>
  </outline>
</glyph>
<glyph name="guillemotleft" format="1">
  <advance width="403"/>
  <unicode hex="00AB"/>
  <outline>
    <contour>
      <point x="63" y="193" type="line"/>
      <point x="78" y="206"/>
      <point x="123" y="263"/>
      <point x="141" y="287" type="curve" smooth="yes"/>
      <point x="156" y="305"/>
      <point x="171" y="325"/>
      <point x="172" y="337" type="curve"/>
      <point x="236" y="340" type="line"/>
      <point x="238" y="339"/>
      <point x="239" y="337"/>
      <point x="239" y="335" type="curve" smooth="yes"/>
      <point x="239" y="317"/>
      <point x="198" y="269"/>
      <point x="136" y="191" type="curve"/>
      <point x="198" y="113"/>
      <point x="239" y="66"/>
      <point x="239" y="48" type="curve" smooth="yes"/>
      <point x="239" y="45"/>
      <point x="238" y="43"/>
      <point x="236" y="42" type="curve"/>
      <point x="172" y="45" type="line"/>
      <point x="171" y="57"/>
      <point x="156" y="77"/>
      <point x="141" y="95" type="curve" smooth="yes"/>
      <point x="123" y="119"/>
      <point x="78" y="176"/>
      <point x="63" y="189" type="curve"/>
    </contour>
    <contour>
      <point x="227" y="193" type="line"/>
      <point x="242" y="206"/>
      <point x="287" y="263"/>
      <point x="305" y="287" type="curve" smooth="yes"/>
      <point x="320" y="305"/>
      <point x="335" y="325"/>
      <point x="336" y="337" type="curve"/>
      <point x="400" y="340" type="line"/>
      <point x="402" y="339"/>
      <point x="403" y="337"/>
      <point x="403" y="335" type="curve" smooth="yes"/>
      <point x="403" y="317"/>
      <point x="362" y="269"/>
      <point x="300" y="191" type="curve"/>
      <point x="362" y="113"/>
      <point x="403" y="66"/>
      <point x="403" y="48" type="curve" smooth="yes"/>
      <point x="403" y="45"/>
      <point x="402" y="43"/>
      <point x="400" y="42" type="curve"/>
      <point x="336" y="45" type="line"/>
      <point x="335" y="57"/>
      <point x="320" y="77"/>
      <point x="305" y="95" type="curve" smooth="yes"/>
      <point x="287" y="119"/>
      <point x="242" y="176"/>
      <point x="227" y="189" type="curve"/>
    </contour>
  </outline>
</glyph>
<glyph name="uni00AD" format="1">
  <advance width="238"/>
  <unicode hex="00AD"/>
  <outline>
    <contour>
      <point x="221" y="150" type="line"/>
      <point x="203" y="152"/>
      <point x="143" y="152"/>
      <point x="115" y="153" type="curve"/>
      <point x="92" y="153"/>
      <point x="65" y="153"/>
      <point x="53" y="147" type="curve"/>
      <point x="14" y="194" type="line"/>
      <point x="14" y="205"/>
      <point x="34" y="207"/>
      <point x="76" y="207" type="curve" smooth="yes"/>
      <point x="111" y="207"/>
      <point x="160" y="206"/>
      <point x="222" y="206" type="curve"/>
    </contour>
  </outline>
</glyph>
<glyph name="registered" format="1">
  <advance width="443"/>
  <unicode hex="00AE"/>
  <outline>
    <contour>
      <point x="29" y="449" type="curve" smooth="yes"/>
      <point x="29" y="555"/>
      <point x="116" y="642"/>
      <point x="221" y="642" type="curve" smooth="yes"/>
      <point x="327" y="642"/>
      <point x="414" y="555"/>
      <point x="414" y="449" type="curve" smooth="yes"/>
      <point x="414" y="344"/>
      <point x="327" y="257"/>
      <point x="221" y="257" type="curve" smooth="yes"/>
      <point x="116" y="257"/>
      <point x="29" y="344"/>
    </contour>
    <contour>
      <point x="71" y="449" type="curve" smooth="yes"/>
      <point x="71" y="367"/>
      <point x="139" y="298"/>
      <point x="221" y="298" type="curve" smooth="yes"/>
      <point x="304" y="298"/>
      <point x="371" y="367"/>
      <point x="371" y="449" type="curve" smooth="yes"/>
      <point x="371" y="532"/>
      <point x="304" y="599"/>
      <point x="221" y="599" type="curve" smooth="yes"/>
      <point x="139" y="599"/>
      <point x="71" y="532"/>
    </contour>
    <contour>
      <point x="157" y="499" type="line"/>
      <point x="157" y="512"/>
      <point x="157" y="524"/>
      <point x="153" y="535" type="curve" smooth="yes"/>
      <point x="142" y="563" type="line"/>
      <point x="247" y="563" type="line"/>
      <point x="285" y="560"/>
      <point x="298" y="533"/>
      <point x="298" y="510" type="curve" smooth="yes"/>
      <point x="298" y="481"/>
      <point x="276" y="457"/>
      <point x="255" y="445" type="curve"/>
      <point x="284" y="412" type="line" smooth="yes"/>
      <point x="304" y="387"/>
      <point x="318" y="367"/>
      <point x="318" y="355" type="curve" smooth="yes"/>
      <point x="318" y="352"/>
      <point x="317" y="348"/>
      <point x="314" y="346" type="curve"/>
      <point x="283" y="346" type="line"/>
      <point x="282" y="354"/>
      <point x="271" y="372"/>
      <point x="263" y="382" type="curve" smooth="yes"/>
      <point x="248" y="402"/>
      <point x="231" y="422"/>
      <point x="218" y="437" type="curve"/>
      <point x="194" y="437" type="line"/>
      <point x="194" y="347" type="line"/>
      <point x="152" y="347" type="line"/>
      <point x="155" y="358"/>
      <point x="157" y="408"/>
      <point x="157" y="447" type="curve"/>
    </contour>
    <contour>
      <point x="194" y="460" type="line"/>
      <point x="202" y="459"/>
      <point x="211" y="458"/>
      <point x="217" y="458" type="curve" smooth="yes"/>
      <point x="252" y="458"/>
      <point x="262" y="470"/>
      <point x="262" y="496" type="curve"/>
      <point x="262" y="526"/>
      <point x="247" y="540"/>
      <point x="221" y="540" type="curve" smooth="yes"/>
      <point x="212" y="540"/>
      <point x="202" y="540"/>
      <point x="194" y="539" type="curve" smooth="yes"/>
      <point x="191" y="539" type="line"/>
      <point x="193" y="522"/>
      <point x="194" y="497"/>
      <point x="194" y="472" type="curve" smooth="yes"/>
    </contour>
  </outline>
</glyph>
<glyph name="macron" format="1">
  <advance width="373"/>
  <unicode hex="00AF"/>
  <outline>
    <contour>
      <point x="279" y="462" type="line"/>
      <point x="261" y="463"/>
      <point x="201" y="463"/>
      <point x="172" y="465" type="curve" smooth="yes"/>
      <point x="149" y="465"/>
      <point x="122" y="465"/>
      <point x="111" y="458" type="curve"/>
      <point x="71" y="506" type="line"/>
      <point x="71" y="517"/>
      <point x="92" y="519"/>
      <point x="134" y="519" type="curve" smooth="yes"/>
      <point x="168" y="519"/>
      <point x="217" y="517"/>
      <point x="280" y="517" type="curve"/>
    </contour>
    <contour>
      <point x="183" y="368" type="move" name="_top"/>
    </contour>
  </outline>
</glyph>
<glyph name="degree" format="1">
  <advance width="239"/>
  <unicode hex="00B0"/>
  <outline>
    <contour>
      <point x="29" y="435" type="curve" smooth="yes"/>
      <point x="29" y="485"/>
      <point x="71" y="527"/>
      <point x="121" y="527" type="curve" smooth="yes"/>
      <point x="172" y="527"/>
      <point x="214" y="485"/>
      <point x="214" y="435" type="curve" smooth="yes"/>
      <point x="214" y="384"/>
      <point x="172" y="342"/>
      <point x="121" y="342" type="curve" smooth="yes"/>
      <point x="71" y="342"/>
      <point x="29" y="384"/>
    </contour>
    <contour>
      <point x="60" y="435" type="curve" smooth="yes"/>
      <point x="60" y="400"/>
      <point x="87" y="373"/>
      <point x="121" y="373" type="curve" smooth="yes"/>
      <point x="156" y="373"/>
      <point x="183" y="400"/>
      <point x="183" y="435" type="curve" smooth="yes"/>
      <point x="183" y="469"/>
      <point x="156" y="496"/>
      <point x="121" y="496" type="curve" smooth="yes"/>
      <point x="87" y="496"/>
      <point x="60" y="469"/>
    </contour>
  </outline>
</glyph>
<glyph name="threesuperior" format="1">
  <advance width="262"/>
  <unicode hex="00B3"/>
  <outline>
    <contour>
      <point x="48" y="602" type="curve"/>
      <point x="48" y="608"/>
      <point x="81" y="649"/>
      <point x="101" y="656" type="curve"/>
      <point x="102" y="657"/>
      <point x="104" y="657"/>
      <point x="111" y="657" type="curve" smooth="yes"/>
      <point x="136" y="657"/>
      <point x="200" y="597"/>
      <point x="207" y="579" type="curve" smooth="yes"/>
      <point x="213" y="567"/>
      <point x="215" y="553"/>
      <point x="215" y="539" type="curve" smooth="yes"/>
      <point x="215" y="513"/>
      <point x="205" y="486"/>
      <point x="181" y="472" type="curve"/>
      <point x="219" y="444"/>
      <point x="245" y="407"/>
      <point x="245" y="381" type="curve" smooth="yes"/>
      <point x="245" y="337"/>
      <point x="184" y="289"/>
      <point x="136" y="289" type="curve" smooth="yes"/>
      <point x="89" y="289"/>
      <point x="28" y="289"/>
      <point x="28" y="338" type="curve" smooth="yes"/>
      <point x="28" y="344"/>
      <point x="29" y="349"/>
      <point x="30" y="358" type="curve"/>
      <point x="33" y="358"/>
      <point x="73" y="357"/>
      <point x="89" y="348" type="curve"/>
      <point x="89" y="331"/>
      <point x="92" y="311"/>
      <point x="107" y="311" type="curve" smooth="yes"/>
      <point x="157" y="311"/>
      <point x="177" y="379"/>
      <point x="177" y="394" type="curve" smooth="yes"/>
      <point x="177" y="429"/>
      <point x="165" y="451"/>
      <point x="148" y="464" type="curve"/>
      <point x="134" y="464"/>
      <point x="106" y="467"/>
      <point x="86" y="477" type="curve"/>
      <point x="92" y="497" type="line"/>
      <point x="106" y="489"/>
      <point x="113" y="485"/>
      <point x="116" y="485" type="curve" smooth="yes"/>
      <point x="139" y="485"/>
      <point x="155" y="515"/>
      <point x="155" y="555" type="curve" smooth="yes"/>
      <point x="155" y="567"/>
      <point x="153" y="581"/>
      <point x="148" y="593" type="curve"/>
      <point x="143" y="605"/>
      <point x="139" y="610"/>
      <point x="134" y="610" type="curve" smooth="yes"/>
      <point x="118" y="610"/>
      <point x="98" y="589"/>
      <point x="88" y="567" type="curve"/>
      <point x="73" y="576"/>
      <point x="49" y="599"/>
    </contour>
  </outline>
</glyph>
<glyph name="acute" format="1">
  <advance width="328"/>
  <unicode hex="00B4"/>
  <outline>
    <contour>
      <point x="246" y="498" type="line"/>
      <point x="160" y="430"/>
      <point x="135" y="404"/>
      <point x="123" y="404" type="curve" smooth="yes"/>
      <point x="120" y="404"/>
      <point x="117" y="406"/>
      <point x="115" y="409" type="curve"/>
      <point x="118" y="473" type="line"/>
      <point x="130" y="475"/>
      <point x="150" y="490"/>
      <point x="168" y="504" type="curve" smooth="yes"/>
      <point x="191" y="522"/>
      <point x="200" y="530"/>
      <point x="213" y="544" type="curve"/>
    </contour>
    <contour>
      <point x="183" y="318" type="move" name="_top"/>
    </contour>
  </outline>
</glyph>
<glyph name="uni00B5" format="1">
  <advance width="399"/>
  <unicode hex="00B5"/>
  <outline>
    <contour>
      <point x="43" y="-254" type="line"/>
      <point x="45" y="-226"/>
      <point x="51" y="40"/>
      <point x="51" y="156" type="curve"/>
      <point x="51" y="239" type="line"/>
      <point x="51" y="276"/>
      <point x="51" y="348"/>
      <point x="49" y="360" type="curve"/>
      <point x="130" y="365" type="line"/>
      <point x="125" y="335"/>
      <point x="124" y="258"/>
      <point x="124" y="226" type="curve" smooth="yes"/>
      <point x="124" y="203"/>
      <point x="122" y="182"/>
      <point x="122" y="162" type="curve" smooth="yes"/>
      <point x="122" y="113"/>
      <point x="131" y="76"/>
      <point x="198" y="73" type="curve"/>
      <point x="215" y="73"/>
      <point x="235" y="84"/>
      <point x="252" y="96" type="curve"/>
      <point x="252" y="136"/>
      <point x="253" y="188"/>
      <point x="253" y="253" type="curve" smooth="yes"/>
      <point x="253" y="285"/>
      <point x="253" y="321"/>
      <point x="252" y="360" type="curve"/>
      <point x="335" y="373" type="line"/>
      <point x="330" y="339"/>
      <point x="324" y="231"/>
      <point x="324" y="181" type="curve" smooth="yes"/>
      <point x="324" y="140"/>
      <point x="329" y="19"/>
      <point x="339" y="0" type="curve"/>
      <point x="276" y="-3" type="line"/>
      <point x="260" y="-3"/>
      <point x="255" y="18"/>
      <point x="253" y="61" type="curve"/>
      <point x="221" y="28"/>
      <point x="184" y="-3"/>
      <point x="159" y="-3" type="curve" smooth="yes"/>
      <point x="142" y="-3"/>
      <point x="123" y="6"/>
      <point x="107" y="18" type="curve"/>
      <point x="110" y="-86"/>
      <point x="120" y="-165"/>
      <point x="122" y="-253" type="curve"/>
    </contour>
  </outline>
</glyph>
<glyph name="periodcentered" format="1">
  <advance width="175"/>
  <unicode hex="00B7"/>
  <outline>
    <contour>
      <point x="90" y="330" type="curve" smooth="yes"/>
      <point x="131" y="330"/>
      <point x="142" y="294"/>
      <point x="142" y="270" type="curve" smooth="yes"/>
      <point x="142" y="239"/>
      <point x="118" y="212"/>
      <point x="87" y="212" type="curve" smooth="yes"/>
      <point x="53" y="212"/>
      <point x="32" y="239"/>
      <point x="32" y="270" type="curve" smooth="yes"/>
      <point x="32" y="276"/>
      <point x="32" y="281"/>
      <point x="34" y="286" type="curve" smooth="yes"/>
      <point x="40" y="313"/>
      <point x="66" y="330"/>
    </contour>
  </outline>
</glyph>
<glyph name="cedilla" format="1">
  <advance width="134"/>
  <unicode hex="00B8"/>
  <outline>
    <contour>
      <point x="57" y="-56" type="curve"/>
      <point x="57" y="-55"/>
      <point x="60" y="-55"/>
      <point x="65" y="-55" type="curve"/>
      <point x="77" y="-43"/>
      <point x="98" y="-22"/>
      <point x="115" y="-3" type="curve" smooth="yes"/>
      <point x="121" y="4"/>
      <point x="122" y="5"/>
      <point x="122" y="5" type="curve"/>
      <point x="121" y="6"/>
      <point x="121" y="7"/>
      <point x="121" y="7" type="curve" smooth="yes"/>
      <point x="121" y="10"/>
      <point x="123" y="11"/>
      <point x="123" y="13" type="curve"/>
      <point x="183" y="31" type="line"/>
      <point x="187" y="27"/>
      <point x="189" y="25"/>
      <point x="189" y="22" type="curve" smooth="yes"/>
      <point x="189" y="17"/>
      <point x="185" y="13"/>
      <point x="178" y="6" type="curve"/>
      <point x="166" y="-6" type="line"/>
      <point x="155" y="-18"/>
      <point x="134" y="-39"/>
      <point x="112" y="-63" type="curve"/>
      <point x="124" y="-78"/>
      <point x="135" y="-120"/>
      <point x="136" y="-137" type="curve"/>
      <point x="130" y="-162"/>
      <point x="102" y="-198"/>
      <point x="71" y="-198" type="curve" smooth="yes"/>
      <point x="66" y="-198"/>
      <point x="61" y="-198"/>
      <point x="55" y="-195" type="curve"/>
      <point x="47" y="-192"/>
      <point x="7" y="-168"/>
      <point x="2" y="-153" type="curve"/>
      <point x="30" y="-130" type="line"/>
      <point x="37" y="-151"/>
      <point x="44" y="-163"/>
      <point x="49" y="-163" type="curve" smooth="yes"/>
      <point x="67" y="-163"/>
      <point x="90" y="-109"/>
      <point x="90" y="-97" type="curve" smooth="yes"/>
      <point x="90" y="-86"/>
      <point x="84" y="-81"/>
      <point x="78" y="-81" type="curve" smooth="yes"/>
      <point x="75" y="-81"/>
      <point x="71" y="-83"/>
      <point x="66" y="-85" type="curve"/>
      <point x="61" y="-78"/>
      <point x="57" y="-62"/>
    </contour>
    <contour>
      <point x="86" y="-6" type="move" name="_bottom"/>
    </contour>
  </outline>
</glyph>
<glyph name="ordmasculine" format="1">
  <advance width="344"/>
  <unicode hex="00BA"/>
  <outline>
    <contour>
      <point x="239" y="412" type="curve"/>
      <point x="246" y="426"/>
      <point x="253" y="438"/>
      <point x="253" y="456" type="curve" smooth="yes"/>
      <point x="253" y="520"/>
      <point x="239" y="585"/>
      <point x="173" y="585" type="curve" smooth="yes"/>
      <point x="161" y="585"/>
      <point x="152" y="576"/>
      <point x="138" y="567" type="curve"/>
      <point x="129" y="550"/>
      <point x="121" y="539"/>
      <point x="121" y="521" type="curve" smooth="yes"/>
      <point x="121" y="458"/>
      <point x="147" y="399"/>
      <point x="211" y="399" type="curve" smooth="yes"/>
      <point x="221" y="399"/>
      <point x="228" y="406"/>
    </contour>
    <contour>
      <point x="176" y="353" type="curve" smooth="yes"/>
      <point x="81" y="353"/>
      <point x="75" y="430"/>
      <point x="75" y="504" type="curve" smooth="yes"/>
      <point x="75" y="541"/>
      <point x="162" y="638"/>
      <point x="198" y="638" type="curve" smooth="yes"/>
      <point x="280" y="638"/>
      <point x="301" y="582"/>
      <point x="301" y="519" type="curve" smooth="yes"/>
      <point x="301" y="508"/>
      <point x="301" y="494"/>
      <point x="299" y="484" type="curve"/>
      <point x="297" y="447"/>
      <point x="212" y="353"/>
    </contour>
    <contour>
      <point x="79" y="317" type="line"/>
      <point x="157" y="317" type="line" smooth="yes"/>
      <point x="193" y="317"/>
      <point x="230" y="318"/>
      <point x="266" y="319" type="curve" smooth="yes"/>
      <point x="303" y="319" type="line"/>
      <point x="273" y="276" type="line"/>
      <point x="262" y="276" type="line"/>
      <point x="247" y="276"/>
      <point x="239" y="279"/>
      <point x="221" y="279" type="curve" smooth="yes"/>
      <point x="171" y="278"/>
      <point x="103" y="276"/>
      <point x="66" y="271" type="curve"/>
    </contour>
  </outline>
</glyph>
<glyph name="guillemotright" format="1">
  <advance width="445"/>
  <unicode hex="00BB"/>
  <outline>
    <contour>
      <point x="380" y="191" type="line"/>
      <point x="382" y="189" type="line"/>
      <point x="367" y="176"/>
      <point x="322" y="119"/>
      <point x="304" y="95" type="curve" smooth="yes"/>
      <point x="289" y="77"/>
      <point x="275" y="57"/>
      <point x="273" y="45" type="curve"/>
      <point x="209" y="42" type="line"/>
      <point x="207" y="43"/>
      <point x="207" y="45"/>
      <point x="207" y="48" type="curve" smooth="yes"/>
      <point x="207" y="66"/>
      <point x="248" y="113"/>
      <point x="309" y="191" type="curve"/>
      <point x="247" y="269"/>
      <point x="207" y="317"/>
      <point x="207" y="335" type="curve" smooth="yes"/>
      <point x="207" y="337"/>
      <point x="207" y="339"/>
      <point x="209" y="340" type="curve"/>
      <point x="273" y="337" type="line"/>
      <point x="275" y="325"/>
      <point x="289" y="305"/>
      <point x="304" y="287" type="curve" smooth="yes"/>
      <point x="322" y="263"/>
      <point x="367" y="206"/>
      <point x="382" y="193" type="curve"/>
    </contour>
    <contour>
      <point x="216" y="191" type="line"/>
      <point x="218" y="189" type="line"/>
      <point x="203" y="176"/>
      <point x="158" y="119"/>
      <point x="140" y="95" type="curve" smooth="yes"/>
      <point x="125" y="77"/>
      <point x="111" y="57"/>
      <point x="109" y="45" type="curve"/>
      <point x="45" y="42" type="line"/>
      <point x="43" y="43"/>
      <point x="43" y="45"/>
      <point x="43" y="48" type="curve" smooth="yes"/>
      <point x="43" y="66"/>
      <point x="84" y="113"/>
      <point x="145" y="191" type="curve"/>
      <point x="83" y="269"/>
      <point x="43" y="317"/>
      <point x="43" y="335" type="curve" smooth="yes"/>
      <point x="43" y="337"/>
      <point x="43" y="339"/>
      <point x="45" y="340" type="curve"/>
      <point x="109" y="337" type="line"/>
      <point x="111" y="325"/>
      <point x="125" y="305"/>
      <point x="140" y="287" type="curve" smooth="yes"/>
      <point x="158" y="263"/>
      <point x="203" y="206"/>
      <point x="218" y="193" type="curve"/>
    </contour>
  </outline>
</glyph>
<glyph name="onequarter" format="1">
  <advance width="662"/>
  <unicode hex="00BC"/>
  <outline>
    <contour>
      <point x="112" y="-9" type="line"/>
      <point x="132" y="20"/>
      <point x="338" y="430"/>
      <point x="361" y="476" type="curve"/>
      <point x="363" y="481" type="line"/>
      <point x="377" y="508"/>
      <point x="393" y="540"/>
      <point x="397" y="559" type="curve" smooth="yes"/>
      <point x="399" y="565"/>
      <point x="399" y="569"/>
      <point x="399" y="572" type="curve"/>
      <point x="480" y="632" type="line"/>
      <point x="485" y="631"/>
      <point x="488" y="625"/>
      <point x="488" y="616" type="curve" smooth="yes"/>
      <point x="488" y="610"/>
      <point x="487" y="604"/>
      <point x="485" y="595" type="curve"/>
      <point x="474" y="549"/>
      <point x="452" y="497"/>
      <point x="406" y="404" type="curve" smooth="yes"/>
      <point x="349" y="292" type="line" smooth="yes"/>
      <point x="333" y="259"/>
      <point x="315" y="228"/>
      <point x="299" y="197" type="curve"/>
      <point x="200" y="-2" type="line"/>
    </contour>
    <contour>
      <point x="496" y="8" type="line"/>
      <point x="498" y="21"/>
      <point x="501" y="92"/>
      <point x="502" y="134" type="curve"/>
      <point x="487" y="134" type="line" smooth="yes"/>
      <point x="477" y="134"/>
      <point x="467" y="133"/>
      <point x="457" y="133" type="curve" smooth="yes"/>
      <point x="430" y="133" type="line" smooth="yes"/>
      <point x="388" y="133"/>
      <point x="358" y="134"/>
      <point x="357" y="137" type="curve"/>
      <point x="382" y="160" type="line"/>
      <point x="403" y="178"/>
      <point x="450" y="269"/>
      <point x="460" y="296" type="curve"/>
      <point x="467" y="310"/>
      <point x="480" y="323"/>
      <point x="491" y="335" type="curve"/>
      <point x="494" y="338" type="line"/>
      <point x="531" y="365" type="line"/>
      <point x="553" y="365"/>
      <point x="556" y="294"/>
      <point x="556" y="210" type="curve" smooth="yes"/>
      <point x="556" y="166" type="line"/>
      <point x="576" y="167"/>
      <point x="594" y="169"/>
      <point x="598" y="170" type="curve"/>
      <point x="583" y="134" type="line"/>
      <point x="556" y="134" type="line"/>
      <point x="556" y="9" type="line"/>
    </contour>
    <contour>
      <point x="130" y="276" type="line"/>
      <point x="134" y="306"/>
      <point x="139" y="408"/>
      <point x="139" y="455" type="curve" smooth="yes"/>
      <point x="139" y="492"/>
      <point x="139" y="541"/>
      <point x="125" y="558" type="curve"/>
      <point x="121" y="558" type="line"/>
      <point x="121" y="558"/>
      <point x="102" y="554"/>
      <point x="89" y="551" type="curve" smooth="yes"/>
      <point x="75" y="548" type="line"/>
      <point x="71" y="558" type="line"/>
      <point x="90" y="579"/>
      <point x="147" y="626"/>
      <point x="177" y="627" type="curve"/>
      <point x="184" y="617" type="line" smooth="yes"/>
      <point x="193" y="605"/>
      <point x="195" y="569"/>
      <point x="195" y="514" type="curve" smooth="yes"/>
      <point x="195" y="372" type="line" smooth="yes"/>
      <point x="195" y="343"/>
      <point x="195" y="311"/>
      <point x="196" y="277" type="curve"/>
    </contour>
    <contour>
      <point x="503" y="162" type="line"/>
      <point x="503" y="179"/>
      <point x="501" y="234"/>
      <point x="499" y="278" type="curve"/>
      <point x="483" y="243"/>
      <point x="462" y="205"/>
      <point x="442" y="166" type="curve" smooth="yes"/>
      <point x="438" y="158" type="line"/>
    </contour>
  </outline>
</glyph>
<glyph name="onehalf" format="1">
  <advance width="674"/>
  <unicode hex="00BD"/>
  <outline>
    <contour>
      <point x="112" y="-9" type="line"/>
      <point x="132" y="20"/>
      <point x="338" y="430"/>
      <point x="361" y="476" type="curve" smooth="yes"/>
      <point x="363" y="481" type="line" smooth="yes"/>
      <point x="377" y="508"/>
      <point x="393" y="540"/>
      <point x="397" y="559" type="curve" smooth="yes"/>
      <point x="399" y="565"/>
      <point x="399" y="569"/>
      <point x="399" y="572" type="curve"/>
      <point x="480" y="632" type="line"/>
      <point x="485" y="631"/>
      <point x="488" y="625"/>
      <point x="488" y="616" type="curve" smooth="yes"/>
      <point x="488" y="610"/>
      <point x="487" y="604"/>
      <point x="485" y="595" type="curve" smooth="yes"/>
      <point x="474" y="549"/>
      <point x="452" y="497"/>
      <point x="406" y="404" type="curve" smooth="yes"/>
      <point x="349" y="292" type="line" smooth="yes"/>
      <point x="333" y="259"/>
      <point x="315" y="228"/>
      <point x="299" y="197" type="curve" smooth="yes"/>
      <point x="200" y="-2" type="line"/>
    </contour>
    <contour>
      <point x="478" y="356" type="line"/>
      <point x="515" y="356"/>
      <point x="585" y="282"/>
      <point x="585" y="244" type="curve" smooth="yes"/>
      <point x="585" y="238"/>
      <point x="583" y="232"/>
      <point x="582" y="225" type="curve"/>
      <point x="574" y="189"/>
      <point x="549" y="139"/>
      <point x="500" y="48" type="curve"/>
      <point x="503" y="48" type="line" smooth="yes"/>
      <point x="530" y="50"/>
      <point x="569" y="56"/>
      <point x="597" y="60" type="curve" smooth="yes"/>
      <point x="599" y="60"/>
      <point x="601" y="61"/>
      <point x="604" y="61" type="curve" smooth="yes"/>
      <point x="624" y="64" type="line"/>
      <point x="600" y="3" type="line"/>
      <point x="578" y="3"/>
      <point x="561" y="4"/>
      <point x="541" y="4" type="curve" smooth="yes"/>
      <point x="522" y="4"/>
      <point x="503" y="3"/>
      <point x="487" y="3" type="curve" smooth="yes"/>
      <point x="451" y="3" type="line" smooth="yes"/>
      <point x="413" y="3"/>
      <point x="391" y="5"/>
      <point x="391" y="16" type="curve"/>
      <point x="430" y="52" type="line"/>
      <point x="450" y="79"/>
      <point x="507" y="171"/>
      <point x="526" y="208" type="curve"/>
      <point x="535" y="226" type="line" smooth="yes"/>
      <point x="540" y="236"/>
      <point x="544" y="245"/>
      <point x="546" y="250" type="curve"/>
      <point x="536" y="269"/>
      <point x="520" y="295"/>
      <point x="503" y="295" type="curve" smooth="yes"/>
      <point x="471" y="295"/>
      <point x="437" y="252"/>
      <point x="426" y="223" type="curve"/>
      <point x="417" y="233"/>
      <point x="399" y="259"/>
      <point x="398" y="265" type="curve"/>
      <point x="395" y="265"/>
      <point x="395" y="266"/>
      <point x="395" y="266" type="curve" smooth="yes"/>
      <point x="395" y="274"/>
      <point x="438" y="351"/>
      <point x="474" y="356" type="curve"/>
    </contour>
    <contour>
      <point x="130" y="276" type="line"/>
      <point x="134" y="306"/>
      <point x="139" y="408"/>
      <point x="139" y="455" type="curve" smooth="yes"/>
      <point x="139" y="492"/>
      <point x="139" y="541"/>
      <point x="125" y="558" type="curve"/>
      <point x="121" y="558" type="line"/>
      <point x="121" y="558"/>
      <point x="102" y="554"/>
      <point x="89" y="551" type="curve" smooth="yes"/>
      <point x="75" y="548" type="line"/>
      <point x="71" y="558" type="line"/>
      <point x="90" y="579"/>
      <point x="147" y="626"/>
      <point x="177" y="627" type="curve"/>
      <point x="184" y="617" type="line" smooth="yes"/>
      <point x="193" y="605"/>
      <point x="195" y="569"/>
      <point x="195" y="514" type="curve" smooth="yes"/>
      <point x="195" y="372" type="line" smooth="yes"/>
      <point x="195" y="343"/>
      <point x="195" y="311"/>
      <point x="196" y="277" type="curve"/>
    </contour>
  </outline>
</glyph>
<glyph name="threequarters" format="1">
  <advance width="682"/>
  <unicode hex="00BE"/>
  <outline>
    <contour>
      <point x="144" y="-9" type="line"/>
      <point x="165" y="20"/>
      <point x="371" y="430"/>
      <point x="394" y="476" type="curve"/>
      <point x="396" y="481" type="line"/>
      <point x="410" y="508"/>
      <point x="426" y="540"/>
      <point x="430" y="559" type="curve" smooth="yes"/>
      <point x="431" y="565"/>
      <point x="431" y="569"/>
      <point x="431" y="572" type="curve"/>
      <point x="512" y="632" type="line"/>
      <point x="518" y="631"/>
      <point x="521" y="625"/>
      <point x="521" y="616" type="curve" smooth="yes"/>
      <point x="521" y="610"/>
      <point x="520" y="604"/>
      <point x="517" y="595" type="curve"/>
      <point x="507" y="549"/>
      <point x="485" y="497"/>
      <point x="439" y="404" type="curve" smooth="yes"/>
      <point x="382" y="292" type="line" smooth="yes"/>
      <point x="366" y="259"/>
      <point x="348" y="228"/>
      <point x="332" y="197" type="curve"/>
      <point x="233" y="-2" type="line"/>
    </contour>
    <contour>
      <point x="529" y="8" type="line"/>
      <point x="531" y="21"/>
      <point x="534" y="92"/>
      <point x="535" y="134" type="curve"/>
      <point x="520" y="134" type="line" smooth="yes"/>
      <point x="510" y="134"/>
      <point x="499" y="133"/>
      <point x="490" y="133" type="curve" smooth="yes"/>
      <point x="463" y="133" type="line" smooth="yes"/>
      <point x="421" y="133"/>
      <point x="390" y="134"/>
      <point x="389" y="137" type="curve"/>
      <point x="415" y="160" type="line"/>
      <point x="435" y="178"/>
      <point x="483" y="269"/>
      <point x="493" y="296" type="curve"/>
      <point x="499" y="310"/>
      <point x="512" y="323"/>
      <point x="524" y="335" type="curve"/>
      <point x="527" y="338" type="line"/>
      <point x="564" y="365" type="line"/>
      <point x="585" y="365"/>
      <point x="589" y="294"/>
      <point x="589" y="210" type="curve" smooth="yes"/>
      <point x="589" y="166" type="line"/>
      <point x="609" y="167"/>
      <point x="627" y="169"/>
      <point x="631" y="170" type="curve"/>
      <point x="616" y="134" type="line"/>
      <point x="589" y="134" type="line"/>
      <point x="589" y="9" type="line"/>
    </contour>
    <contour>
      <point x="61" y="570" type="curve"/>
      <point x="61" y="576"/>
      <point x="93" y="617"/>
      <point x="113" y="624" type="curve"/>
      <point x="114" y="625"/>
      <point x="116" y="625"/>
      <point x="123" y="625" type="curve" smooth="yes"/>
      <point x="148" y="625"/>
      <point x="212" y="565"/>
      <point x="220" y="547" type="curve" smooth="yes"/>
      <point x="225" y="535"/>
      <point x="227" y="521"/>
      <point x="227" y="507" type="curve" smooth="yes"/>
      <point x="227" y="481"/>
      <point x="217" y="454"/>
      <point x="194" y="440" type="curve"/>
      <point x="231" y="412"/>
      <point x="257" y="375"/>
      <point x="257" y="349" type="curve" smooth="yes"/>
      <point x="257" y="305"/>
      <point x="197" y="257"/>
      <point x="148" y="257" type="curve" smooth="yes"/>
      <point x="102" y="257"/>
      <point x="40" y="257"/>
      <point x="40" y="306" type="curve" smooth="yes"/>
      <point x="40" y="312"/>
      <point x="41" y="317"/>
      <point x="43" y="326" type="curve"/>
      <point x="45" y="326"/>
      <point x="85" y="325"/>
      <point x="101" y="317" type="curve"/>
      <point x="101" y="299"/>
      <point x="104" y="279"/>
      <point x="120" y="279" type="curve" smooth="yes"/>
      <point x="170" y="279"/>
      <point x="189" y="347"/>
      <point x="189" y="362" type="curve" smooth="yes"/>
      <point x="189" y="397"/>
      <point x="177" y="419"/>
      <point x="160" y="432" type="curve"/>
      <point x="146" y="432"/>
      <point x="118" y="435"/>
      <point x="98" y="445" type="curve"/>
      <point x="104" y="465" type="line"/>
      <point x="118" y="457"/>
      <point x="125" y="453"/>
      <point x="128" y="453" type="curve" smooth="yes"/>
      <point x="152" y="453"/>
      <point x="167" y="483"/>
      <point x="167" y="523" type="curve" smooth="yes"/>
      <point x="167" y="535"/>
      <point x="166" y="549"/>
      <point x="160" y="561" type="curve"/>
      <point x="156" y="573"/>
      <point x="151" y="578"/>
      <point x="146" y="578" type="curve" smooth="yes"/>
      <point x="130" y="578"/>
      <point x="110" y="557"/>
      <point x="100" y="535" type="curve"/>
      <point x="85" y="544"/>
      <point x="61" y="567"/>
    </contour>
    <contour>
      <point x="535" y="162" type="line"/>
      <point x="535" y="179"/>
      <point x="534" y="234"/>
      <point x="532" y="278" type="curve"/>
      <point x="516" y="243"/>
      <point x="495" y="205"/>
      <point x="475" y="166" type="curve" smooth="yes"/>
      <point x="471" y="158" type="line"/>
    </contour>
  </outline>
</glyph>
<glyph name="questiondown" format="1">
  <advance width="331"/>
  <unicode hex="00BF"/>
  <outline>
    <contour>
      <point x="164" y="218" type="line"/>
      <point x="157" y="171"/>
      <point x="150" y="144"/>
      <point x="128" y="82" type="curve"/>
      <point x="194" y="49"/>
      <point x="286" y="-46"/>
      <point x="286" y="-116" type="curve" smooth="yes"/>
      <point x="286" y="-194"/>
      <point x="179" y="-280"/>
      <point x="117" y="-280" type="curve" smooth="yes"/>
      <point x="57" y="-280"/>
      <point x="15" y="-278"/>
      <point x="15" y="-194" type="curve" smooth="yes"/>
      <point x="15" y="-183"/>
      <point x="16" y="-171"/>
      <point x="19" y="-157" type="curve"/>
      <point x="22" y="-157"/>
      <point x="81" y="-157"/>
      <point x="93" y="-166" type="curve"/>
      <point x="93" y="-199"/>
      <point x="105" y="-226"/>
      <point x="117" y="-232" type="curve" smooth="yes"/>
      <point x="125" y="-235"/>
      <point x="131" y="-237"/>
      <point x="138" y="-237" type="curve" smooth="yes"/>
      <point x="189" y="-237"/>
      <point x="191" y="-130"/>
      <point x="191" y="-95" type="curve"/>
      <point x="191" y="-89" type="line"/>
      <point x="191" y="-34"/>
      <point x="160" y="28"/>
      <point x="116" y="51" type="curve"/>
      <point x="71" y="61" type="line"/>
      <point x="89" y="120"/>
      <point x="84" y="179"/>
      <point x="89" y="198" type="curve"/>
    </contour>
    <contour>
      <point x="125" y="262" type="curve" smooth="yes"/>
      <point x="101" y="262"/>
      <point x="75" y="279"/>
      <point x="68" y="306" type="curve" smooth="yes"/>
      <point x="66" y="311"/>
      <point x="66" y="316"/>
      <point x="66" y="322" type="curve" smooth="yes"/>
      <point x="66" y="353"/>
      <point x="88" y="380"/>
      <point x="121" y="380" type="curve" smooth="yes"/>
      <point x="153" y="380"/>
      <point x="176" y="353"/>
      <point x="176" y="322" type="curve" smooth="yes"/>
      <point x="176" y="298"/>
      <point x="166" y="262"/>
    </contour>
  </outline>
</glyph>
<glyph name="Acircumflex" format="1">
  <advance width="556"/>
  <unicode hex="00C2"/>
  <outline>
    <contour>
      <point x="260" y="772" type="curve"/>
      <point x="275" y="758"/>
      <point x="283" y="750"/>
      <point x="307" y="732" type="curve" smooth="yes"/>
      <point x="325" y="717"/>
      <point x="344" y="703"/>
      <point x="357" y="701" type="curve"/>
      <point x="360" y="637" type="line"/>
      <point x="358" y="634"/>
      <point x="355" y="632"/>
      <point x="352" y="632" type="curve" smooth="yes"/>
      <point x="340" y="632"/>
      <point x="321" y="651"/>
      <point x="260" y="699" type="curve"/>
      <point x="200" y="651"/>
      <point x="180" y="632"/>
      <point x="169" y="632" type="curve" smooth="yes"/>
      <point x="166" y="632"/>
      <point x="164" y="634"/>
      <point x="162" y="637" type="curve"/>
      <point x="165" y="701" type="line"/>
      <point x="176" y="703"/>
      <point x="197" y="717"/>
      <point x="215" y="732" type="curve" smooth="yes"/>
      <point x="238" y="750"/>
      <point x="247" y="758"/>
    </contour>
    <contour>
      <point x="440" y="0" type="line"/>
      <point x="436" y="16"/>
      <point x="416" y="77"/>
      <point x="387" y="157" type="curve"/>
      <point x="154" y="157" type="line"/>
      <point x="154" y="156"/>
      <point x="153" y="155"/>
      <point x="153" y="154" type="curve"/>
      <point x="99" y="-5" type="line"/>
      <point x="31" y="0" type="line"/>
      <point x="75" y="108"/>
      <point x="182" y="413"/>
      <point x="233" y="558" type="curve"/>
      <point x="229" y="563"/>
      <point x="224" y="565"/>
      <point x="221" y="566" type="curve"/>
      <point x="261" y="655" type="line"/>
      <point x="262" y="655"/>
      <point x="263" y="656"/>
      <point x="264" y="656" type="curve" smooth="yes"/>
      <point x="298" y="656"/>
      <point x="365" y="476"/>
      <point x="432" y="293" type="curve" smooth="yes"/>
      <point x="442" y="266" type="line" smooth="yes"/>
      <point x="475" y="177"/>
      <point x="510" y="73"/>
      <point x="538" y="3" type="curve"/>
    </contour>
    <contour>
      <point x="171" y="207" type="curve"/>
      <point x="370" y="207" type="line"/>
      <point x="284" y="457" type="line" smooth="yes"/>
      <point x="280" y="469"/>
      <point x="273" y="484"/>
      <point x="266" y="499" type="curve"/>
      <point x="239" y="410"/>
      <point x="204" y="306"/>
    </contour>
  </outline>
</glyph>
<glyph name="Atilde" format="1">
  <advance width="556"/>
  <unicode hex="00C3"/>
  <outline>
    <contour>
      <point x="345" y="644" type="curve"/>
      <point x="339" y="641"/>
      <point x="334" y="640"/>
      <point x="328" y="640" type="curve" smooth="yes"/>
      <point x="294" y="640"/>
      <point x="257" y="677"/>
      <point x="225" y="677" type="curve" smooth="yes"/>
      <point x="212" y="677"/>
      <point x="198" y="672"/>
      <point x="187" y="654" type="curve"/>
      <point x="180" y="661" type="line"/>
      <point x="185" y="681"/>
      <point x="219" y="726"/>
      <point x="224" y="729" type="curve" smooth="yes"/>
      <point x="230" y="732"/>
      <point x="235" y="734"/>
      <point x="242" y="734" type="curve" smooth="yes"/>
      <point x="275" y="734"/>
      <point x="313" y="698"/>
      <point x="346" y="698" type="curve" smooth="yes"/>
      <point x="359" y="698"/>
      <point x="371" y="704"/>
      <point x="382" y="719" type="curve"/>
      <point x="389" y="714" type="line"/>
      <point x="384" y="694"/>
      <point x="350" y="647"/>
    </contour>
    <contour>
      <point x="440" y="0" type="line"/>
      <point x="436" y="16"/>
      <point x="416" y="77"/>
      <point x="387" y="157" type="curve"/>
      <point x="154" y="157" type="line"/>
      <point x="154" y="156"/>
      <point x="153" y="155"/>
      <point x="153" y="154" type="curve"/>
      <point x="99" y="-5" type="line"/>
      <point x="31" y="0" type="line"/>
      <point x="75" y="108"/>
      <point x="182" y="413"/>
      <point x="233" y="558" type="curve"/>
      <point x="229" y="563"/>
      <point x="224" y="565"/>
      <point x="221" y="566" type="curve"/>
      <point x="261" y="655" type="line"/>
      <point x="262" y="655"/>
      <point x="263" y="656"/>
      <point x="264" y="656" type="curve" smooth="yes"/>
      <point x="298" y="656"/>
      <point x="365" y="476"/>
      <point x="432" y="293" type="curve" smooth="yes"/>
      <point x="442" y="266" type="line" smooth="yes"/>
      <point x="475" y="177"/>
      <point x="510" y="73"/>
      <point x="538" y="3" type="curve"/>
    </contour>
    <contour>
      <point x="171" y="207" type="curve"/>
      <point x="370" y="207" type="line"/>
      <point x="284" y="457" type="line" smooth="yes"/>
      <point x="280" y="469"/>
      <point x="273" y="484"/>
      <point x="266" y="499" type="curve"/>
      <point x="239" y="410"/>
      <point x="204" y="306"/>
    </contour>
  </outline>
</glyph>
<glyph name="Adieresis" format="1">
  <advance width="556"/>
  <unicode hex="00C4"/>
  <outline>
    <contour>
      <point x="201" y="736" type="curve" smooth="yes"/>
      <point x="231" y="736"/>
      <point x="239" y="708"/>
      <point x="239" y="690" type="curve" smooth="yes"/>
      <point x="239" y="669"/>
      <point x="221" y="649"/>
      <point x="198" y="649" type="curve" smooth="yes"/>
      <point x="174" y="649"/>
      <point x="159" y="671"/>
      <point x="159" y="692" type="curve" smooth="yes"/>
      <point x="159" y="695"/>
      <point x="159" y="700"/>
      <point x="161" y="704" type="curve"/>
      <point x="164" y="722"/>
      <point x="184" y="736"/>
    </contour>
    <contour>
      <point x="339" y="736" type="curve" smooth="yes"/>
      <point x="369" y="736"/>
      <point x="377" y="708"/>
      <point x="377" y="690" type="curve" smooth="yes"/>
      <point x="377" y="669"/>
      <point x="359" y="649"/>
      <point x="335" y="649" type="curve" smooth="yes"/>
      <point x="312" y="649"/>
      <point x="298" y="671"/>
      <point x="298" y="692" type="curve" smooth="yes"/>
      <point x="298" y="695"/>
      <point x="298" y="700"/>
      <point x="299" y="704" type="curve"/>
      <point x="303" y="722"/>
      <point x="322" y="736"/>
    </contour>
    <contour>
      <point x="440" y="0" type="line"/>
      <point x="436" y="16"/>
      <point x="416" y="77"/>
      <point x="387" y="157" type="curve"/>
      <point x="154" y="157" type="line"/>
      <point x="154" y="156"/>
      <point x="153" y="155"/>
      <point x="153" y="154" type="curve"/>
      <point x="99" y="-5" type="line"/>
      <point x="31" y="0" type="line"/>
      <point x="75" y="108"/>
      <point x="182" y="413"/>
      <point x="233" y="558" type="curve"/>
      <point x="229" y="563"/>
      <point x="224" y="565"/>
      <point x="221" y="566" type="curve"/>
      <point x="261" y="655" type="line"/>
      <point x="262" y="655"/>
      <point x="263" y="656"/>
      <point x="264" y="656" type="curve" smooth="yes"/>
      <point x="298" y="656"/>
      <point x="365" y="476"/>
      <point x="432" y="293" type="curve" smooth="yes"/>
      <point x="442" y="266" type="line" smooth="yes"/>
      <point x="475" y="177"/>
      <point x="510" y="73"/>
      <point x="538" y="3" type="curve"/>
    </contour>
    <contour>
      <point x="171" y="207" type="curve"/>
      <point x="370" y="207" type="line"/>
      <point x="284" y="457" type="line" smooth="yes"/>
      <point x="280" y="469"/>
      <point x="273" y="484"/>
      <point x="266" y="499" type="curve"/>
      <point x="239" y="410"/>
      <point x="204" y="306"/>
    </contour>
  </outline>
</glyph>
<glyph name="Aring" format="1">
  <advance width="556"/>
  <unicode hex="00C5"/>
  <outline>
    <contour>
      <point x="440" y="0" type="line"/>
      <point x="436" y="16"/>
      <point x="416" y="77"/>
      <point x="387" y="157" type="curve"/>
      <point x="154" y="157" type="line"/>
      <point x="154" y="156"/>
      <point x="153" y="155"/>
      <point x="153" y="154" type="curve"/>
      <point x="99" y="-5" type="line"/>
      <point x="31" y="0" type="line"/>
      <point x="75" y="108"/>
      <point x="182" y="413"/>
      <point x="233" y="558" type="curve"/>
      <point x="229" y="563"/>
      <point x="224" y="565"/>
      <point x="221" y="566" type="curve"/>
      <point x="248" y="626" type="line"/>
      <point x="195" y="627"/>
      <point x="193" y="664"/>
      <point x="193" y="695" type="curve" smooth="yes"/>
      <point x="193" y="713"/>
      <point x="246" y="758"/>
      <point x="270" y="758" type="curve" smooth="yes"/>
      <point x="322" y="758"/>
      <point x="334" y="730"/>
      <point x="334" y="700" type="curve" smooth="yes"/>
      <point x="334" y="696"/>
      <point x="334" y="691"/>
      <point x="333" y="687" type="curve"/>
      <point x="333" y="675"/>
      <point x="308" y="653"/>
      <point x="285" y="638" type="curve"/>
      <point x="322" y="589"/>
      <point x="377" y="441"/>
      <point x="432" y="293" type="curve" smooth="yes"/>
      <point x="442" y="266" type="line" smooth="yes"/>
      <point x="475" y="177"/>
      <point x="510" y="73"/>
      <point x="538" y="3" type="curve"/>
    </contour>
    <contour>
      <point x="171" y="207" type="curve"/>
      <point x="370" y="207" type="line"/>
      <point x="284" y="457" type="line" smooth="yes"/>
      <point x="280" y="469"/>
      <point x="273" y="484"/>
      <point x="266" y="499" type="curve"/>
      <point x="239" y="410"/>
      <point x="204" y="306"/>
    </contour>
    <contour>
      <point x="294" y="650" type="curve"/>
      <point x="297" y="657"/>
      <point x="298" y="664"/>
      <point x="298" y="672" type="curve" smooth="yes"/>
      <point x="298" y="701"/>
      <point x="282" y="734"/>
      <point x="253" y="734" type="curve" smooth="yes"/>
      <point x="246" y="734"/>
      <point x="239" y="732"/>
      <point x="231" y="729" type="curve"/>
      <point x="226" y="722"/>
      <point x="224" y="713"/>
      <point x="224" y="704" type="curve" smooth="yes"/>
      <point x="224" y="681"/>
      <point x="238" y="658"/>
      <point x="258" y="649" type="curve"/>
      <point x="261" y="655" type="line"/>
      <point x="262" y="655"/>
      <point x="263" y="656"/>
      <point x="264" y="656" type="curve" smooth="yes"/>
      <point x="268" y="656"/>
      <point x="274" y="652"/>
      <point x="280" y="646" type="curve"/>
      <point x="284" y="646"/>
      <point x="289" y="648"/>
    </contour>
  </outline>
</glyph>
<glyph name="AE" format="1">
  <advance width="772"/>
  <unicode hex="00C6"/>
  <outline>
    <contour>
      <point x="312" y="649" type="line"/>
      <point x="329" y="648"/>
      <point x="353" y="648"/>
      <point x="380" y="648" type="curve" smooth="yes"/>
      <point x="596" y="648" type="line" smooth="yes"/>
      <point x="679" y="648"/>
      <point x="719" y="645"/>
      <point x="719" y="620" type="curve"/>
      <point x="663" y="580" type="line"/>
      <point x="639" y="593"/>
      <point x="598" y="593"/>
      <point x="567" y="593" type="curve" smooth="yes"/>
      <point x="557" y="593" type="line" smooth="yes"/>
      <point x="536" y="593"/>
      <point x="499" y="592"/>
      <point x="462" y="590" type="curve"/>
      <point x="469" y="540"/>
      <point x="471" y="462"/>
      <point x="471" y="374" type="curve" smooth="yes"/>
      <point x="471" y="357" type="line"/>
      <point x="491" y="354"/>
      <point x="514" y="353"/>
      <point x="540" y="353" type="curve" smooth="yes"/>
      <point x="550" y="353" type="line" smooth="yes"/>
      <point x="581" y="353"/>
      <point x="622" y="353"/>
      <point x="645" y="366" type="curve"/>
      <point x="708" y="326" type="line"/>
      <point x="708" y="303"/>
      <point x="686" y="299"/>
      <point x="615" y="299" type="curve" smooth="yes"/>
      <point x="471" y="299" type="line"/>
      <point x="471" y="207" type="line" smooth="yes"/>
      <point x="471" y="184"/>
      <point x="470" y="163"/>
      <point x="470" y="143" type="curve" smooth="yes"/>
      <point x="470" y="61" type="line"/>
      <point x="514" y="58"/>
      <point x="573" y="56"/>
      <point x="609" y="56" type="curve" smooth="yes"/>
      <point x="619" y="56" type="line" smooth="yes"/>
      <point x="649" y="56"/>
      <point x="691" y="56"/>
      <point x="716" y="69" type="curve"/>
      <point x="770" y="28" type="line"/>
      <point x="770" y="4"/>
      <point x="731" y="1"/>
      <point x="650" y="1" type="curve" smooth="yes"/>
      <point x="594" y="1" type="line" smooth="yes"/>
      <point x="573" y="1"/>
      <point x="549" y="2"/>
      <point x="524" y="2" type="curve" smooth="yes"/>
      <point x="489" y="2"/>
      <point x="440" y="1"/>
      <point x="397" y="0" type="curve" smooth="yes"/>
      <point x="372" y="0" type="line"/>
      <point x="374" y="14"/>
      <point x="376" y="80"/>
      <point x="379" y="157" type="curve"/>
      <point x="169" y="157" type="line"/>
      <point x="168" y="157"/>
      <point x="167" y="156"/>
      <point x="167" y="155" type="curve"/>
      <point x="82" y="-3" type="line"/>
      <point x="15" y="1" type="line"/>
      <point x="79" y="107"/>
      <point x="257" y="425"/>
      <point x="344" y="583" type="curve"/>
      <point x="343" y="582"/>
      <point x="341" y="582"/>
      <point x="339" y="582" type="curve"/>
    </contour>
    <contour>
      <point x="195" y="207" type="curve"/>
      <point x="380" y="207" type="line"/>
      <point x="383" y="317"/>
      <point x="385" y="435"/>
      <point x="385" y="462" type="curve" smooth="yes"/>
      <point x="385" y="485"/>
      <point x="384" y="521"/>
      <point x="381" y="551" type="curve"/>
      <point x="329" y="449"/>
      <point x="256" y="320"/>
    </contour>
  </outline>
</glyph>
<glyph name="Ccedilla" format="1">
  <advance width="539"/>
  <unicode hex="00C7"/>
  <outline>
    <contour>
      <point x="290" y="658" type="line"/>
      <point x="368" y="635"/>
      <point x="474" y="520"/>
      <point x="474" y="503" type="curve"/>
      <point x="469" y="494"/>
      <point x="449" y="459"/>
      <point x="418" y="436" type="curve"/>
      <point x="388" y="483"/>
      <point x="306" y="551"/>
      <point x="243" y="551" type="curve" smooth="yes"/>
      <point x="154" y="551"/>
      <point x="148" y="414"/>
      <point x="148" y="348" type="curve" smooth="yes"/>
      <point x="148" y="145"/>
      <point x="215" y="80"/>
      <point x="293" y="80" type="curve" smooth="yes"/>
      <point x="356" y="80"/>
      <point x="422" y="91"/>
      <point x="466" y="125" type="curve"/>
      <point x="490" y="83" type="line"/>
      <point x="460" y="59"/>
      <point x="405" y="38"/>
      <point x="353" y="23" type="curve"/>
      <point x="359" y="30"/>
      <point x="362" y="34"/>
      <point x="362" y="39" type="curve" smooth="yes"/>
      <point x="362" y="42"/>
      <point x="361" y="43"/>
      <point x="357" y="48" type="curve"/>
      <point x="297" y="30" type="line"/>
      <point x="297" y="28"/>
      <point x="295" y="26"/>
      <point x="295" y="24" type="curve" smooth="yes"/>
      <point x="295" y="23"/>
      <point x="295" y="22"/>
      <point x="296" y="21" type="curve"/>
      <point x="296" y="21"/>
      <point x="295" y="20"/>
      <point x="289" y="13" type="curve" smooth="yes"/>
      <point x="281" y="5" type="line"/>
      <point x="258" y="0"/>
      <point x="240" y="-2"/>
      <point x="231" y="-3" type="curve"/>
      <point x="108" y="5"/>
      <point x="59" y="151"/>
      <point x="59" y="277" type="curve" smooth="yes"/>
      <point x="59" y="320"/>
      <point x="64" y="361"/>
      <point x="72" y="392" type="curve" smooth="yes"/>
      <point x="89" y="454"/>
      <point x="220" y="658"/>
      <point x="286" y="658" type="curve"/>
    </contour>
    <contour>
      <point x="231" y="-39" type="curve"/>
      <point x="230" y="-39"/>
      <point x="233" y="-39"/>
      <point x="238" y="-39" type="curve"/>
      <point x="239" y="-39" type="line"/>
      <point x="249" y="-29"/>
      <point x="266" y="-11"/>
      <point x="281" y="5" type="curve"/>
      <point x="302" y="9"/>
      <point x="326" y="16"/>
      <point x="353" y="23" type="curve"/>
      <point x="352" y="22" type="line"/>
      <point x="340" y="11" type="line" smooth="yes"/>
      <point x="329" y="-2"/>
      <point x="308" y="-22"/>
      <point x="286" y="-47" type="curve"/>
      <point x="298" y="-61"/>
      <point x="309" y="-103"/>
      <point x="310" y="-121" type="curve"/>
      <point x="304" y="-145"/>
      <point x="276" y="-182"/>
      <point x="245" y="-182" type="curve" smooth="yes"/>
      <point x="239" y="-182"/>
      <point x="235" y="-181"/>
      <point x="229" y="-179" type="curve" smooth="yes"/>
      <point x="221" y="-175"/>
      <point x="180" y="-152"/>
      <point x="176" y="-137" type="curve"/>
      <point x="204" y="-113" type="line"/>
      <point x="211" y="-134"/>
      <point x="218" y="-147"/>
      <point x="223" y="-147" type="curve" smooth="yes"/>
      <point x="241" y="-147"/>
      <point x="264" y="-93"/>
      <point x="264" y="-80" type="curve" smooth="yes"/>
      <point x="264" y="-70"/>
      <point x="258" y="-65"/>
      <point x="252" y="-65" type="curve" smooth="yes"/>
      <point x="248" y="-65"/>
      <point x="244" y="-66"/>
      <point x="240" y="-69" type="curve"/>
      <point x="235" y="-61"/>
      <point x="231" y="-46"/>
    </contour>
  </outline>
</glyph>
<glyph name="Eacute" format="1">
  <advance width="459"/>
  <unicode hex="00C9"/>
  <outline>
    <contour>
      <point x="279" y="772" type="line"/>
      <point x="193" y="704"/>
      <point x="168" y="678"/>
      <point x="156" y="678" type="curve" smooth="yes"/>
      <point x="153" y="678"/>
      <point x="150" y="680"/>
      <point x="148" y="683" type="curve"/>
      <point x="151" y="747" type="line"/>
      <point x="162" y="749"/>
      <point x="183" y="763"/>
      <point x="201" y="778" type="curve" smooth="yes"/>
      <point x="224" y="796"/>
      <point x="233" y="804"/>
      <point x="246" y="818" type="curve"/>
    </contour>
    <contour>
      <point x="32" y="649" type="line"/>
      <point x="61" y="648"/>
      <point x="94" y="648"/>
      <point x="123" y="648" type="curve" smooth="yes"/>
      <point x="284" y="648" type="line" smooth="yes"/>
      <point x="367" y="648"/>
      <point x="407" y="645"/>
      <point x="407" y="620" type="curve"/>
      <point x="350" y="580" type="line"/>
      <point x="326" y="593"/>
      <point x="285" y="593"/>
      <point x="254" y="593" type="curve" smooth="yes"/>
      <point x="244" y="593" type="line" smooth="yes"/>
      <point x="221" y="593"/>
      <point x="184" y="591"/>
      <point x="150" y="590" type="curve"/>
      <point x="157" y="539"/>
      <point x="158" y="461"/>
      <point x="158" y="374" type="curve" smooth="yes"/>
      <point x="158" y="357" type="line"/>
      <point x="179" y="354"/>
      <point x="202" y="353"/>
      <point x="228" y="353" type="curve" smooth="yes"/>
      <point x="238" y="353" type="line" smooth="yes"/>
      <point x="268" y="353"/>
      <point x="310" y="353"/>
      <point x="333" y="366" type="curve"/>
      <point x="395" y="326" type="line"/>
      <point x="395" y="303"/>
      <point x="374" y="299"/>
      <point x="303" y="299" type="curve" smooth="yes"/>
      <point x="158" y="299" type="line"/>
      <point x="158" y="250" type="line" smooth="yes"/>
      <point x="158" y="214"/>
      <point x="157" y="179"/>
      <point x="157" y="143" type="curve" smooth="yes"/>
      <point x="157" y="61" type="line"/>
      <point x="202" y="58"/>
      <point x="261" y="56"/>
      <point x="297" y="56" type="curve" smooth="yes"/>
      <point x="307" y="56" type="line" smooth="yes"/>
      <point x="337" y="56"/>
      <point x="379" y="56"/>
      <point x="403" y="69" type="curve"/>
      <point x="458" y="28" type="line"/>
      <point x="458" y="4"/>
      <point x="419" y="1"/>
      <point x="338" y="1" type="curve" smooth="yes"/>
      <point x="281" y="1" type="line" smooth="yes"/>
      <point x="261" y="1"/>
      <point x="237" y="2"/>
      <point x="212" y="2" type="curve" smooth="yes"/>
      <point x="176" y="2"/>
      <point x="128" y="1"/>
      <point x="84" y="0" type="curve" smooth="yes"/>
      <point x="60" y="0" type="line"/>
      <point x="65" y="35"/>
      <point x="72" y="412"/>
      <point x="72" y="462" type="curve" smooth="yes"/>
      <point x="72" y="503"/>
      <point x="71" y="545"/>
      <point x="61" y="563" type="curve"/>
      <point x="76" y="584" type="line"/>
      <point x="60" y="582" type="line"/>
    </contour>
  </outline>
</glyph>
